<svg width="1920" height="1200" viewBox="0 0 1920 1200" fill="none" xmlns="http://www.w3.org/2000/svg">
<g id="solidity.interspace.chat:hover">
<rect width="1920" height="1200" fill="#E6E7EC"/>
<path id="empty" d="M960 487H794L877 341L960 487Z" fill="#19191A"/>
<g id="new-room">
<g id="Group 11">
<path id="new-room_2" d="M794 708L960 708L877 854.5L794 708Z" fill="#5C5C5E"/>
<path id="new-room-hover" d="M789 733L917 733L853 853L789 733Z" fill="url(#paint0_linear)"/>
</g>
<path id="CR&#206;&#158;AT&#206;&#158; BR&#206;&#158;AKOUT R00M" d="M706.68 793.325C706.595 794.214 706.383 795.026 706.045 795.763C705.706 796.491 705.258 797.117 704.699 797.642C704.141 798.158 703.48 798.56 702.719 798.848C701.965 799.127 701.123 799.267 700.192 799.267C699.067 799.267 698.085 799.051 697.247 798.619C696.409 798.179 695.711 797.587 695.152 796.842C694.594 796.097 694.175 795.225 693.896 794.227C693.616 793.228 693.472 792.161 693.464 791.027V788.501C693.472 787.375 693.62 786.313 693.908 785.314C694.196 784.307 694.619 783.431 695.178 782.687C695.745 781.933 696.447 781.341 697.285 780.909C698.123 780.469 699.096 780.249 700.205 780.249C701.178 780.249 702.046 780.393 702.808 780.681C703.569 780.968 704.221 781.375 704.763 781.899C705.304 782.424 705.736 783.063 706.058 783.816C706.379 784.57 706.587 785.408 706.68 786.33H703.633C703.582 785.788 703.476 785.298 703.315 784.857C703.163 784.409 702.951 784.028 702.681 783.715C702.41 783.393 702.067 783.148 701.652 782.979C701.246 782.809 700.764 782.725 700.205 782.725C699.52 782.725 698.944 782.881 698.479 783.194C698.013 783.507 697.636 783.931 697.349 784.464C697.061 784.989 696.854 785.598 696.727 786.292C696.608 786.986 696.549 787.714 696.549 788.476V791.027C696.549 791.823 696.608 792.572 696.727 793.274C696.854 793.968 697.057 794.578 697.336 795.103C697.615 795.627 697.988 796.042 698.453 796.347C698.919 796.651 699.498 796.804 700.192 796.804C701.259 796.804 702.071 796.503 702.63 795.902C703.188 795.293 703.519 794.434 703.62 793.325H706.68ZM716.011 791.789H712.913V799H709.866V780.516H715.706C716.654 780.524 717.526 780.647 718.321 780.884C719.125 781.112 719.819 781.459 720.403 781.925C720.987 782.382 721.44 782.957 721.762 783.651C722.083 784.345 722.244 785.158 722.244 786.089C722.244 786.715 722.16 787.286 721.99 787.803C721.829 788.311 721.601 788.772 721.305 789.187C721.008 789.601 720.653 789.965 720.238 790.278C719.824 790.591 719.367 790.858 718.867 791.078L722.777 798.848V799H719.527L716.011 791.789ZM712.913 789.326H715.719C716.227 789.326 716.692 789.254 717.115 789.11C717.538 788.966 717.902 788.763 718.207 788.501C718.52 788.23 718.761 787.904 718.931 787.523C719.1 787.134 719.185 786.69 719.185 786.19C719.185 785.674 719.104 785.217 718.943 784.819C718.783 784.422 718.55 784.087 718.245 783.816C717.949 783.546 717.585 783.342 717.153 783.207C716.722 783.063 716.239 782.987 715.706 782.979H712.913V789.326ZM725.215 796.55H737.352V799H725.215V796.55ZM726.421 788.298H736.069V790.697H726.421V788.298ZM725.342 780.516H737.06V782.979H725.342V780.516ZM750.009 794.709H744.232L742.963 799H739.814L745.819 780.516H748.498L754.389 799H751.253L750.009 794.709ZM745.007 792.106H749.247L747.152 784.857L745.007 792.106ZM769.75 783.029H764.075V799H761.041V783.029H755.404V780.516H769.75V783.029ZM772.061 796.55H784.197V799H772.061V796.55ZM773.267 788.298H782.915V790.697H773.267V788.298ZM772.188 780.516H783.905V782.979H772.188V780.516ZM584.881 834V815.516H590.784C591.673 815.524 592.502 815.626 593.272 815.82C594.051 816.015 594.728 816.315 595.304 816.722C595.888 817.128 596.345 817.648 596.675 818.283C597.005 818.91 597.166 819.654 597.157 820.518C597.149 821.432 596.895 822.215 596.396 822.866C595.896 823.509 595.223 824.009 594.377 824.364C594.893 824.508 595.35 824.715 595.748 824.986C596.154 825.249 596.493 825.566 596.764 825.938C597.035 826.311 597.242 826.726 597.386 827.183C597.53 827.631 597.602 828.109 597.602 828.617C597.602 829.497 597.441 830.272 597.119 830.94C596.798 831.609 596.349 832.168 595.773 832.616C595.206 833.065 594.529 833.408 593.742 833.645C592.964 833.873 592.121 833.992 591.216 834H584.881ZM587.94 825.621V831.512H591.267C591.749 831.503 592.189 831.431 592.587 831.296C592.985 831.152 593.327 830.957 593.615 830.712C593.903 830.466 594.127 830.166 594.288 829.811C594.457 829.455 594.542 829.057 594.542 828.617C594.542 828.152 594.47 827.737 594.326 827.373C594.182 827.001 593.975 826.688 593.704 826.434C593.433 826.18 593.103 825.985 592.714 825.85C592.325 825.706 591.889 825.63 591.406 825.621H587.94ZM587.94 823.298H590.86C591.317 823.289 591.741 823.23 592.13 823.12C592.528 823.002 592.87 822.832 593.158 822.612C593.446 822.384 593.674 822.109 593.844 821.787C594.013 821.457 594.098 821.08 594.098 820.657C594.098 820.192 594.017 819.794 593.856 819.464C593.696 819.134 593.467 818.863 593.171 818.651C592.883 818.44 592.54 818.287 592.143 818.194C591.745 818.093 591.309 818.038 590.835 818.029H587.94V823.298ZM606.704 826.789H603.606V834H600.56V815.516H606.399C607.347 815.524 608.219 815.647 609.015 815.884C609.819 816.112 610.513 816.459 611.097 816.925C611.681 817.382 612.133 817.957 612.455 818.651C612.777 819.345 612.938 820.158 612.938 821.089C612.938 821.715 612.853 822.286 612.684 822.803C612.523 823.311 612.294 823.772 611.998 824.187C611.702 824.601 611.346 824.965 610.932 825.278C610.517 825.591 610.06 825.858 609.561 826.078L613.471 833.848V834H610.221L606.704 826.789ZM603.606 824.326H606.412C606.92 824.326 607.385 824.254 607.809 824.11C608.232 823.966 608.596 823.763 608.9 823.501C609.214 823.23 609.455 822.904 609.624 822.523C609.793 822.134 609.878 821.69 609.878 821.19C609.878 820.674 609.798 820.217 609.637 819.819C609.476 819.422 609.243 819.087 608.938 818.816C608.642 818.546 608.278 818.342 607.847 818.207C607.415 818.063 606.933 817.987 606.399 817.979H603.606V824.326ZM615.908 831.55H628.045V834H615.908V831.55ZM617.114 823.298H626.763V825.697H617.114V823.298ZM616.035 815.516H627.753V817.979H616.035V815.516ZM640.702 829.709H634.926L633.656 834H630.508L636.513 815.516H639.191L645.082 834H641.946L640.702 829.709ZM635.7 827.106H639.94L637.846 819.857L635.7 827.106ZM652.395 825.964L650.414 828.186V834H647.329V815.516H650.414V824.174L652.103 821.978L656.965 815.516H660.685L654.4 823.628L661.002 834H657.346L652.395 825.964ZM675.5 825.951C675.5 827.043 675.36 828.092 675.081 829.1C674.802 830.098 674.383 830.983 673.824 831.753C673.274 832.515 672.58 833.124 671.742 833.581C670.913 834.03 669.939 834.254 668.822 834.254C667.714 834.254 666.749 834.025 665.928 833.568C665.107 833.111 664.421 832.502 663.871 831.74C663.329 830.97 662.919 830.086 662.64 829.087C662.369 828.088 662.233 827.043 662.233 825.951V823.59C662.233 822.862 662.293 822.151 662.411 821.457C662.538 820.763 662.72 820.111 662.957 819.502C663.202 818.884 663.503 818.317 663.858 817.801C664.222 817.276 664.646 816.827 665.128 816.455C665.619 816.083 666.169 815.791 666.778 815.579C667.396 815.368 668.073 815.262 668.81 815.262C669.927 815.262 670.9 815.49 671.729 815.947C672.567 816.404 673.266 817.018 673.824 817.788C674.383 818.55 674.802 819.434 675.081 820.441C675.36 821.449 675.5 822.498 675.5 823.59V825.951ZM672.44 823.564C672.432 822.87 672.368 822.181 672.25 821.495C672.132 820.81 671.933 820.2 671.653 819.667C671.374 819.125 671.002 818.689 670.536 818.359C670.079 818.021 669.504 817.852 668.81 817.852C668.124 817.852 667.553 818.021 667.096 818.359C666.647 818.689 666.287 819.125 666.017 819.667C665.754 820.209 665.568 820.822 665.458 821.508C665.356 822.185 665.301 822.87 665.293 823.564V825.951C665.301 826.645 665.361 827.335 665.471 828.021C665.581 828.698 665.767 829.311 666.029 829.861C666.3 830.403 666.66 830.843 667.108 831.182C667.565 831.52 668.137 831.689 668.822 831.689C669.516 831.689 670.092 831.52 670.549 831.182C671.014 830.843 671.387 830.403 671.666 829.861C671.945 829.32 672.14 828.706 672.25 828.021C672.368 827.335 672.432 826.645 672.44 825.951V823.564ZM690.607 815.516L690.633 827.894C690.624 828.841 690.472 829.709 690.176 830.496C689.88 831.275 689.465 831.943 688.932 832.502C688.398 833.061 687.751 833.492 686.989 833.797C686.236 834.102 685.39 834.254 684.45 834.254C683.536 834.254 682.707 834.102 681.962 833.797C681.217 833.492 680.578 833.065 680.045 832.515C679.512 831.956 679.097 831.287 678.801 830.509C678.505 829.722 678.352 828.85 678.344 827.894L678.369 815.516H681.365L681.391 827.894C681.399 828.461 681.471 828.981 681.606 829.455C681.742 829.929 681.937 830.34 682.19 830.687C682.444 831.025 682.757 831.292 683.13 831.486C683.511 831.673 683.951 831.766 684.45 831.766C684.958 831.766 685.407 831.673 685.796 831.486C686.185 831.292 686.511 831.025 686.773 830.687C687.036 830.34 687.235 829.929 687.37 829.455C687.506 828.981 687.577 828.461 687.586 827.894L687.611 815.516H690.607ZM707.289 818.029H701.614V834H698.58V818.029H692.943V815.516H707.289V818.029ZM731.626 826.789H728.528V834H725.481V815.516H731.321C732.269 815.524 733.141 815.647 733.937 815.884C734.741 816.112 735.435 816.459 736.019 816.925C736.603 817.382 737.055 817.957 737.377 818.651C737.699 819.345 737.859 820.158 737.859 821.089C737.859 821.715 737.775 822.286 737.605 822.803C737.445 823.311 737.216 823.772 736.92 824.187C736.624 824.601 736.268 824.965 735.854 825.278C735.439 825.591 734.982 825.858 734.482 826.078L738.393 833.848V834H735.143L731.626 826.789ZM728.528 824.326H731.334C731.842 824.326 732.307 824.254 732.73 824.11C733.154 823.966 733.518 823.763 733.822 823.501C734.135 823.23 734.377 822.904 734.546 822.523C734.715 822.134 734.8 821.69 734.8 821.19C734.8 820.674 734.719 820.217 734.559 819.819C734.398 819.422 734.165 819.087 733.86 818.816C733.564 818.546 733.2 818.342 732.769 818.207C732.337 818.063 731.854 817.987 731.321 817.979H728.528V824.326ZM752.992 826.967C752.992 828.16 752.853 829.214 752.573 830.128C752.302 831.034 751.909 831.795 751.393 832.413C750.876 833.022 750.246 833.484 749.501 833.797C748.756 834.11 747.918 834.267 746.987 834.267C746.065 834.267 745.231 834.11 744.486 833.797C743.742 833.484 743.107 833.022 742.582 832.413C742.066 831.795 741.664 831.034 741.376 830.128C741.097 829.214 740.957 828.16 740.957 826.967V822.549C740.957 821.355 741.097 820.306 741.376 819.4C741.655 818.486 742.053 817.725 742.569 817.115C743.094 816.497 743.725 816.032 744.461 815.719C745.206 815.406 746.039 815.249 746.962 815.249C747.893 815.249 748.731 815.406 749.476 815.719C750.22 816.032 750.851 816.497 751.367 817.115C751.892 817.725 752.294 818.486 752.573 819.4C752.853 820.306 752.992 821.355 752.992 822.549V826.967ZM744.004 825.812L749.92 821.406C749.852 820.145 749.573 819.214 749.082 818.613C748.6 818.004 747.893 817.699 746.962 817.699C745.972 817.699 745.231 818.05 744.74 818.753C744.249 819.455 744.004 820.535 744.004 821.99V825.812ZM749.945 823.793L744.029 828.198C744.182 830.619 745.168 831.829 746.987 831.829C748.959 831.829 749.945 830.386 749.945 827.5V823.793ZM768.607 826.967C768.607 828.16 768.468 829.214 768.188 830.128C767.918 831.034 767.524 831.795 767.008 832.413C766.492 833.022 765.861 833.484 765.116 833.797C764.371 834.11 763.534 834.267 762.603 834.267C761.68 834.267 760.846 834.11 760.102 833.797C759.357 833.484 758.722 833.022 758.197 832.413C757.681 831.795 757.279 831.034 756.991 830.128C756.712 829.214 756.572 828.16 756.572 826.967V822.549C756.572 821.355 756.712 820.306 756.991 819.4C757.271 818.486 757.668 817.725 758.185 817.115C758.709 816.497 759.34 816.032 760.076 815.719C760.821 815.406 761.655 815.249 762.577 815.249C763.508 815.249 764.346 815.406 765.091 815.719C765.836 816.032 766.466 816.497 766.982 817.115C767.507 817.725 767.909 818.486 768.188 819.4C768.468 820.306 768.607 821.355 768.607 822.549V826.967ZM759.619 825.812L765.535 821.406C765.467 820.145 765.188 819.214 764.697 818.613C764.215 818.004 763.508 817.699 762.577 817.699C761.587 817.699 760.846 818.05 760.355 818.753C759.865 819.455 759.619 820.535 759.619 821.99V825.812ZM765.561 823.793L759.645 828.198C759.797 830.619 760.783 831.829 762.603 831.829C764.575 831.829 765.561 830.386 765.561 827.5V823.793ZM775.882 815.516L778.18 823.501L780.719 815.516H784.502V834H781.633V827.652L781.811 819.553L778.967 828.414H777.367L774.79 819.857L774.968 827.652V834H772.099V815.516H775.882Z" fill="black"/>
</g>
<g id="chat">
<g id="Group 9">
<path id="chat_2" d="M1043 854.5L877 854.5L960 708L1043 854.5Z" fill="#333334"/>
<path id="chat-hover" d="M1028 876H900L964 756L1028 876Z" stroke="#FCE96A" stroke-width="4"/>
</g>
<path id="CHAT" d="M941.641 924.325C941.556 925.214 941.344 926.026 941.006 926.763C940.667 927.491 940.219 928.117 939.66 928.642C939.102 929.158 938.441 929.56 937.68 929.848C936.926 930.127 936.084 930.267 935.153 930.267C934.028 930.267 933.046 930.051 932.208 929.619C931.37 929.179 930.672 928.587 930.113 927.842C929.555 927.097 929.136 926.225 928.856 925.227C928.577 924.228 928.433 923.161 928.425 922.027V919.501C928.433 918.375 928.581 917.313 928.869 916.314C929.157 915.307 929.58 914.431 930.139 913.687C930.706 912.933 931.408 912.341 932.246 911.909C933.084 911.469 934.057 911.249 935.166 911.249C936.139 911.249 937.007 911.393 937.769 911.681C938.53 911.968 939.182 912.375 939.724 912.899C940.265 913.424 940.697 914.063 941.019 914.816C941.34 915.57 941.548 916.408 941.641 917.33H938.594C938.543 916.788 938.437 916.298 938.276 915.857C938.124 915.409 937.912 915.028 937.642 914.715C937.371 914.393 937.028 914.148 936.613 913.979C936.207 913.809 935.725 913.725 935.166 913.725C934.48 913.725 933.905 913.881 933.439 914.194C932.974 914.508 932.597 914.931 932.31 915.464C932.022 915.989 931.814 916.598 931.688 917.292C931.569 917.986 931.51 918.714 931.51 919.476V922.027C931.51 922.823 931.569 923.572 931.688 924.274C931.814 924.968 932.018 925.578 932.297 926.103C932.576 926.627 932.949 927.042 933.414 927.347C933.88 927.651 934.459 927.804 935.153 927.804C936.22 927.804 937.032 927.503 937.591 926.902C938.149 926.293 938.479 925.434 938.581 924.325H941.641ZM956.748 930H953.777V921.748H947.493V930H944.535V911.516H947.493V919.247H953.777V911.516H956.748V930ZM969.354 925.709H963.578L962.309 930H959.16L965.165 911.516H967.844L973.734 930H970.599L969.354 925.709ZM964.353 923.106H968.593L966.498 915.857L964.353 923.106ZM989.096 914.029H983.421V930H980.387V914.029H974.75V911.516H989.096V914.029Z" fill="black"/>
</g>
<g id="poap">
<g id="Group 7">
<path id="poap_2" d="M960 708L1126 708L1043 854.5L960 708Z" fill="#19191A"/>
<path id="poap-hover" d="M1003 733L1131 733L1067 853L1003 733Z" fill="url(#paint1_linear)"/>
</g>
<path id="CLA1M P0AP" d="M1134.37 808.325C1134.29 809.214 1134.07 810.026 1133.74 810.763C1133.4 811.491 1132.95 812.117 1132.39 812.642C1131.83 813.158 1131.17 813.56 1130.41 813.848C1129.66 814.127 1128.81 814.267 1127.88 814.267C1126.76 814.267 1125.78 814.051 1124.94 813.619C1124.1 813.179 1123.4 812.587 1122.84 811.842C1122.29 811.097 1121.87 810.225 1121.59 809.227C1121.31 808.228 1121.16 807.161 1121.16 806.027V803.501C1121.16 802.375 1121.31 801.313 1121.6 800.314C1121.89 799.307 1122.31 798.431 1122.87 797.687C1123.44 796.933 1124.14 796.341 1124.98 795.909C1125.81 795.469 1126.79 795.249 1127.9 795.249C1128.87 795.249 1129.74 795.393 1130.5 795.681C1131.26 795.968 1131.91 796.375 1132.45 796.899C1133 797.424 1133.43 798.063 1133.75 798.816C1134.07 799.57 1134.28 800.408 1134.37 801.33H1131.32C1131.27 800.788 1131.17 800.298 1131.01 799.857C1130.85 799.409 1130.64 799.028 1130.37 798.715C1130.1 798.393 1129.76 798.148 1129.34 797.979C1128.94 797.809 1128.46 797.725 1127.9 797.725C1127.21 797.725 1126.64 797.881 1126.17 798.194C1125.7 798.507 1125.33 798.931 1125.04 799.464C1124.75 799.989 1124.54 800.598 1124.42 801.292C1124.3 801.986 1124.24 802.714 1124.24 803.476V806.027C1124.24 806.823 1124.3 807.572 1124.42 808.274C1124.54 808.968 1124.75 809.578 1125.03 810.103C1125.31 810.627 1125.68 811.042 1126.14 811.347C1126.61 811.651 1127.19 811.804 1127.88 811.804C1128.95 811.804 1129.76 811.503 1130.32 810.902C1130.88 810.293 1131.21 809.434 1131.31 808.325H1134.37ZM1140.85 811.512H1149.66V814H1137.8V795.516H1140.85V811.512ZM1162.08 809.709H1156.31L1155.04 814H1151.89L1157.9 795.516H1160.57L1166.46 814H1163.33L1162.08 809.709ZM1157.08 807.106H1161.32L1159.23 799.857L1157.08 807.106ZM1177.03 814H1173.97V799.261L1169.25 800.987V798.321L1176.84 795.516H1177.03V814ZM1187.96 795.516L1190.26 803.501L1192.79 795.516H1196.58V814H1193.71V807.652L1193.89 799.553L1191.04 808.414H1189.44L1186.87 799.857L1187.04 807.652V814H1184.17V795.516H1187.96ZM1125.17 841.916V849H1122.12V830.516H1128.3C1129.23 830.524 1130.08 830.664 1130.85 830.935C1131.64 831.197 1132.32 831.578 1132.89 832.077C1133.45 832.568 1133.89 833.169 1134.21 833.88C1134.53 834.582 1134.69 835.378 1134.69 836.267C1134.69 837.13 1134.53 837.909 1134.21 838.603C1133.89 839.297 1133.45 839.889 1132.89 840.38C1132.32 840.871 1131.64 841.247 1130.85 841.51C1130.08 841.772 1129.23 841.908 1128.3 841.916H1125.17ZM1125.17 839.453H1128.3C1128.82 839.453 1129.28 839.377 1129.69 839.225C1130.09 839.064 1130.44 838.844 1130.73 838.564C1131.02 838.285 1131.24 837.951 1131.39 837.562C1131.54 837.172 1131.62 836.749 1131.62 836.292C1131.62 835.81 1131.54 835.365 1131.39 834.959C1131.24 834.553 1131.02 834.206 1130.73 833.918C1130.44 833.622 1130.09 833.393 1129.69 833.232C1129.28 833.072 1128.82 832.987 1128.3 832.979H1125.17V839.453ZM1149.45 841.967C1149.45 843.16 1149.31 844.214 1149.03 845.128C1148.76 846.034 1148.37 846.795 1147.85 847.413C1147.34 848.022 1146.71 848.484 1145.96 848.797C1145.22 849.11 1144.38 849.267 1143.45 849.267C1142.53 849.267 1141.69 849.11 1140.95 848.797C1140.2 848.484 1139.57 848.022 1139.04 847.413C1138.53 846.795 1138.12 846.034 1137.84 845.128C1137.56 844.214 1137.42 843.16 1137.42 841.967V837.549C1137.42 836.355 1137.56 835.306 1137.84 834.4C1138.12 833.486 1138.51 832.725 1139.03 832.115C1139.56 831.497 1140.19 831.032 1140.92 830.719C1141.67 830.406 1142.5 830.249 1143.42 830.249C1144.35 830.249 1145.19 830.406 1145.94 830.719C1146.68 831.032 1147.31 831.497 1147.83 832.115C1148.35 832.725 1148.75 833.486 1149.03 834.4C1149.31 835.306 1149.45 836.355 1149.45 837.549V841.967ZM1140.46 840.812L1146.38 836.406C1146.31 835.145 1146.03 834.214 1145.54 833.613C1145.06 833.004 1144.35 832.699 1143.42 832.699C1142.43 832.699 1141.69 833.05 1141.2 833.753C1140.71 834.455 1140.46 835.535 1140.46 836.99V840.812ZM1146.41 838.793L1140.49 843.198C1140.64 845.619 1141.63 846.829 1143.45 846.829C1145.42 846.829 1146.41 845.386 1146.41 842.5V838.793ZM1162.08 844.709H1156.31L1155.04 849H1151.89L1157.9 830.516H1160.57L1166.46 849H1163.33L1162.08 844.709ZM1157.08 842.106H1161.32L1159.23 834.857L1157.08 842.106ZM1172.01 841.916V849H1168.97V830.516H1175.15C1176.07 830.524 1176.92 830.664 1177.7 830.935C1178.49 831.197 1179.16 831.578 1179.73 832.077C1180.3 832.568 1180.74 833.169 1181.05 833.88C1181.37 834.582 1181.53 835.378 1181.53 836.267C1181.53 837.13 1181.37 837.909 1181.05 838.603C1180.74 839.297 1180.3 839.889 1179.73 840.38C1179.16 840.871 1178.49 841.247 1177.7 841.51C1176.92 841.772 1176.07 841.908 1175.15 841.916H1172.01ZM1172.01 839.453H1175.15C1175.66 839.453 1176.13 839.377 1176.53 839.225C1176.94 839.064 1177.29 838.844 1177.57 838.564C1177.86 838.285 1178.08 837.951 1178.23 837.562C1178.39 837.172 1178.46 836.749 1178.46 836.292C1178.46 835.81 1178.39 835.365 1178.23 834.959C1178.08 834.553 1177.86 834.206 1177.57 833.918C1177.29 833.622 1176.94 833.393 1176.53 833.232C1176.13 833.072 1175.66 832.987 1175.15 832.979H1172.01V839.453Z" fill="black"/>
</g>
<g id="livestream">
<g id="Group 5">
<path id="livestream_2" d="M1126 708L960 708L1043 562L1126 708Z" fill="#2E2E2F"/>
<path id="livestream-hover" d="M1131 689H1003L1067 569L1131 689Z" fill="url(#paint2_linear)"/>
</g>
<path id="L1V&#206;&#158; STR&#206;&#158;AM" d="M1141.23 608.512H1150.04V611H1138.18V592.516H1141.23V608.512ZM1161.8 611H1158.74V596.261L1154.01 597.987V595.321L1161.61 592.516H1161.8V611ZM1175 606.366L1178.85 592.516H1182.17L1176.46 611H1173.55L1167.85 592.516H1171.18L1175 606.366ZM1184.52 608.55H1196.66V611H1184.52V608.55ZM1185.73 600.298H1195.38V602.697H1185.73V600.298ZM1184.65 592.516H1196.37V594.979H1184.65V592.516ZM1147.49 641.239C1147.49 640.799 1147.4 640.414 1147.21 640.084C1147.03 639.745 1146.77 639.449 1146.44 639.195C1146.11 638.941 1145.71 638.721 1145.24 638.535C1144.79 638.341 1144.29 638.163 1143.74 638.002C1143.02 637.79 1142.3 637.528 1141.59 637.215C1140.88 636.902 1140.25 636.521 1139.69 636.072C1139.14 635.615 1138.7 635.086 1138.35 634.485C1138.01 633.876 1137.84 633.174 1137.84 632.378C1137.84 631.582 1138.01 630.871 1138.35 630.245C1138.7 629.61 1139.16 629.073 1139.73 628.633C1140.31 628.193 1140.98 627.854 1141.74 627.617C1142.5 627.38 1143.3 627.262 1144.12 627.262C1145.01 627.262 1145.84 627.401 1146.61 627.681C1147.39 627.952 1148.07 628.337 1148.64 628.836C1149.23 629.327 1149.69 629.919 1150.03 630.613C1150.37 631.299 1150.54 632.061 1150.55 632.898H1147.5C1147.46 632.433 1147.36 632.01 1147.2 631.629C1147.04 631.24 1146.82 630.905 1146.54 630.626C1146.26 630.347 1145.92 630.131 1145.51 629.979C1145.1 629.826 1144.63 629.75 1144.1 629.75C1143.64 629.75 1143.22 629.809 1142.83 629.928C1142.44 630.046 1142.1 630.22 1141.81 630.448C1141.54 630.677 1141.32 630.952 1141.15 631.273C1140.99 631.595 1140.91 631.959 1140.91 632.365C1140.91 632.797 1141.02 633.174 1141.24 633.495C1141.46 633.808 1141.75 634.083 1142.11 634.32C1142.46 634.557 1142.87 634.765 1143.33 634.942C1143.79 635.112 1144.27 635.268 1144.77 635.412C1145.54 635.641 1146.28 635.924 1146.98 636.263C1147.68 636.593 1148.3 636.995 1148.83 637.469C1149.37 637.934 1149.79 638.476 1150.1 639.094C1150.42 639.712 1150.57 640.418 1150.57 641.214C1150.57 642.035 1150.4 642.758 1150.05 643.385C1149.71 644.011 1149.24 644.536 1148.66 644.959C1148.07 645.382 1147.4 645.704 1146.63 645.924C1145.86 646.135 1145.05 646.241 1144.21 646.241C1143.65 646.241 1143.08 646.186 1142.53 646.076C1141.97 645.966 1141.43 645.801 1140.91 645.581C1140.41 645.361 1139.93 645.09 1139.49 644.769C1139.05 644.439 1138.67 644.062 1138.34 643.639C1138.01 643.207 1137.76 642.729 1137.57 642.204C1137.39 641.671 1137.29 641.087 1137.28 640.452H1140.34C1140.38 641.011 1140.51 641.497 1140.71 641.912C1140.91 642.327 1141.18 642.674 1141.52 642.953C1141.86 643.224 1142.25 643.431 1142.7 643.575C1143.16 643.711 1143.66 643.778 1144.21 643.778C1144.67 643.778 1145.1 643.723 1145.5 643.613C1145.89 643.503 1146.24 643.342 1146.54 643.131C1146.83 642.911 1147.07 642.644 1147.24 642.331C1147.4 642.009 1147.49 641.646 1147.49 641.239ZM1166.6 630.029H1160.92V646H1157.89V630.029H1152.25V627.516H1166.6V630.029ZM1175.32 638.789H1172.22V646H1169.17V627.516H1175.01C1175.96 627.524 1176.83 627.647 1177.63 627.884C1178.43 628.112 1179.13 628.459 1179.71 628.925C1180.29 629.382 1180.75 629.957 1181.07 630.651C1181.39 631.345 1181.55 632.158 1181.55 633.089C1181.55 633.715 1181.47 634.286 1181.3 634.803C1181.14 635.311 1180.91 635.772 1180.61 636.187C1180.32 636.601 1179.96 636.965 1179.54 637.278C1179.13 637.592 1178.67 637.858 1178.17 638.078L1182.08 645.848V646H1178.83L1175.32 638.789ZM1172.22 636.326H1175.03C1175.53 636.326 1176 636.254 1176.42 636.11C1176.85 635.967 1177.21 635.763 1177.51 635.501C1177.83 635.23 1178.07 634.904 1178.24 634.523C1178.41 634.134 1178.49 633.69 1178.49 633.19C1178.49 632.674 1178.41 632.217 1178.25 631.819C1178.09 631.422 1177.86 631.087 1177.55 630.816C1177.26 630.546 1176.89 630.342 1176.46 630.207C1176.03 630.063 1175.55 629.987 1175.01 629.979H1172.22V636.326ZM1184.52 643.55H1196.66V646H1184.52V643.55ZM1185.73 635.298H1195.38V637.697H1185.73V635.298ZM1184.65 627.516H1196.37V629.979H1184.65V627.516ZM1209.32 641.709H1203.54L1202.27 646H1199.12L1205.13 627.516H1207.8L1213.7 646H1210.56L1209.32 641.709ZM1204.31 639.106H1208.55L1206.46 631.857L1204.31 639.106ZM1219.57 627.516L1221.87 635.501L1224.41 627.516H1228.19V646H1225.32V639.652L1225.5 631.553L1222.66 640.414H1221.06L1218.48 631.857L1218.66 639.652V646H1215.79V627.516H1219.57Z" fill="black"/>
</g>
<g id="agenda">
<g id="Group 3">
<path id="agenda_2" d="M1126 487H960L1043 341L1126 487Z" fill="#5C5C5E"/>
<path id="agenda-hover" d="M1131 463H1003L1067 343L1131 463Z" stroke="#FCE96A" stroke-width="4"/>
</g>
<path id="AG&#206;&#158;NDA" d="M1149.01 397.709H1143.23L1141.96 402H1138.81L1144.82 383.516H1147.5L1153.39 402H1150.25L1149.01 397.709ZM1144.01 395.106H1148.25L1146.15 387.857L1144.01 395.106ZM1168.06 399.689C1167.75 400.062 1167.38 400.405 1166.96 400.718C1166.54 401.031 1166.06 401.302 1165.54 401.53C1165.01 401.759 1164.44 401.937 1163.82 402.063C1163.21 402.19 1162.56 402.254 1161.87 402.254C1160.76 402.254 1159.78 402.038 1158.92 401.606C1158.07 401.175 1157.35 400.587 1156.75 399.842C1156.17 399.089 1155.72 398.204 1155.41 397.188C1155.1 396.173 1154.95 395.081 1154.94 393.913V391.628C1154.94 390.46 1155.09 389.368 1155.39 388.353C1155.7 387.337 1156.14 386.452 1156.7 385.699C1157.28 384.946 1157.98 384.354 1158.81 383.922C1159.64 383.482 1160.59 383.262 1161.65 383.262C1162.61 383.262 1163.46 383.393 1164.22 383.655C1164.97 383.918 1165.62 384.299 1166.16 384.798C1166.7 385.289 1167.13 385.89 1167.44 386.601C1167.76 387.312 1167.97 388.107 1168.05 388.987H1165.06C1164.98 388.488 1164.86 388.039 1164.7 387.642C1164.54 387.244 1164.32 386.905 1164.05 386.626C1163.78 386.347 1163.45 386.135 1163.06 385.991C1162.68 385.839 1162.23 385.763 1161.7 385.763C1161.06 385.763 1160.51 385.924 1160.04 386.245C1159.58 386.558 1159.2 386.986 1158.9 387.527C1158.59 388.061 1158.37 388.683 1158.23 389.394C1158.08 390.096 1158.01 390.832 1158 391.603V393.913C1158.01 394.683 1158.08 395.42 1158.23 396.122C1158.38 396.825 1158.61 397.447 1158.92 397.988C1159.25 398.521 1159.66 398.949 1160.16 399.271C1160.65 399.592 1161.26 399.757 1161.96 399.766C1162.25 399.766 1162.54 399.749 1162.85 399.715C1163.15 399.673 1163.44 399.609 1163.71 399.524C1163.99 399.44 1164.24 399.334 1164.47 399.207C1164.7 399.072 1164.89 398.907 1165.03 398.712L1165.06 395.018H1161.72V392.644H1168.04L1168.06 399.689ZM1171.06 399.55H1183.2V402H1171.06V399.55ZM1172.27 391.298H1181.92V393.697H1172.27V391.298ZM1171.19 383.516H1182.91V385.979H1171.19V383.516ZM1198.85 402H1195.78L1189.76 389.279L1189.75 402H1186.66V383.516H1189.75L1195.74 396.198L1195.77 383.516H1198.85V402ZM1202.35 402V383.516H1206.87C1208.14 383.524 1209.28 383.736 1210.29 384.15C1211.3 384.565 1212.16 385.149 1212.87 385.902C1213.58 386.656 1214.12 387.557 1214.5 388.606C1214.88 389.647 1215.08 390.803 1215.09 392.072V393.469C1215.08 394.738 1214.88 395.898 1214.5 396.947C1214.12 397.988 1213.58 398.885 1212.88 399.639C1212.18 400.383 1211.33 400.963 1210.33 401.378C1209.33 401.793 1208.21 402 1206.96 402H1202.35ZM1205.45 385.979V399.55H1206.96C1207.8 399.541 1208.53 399.393 1209.16 399.105C1209.79 398.809 1210.31 398.399 1210.72 397.874C1211.14 397.341 1211.46 396.702 1211.66 395.957C1211.87 395.212 1211.98 394.383 1211.99 393.469V392.047C1211.98 391.158 1211.87 390.346 1211.66 389.609C1211.46 388.873 1211.14 388.238 1210.72 387.705C1210.3 387.163 1209.76 386.744 1209.12 386.448C1208.49 386.144 1207.74 385.987 1206.87 385.979H1205.45ZM1227.08 397.709H1221.31L1220.04 402H1216.89L1222.9 383.516H1225.57L1231.46 402H1228.33L1227.08 397.709ZM1222.08 395.106H1226.32L1224.23 387.857L1222.08 395.106Z" fill="black"/>
</g>
<g id="lobby">
<g id="Group 2">
<path id="lobby_2" d="M877 341L1043 341L960 487L877 341Z" fill="#333334"/>
<path id="lobby-hover" d="M896 324L1024 324L960 444L896 324Z" fill="url(#paint3_linear)"/>
</g>
<path id="L0BBY" d="M928.692 298.512H937.503V301H925.646V282.516H928.692V298.512ZM952.915 293.967C952.915 295.16 952.775 296.214 952.496 297.128C952.225 298.034 951.832 298.795 951.315 299.413C950.799 300.022 950.169 300.484 949.424 300.797C948.679 301.11 947.841 301.267 946.91 301.267C945.988 301.267 945.154 301.11 944.409 300.797C943.664 300.484 943.03 300.022 942.505 299.413C941.989 298.795 941.587 298.034 941.299 297.128C941.02 296.214 940.88 295.16 940.88 293.967V289.549C940.88 288.355 941.02 287.306 941.299 286.4C941.578 285.486 941.976 284.725 942.492 284.115C943.017 283.497 943.647 283.032 944.384 282.719C945.129 282.406 945.962 282.249 946.885 282.249C947.816 282.249 948.654 282.406 949.398 282.719C950.143 283.032 950.774 283.497 951.29 284.115C951.815 284.725 952.217 285.486 952.496 286.4C952.775 287.306 952.915 288.355 952.915 289.549V293.967ZM943.927 292.812L949.843 288.406C949.775 287.145 949.496 286.214 949.005 285.613C948.522 285.004 947.816 284.699 946.885 284.699C945.895 284.699 945.154 285.05 944.663 285.753C944.172 286.455 943.927 287.535 943.927 288.99V292.812ZM949.868 290.793L943.952 295.198C944.104 297.619 945.09 298.829 946.91 298.829C948.882 298.829 949.868 297.386 949.868 294.5V290.793ZM956.571 301V282.516H962.475C963.363 282.524 964.193 282.626 964.963 282.82C965.742 283.015 966.419 283.315 966.994 283.722C967.578 284.128 968.035 284.648 968.365 285.283C968.695 285.91 968.856 286.654 968.848 287.518C968.839 288.432 968.585 289.215 968.086 289.866C967.587 290.509 966.914 291.009 966.067 291.364C966.584 291.508 967.041 291.715 967.438 291.986C967.845 292.249 968.183 292.566 968.454 292.938C968.725 293.311 968.932 293.726 969.076 294.183C969.22 294.631 969.292 295.109 969.292 295.617C969.292 296.497 969.131 297.272 968.81 297.94C968.488 298.609 968.039 299.168 967.464 299.616C966.897 300.065 966.22 300.408 965.433 300.645C964.654 300.873 963.812 300.992 962.906 301H956.571ZM959.631 292.621V298.512H962.957C963.439 298.503 963.88 298.431 964.277 298.296C964.675 298.152 965.018 297.957 965.306 297.712C965.593 297.466 965.818 297.166 965.979 296.811C966.148 296.455 966.232 296.057 966.232 295.617C966.232 295.152 966.16 294.737 966.017 294.373C965.873 294.001 965.665 293.688 965.395 293.434C965.124 293.18 964.794 292.985 964.404 292.85C964.015 292.706 963.579 292.63 963.097 292.621H959.631ZM959.631 290.298H962.551C963.008 290.289 963.431 290.23 963.82 290.12C964.218 290.002 964.561 289.832 964.849 289.612C965.136 289.384 965.365 289.109 965.534 288.787C965.703 288.457 965.788 288.08 965.788 287.657C965.788 287.192 965.708 286.794 965.547 286.464C965.386 286.134 965.158 285.863 964.861 285.651C964.574 285.44 964.231 285.287 963.833 285.194C963.435 285.093 962.999 285.038 962.525 285.029H959.631V290.298ZM972.187 301V282.516H978.09C978.979 282.524 979.808 282.626 980.578 282.82C981.357 283.015 982.034 283.315 982.609 283.722C983.193 284.128 983.65 284.648 983.98 285.283C984.311 285.91 984.471 286.654 984.463 287.518C984.454 288.432 984.201 289.215 983.701 289.866C983.202 290.509 982.529 291.009 981.683 291.364C982.199 291.508 982.656 291.715 983.054 291.986C983.46 292.249 983.799 292.566 984.069 292.938C984.34 293.311 984.548 293.726 984.691 294.183C984.835 294.631 984.907 295.109 984.907 295.617C984.907 296.497 984.746 297.272 984.425 297.94C984.103 298.609 983.655 299.168 983.079 299.616C982.512 300.065 981.835 300.408 981.048 300.645C980.269 300.873 979.427 300.992 978.521 301H972.187ZM975.246 292.621V298.512H978.572C979.055 298.503 979.495 298.431 979.893 298.296C980.29 298.152 980.633 297.957 980.921 297.712C981.209 297.466 981.433 297.166 981.594 296.811C981.763 296.455 981.848 296.057 981.848 295.617C981.848 295.152 981.776 294.737 981.632 294.373C981.488 294.001 981.281 293.688 981.01 293.434C980.739 293.18 980.409 292.985 980.02 292.85C979.63 292.706 979.194 292.63 978.712 292.621H975.246ZM975.246 290.298H978.166C978.623 290.289 979.046 290.23 979.436 290.12C979.833 290.002 980.176 289.832 980.464 289.612C980.752 289.384 980.98 289.109 981.149 288.787C981.319 288.457 981.403 288.08 981.403 287.657C981.403 287.192 981.323 286.794 981.162 286.464C981.001 286.134 980.773 285.863 980.477 285.651C980.189 285.44 979.846 285.287 979.448 285.194C979.05 285.093 978.615 285.038 978.141 285.029H975.246V290.298ZM993.743 291.352L997.59 282.516H1000.99L995.229 294.36L995.203 301H992.245L992.22 294.284L986.494 282.516H989.896L993.743 291.352Z" fill="black"/>
</g>
<g id="main-room">
<g id="Group 1">
<path id="main-room_2" d="M794 487L960 487L877 633.5L794 487Z" fill="#5C5C5E"/>
<path id="main-room-hover" d="M789 509L917 509L853 629L789 509Z" fill="url(#paint4_linear)"/>
</g>
<path id="MA1N R00M" d="M724.767 573.516L727.064 581.501L729.604 573.516H733.387V592H730.518V585.652L730.695 577.553L727.852 586.414H726.252L723.675 577.857L723.853 585.652V592H720.983V573.516H724.767ZM745.739 587.709H739.963L738.693 592H735.545L741.55 573.516H744.229L750.119 592H746.983L745.739 587.709ZM740.737 585.106H744.978L742.883 577.857L740.737 585.106ZM760.682 592H757.622V577.261L752.899 578.987V576.321L760.491 573.516H760.682V592ZM779.966 592H776.894L770.876 579.279L770.863 592H767.778V573.516H770.863L776.855 586.198L776.881 573.516H779.966V592ZM727.356 619.789H724.259V627H721.212V608.516H727.052C728 608.524 728.871 608.647 729.667 608.884C730.471 609.112 731.165 609.459 731.749 609.925C732.333 610.382 732.786 610.957 733.107 611.651C733.429 612.345 733.59 613.158 733.59 614.089C733.59 614.715 733.505 615.286 733.336 615.803C733.175 616.311 732.947 616.772 732.65 617.187C732.354 617.601 731.999 617.965 731.584 618.278C731.169 618.591 730.712 618.858 730.213 619.078L734.123 626.848V627H730.873L727.356 619.789ZM724.259 617.326H727.064C727.572 617.326 728.038 617.254 728.461 617.11C728.884 616.966 729.248 616.763 729.553 616.501C729.866 616.23 730.107 615.904 730.276 615.523C730.446 615.134 730.53 614.69 730.53 614.19C730.53 613.674 730.45 613.217 730.289 612.819C730.128 612.422 729.896 612.087 729.591 611.816C729.295 611.546 728.931 611.342 728.499 611.207C728.067 611.063 727.585 610.987 727.052 610.979H724.259V617.326ZM748.723 619.967C748.723 621.16 748.583 622.214 748.304 623.128C748.033 624.034 747.639 624.795 747.123 625.413C746.607 626.022 745.976 626.484 745.231 626.797C744.487 627.11 743.649 627.267 742.718 627.267C741.795 627.267 740.962 627.11 740.217 626.797C739.472 626.484 738.837 626.022 738.312 625.413C737.796 624.795 737.394 624.034 737.106 623.128C736.827 622.214 736.688 621.16 736.688 619.967V615.549C736.688 614.355 736.827 613.306 737.106 612.4C737.386 611.486 737.784 610.725 738.3 610.115C738.825 609.497 739.455 609.032 740.191 608.719C740.936 608.406 741.77 608.249 742.692 608.249C743.623 608.249 744.461 608.406 745.206 608.719C745.951 609.032 746.581 609.497 747.098 610.115C747.622 610.725 748.024 611.486 748.304 612.4C748.583 613.306 748.723 614.355 748.723 615.549V619.967ZM739.734 618.812L745.65 614.406C745.583 613.145 745.303 612.214 744.812 611.613C744.33 611.004 743.623 610.699 742.692 610.699C741.702 610.699 740.962 611.05 740.471 611.753C739.98 612.455 739.734 613.535 739.734 614.99V618.812ZM745.676 616.793L739.76 621.198C739.912 623.619 740.898 624.829 742.718 624.829C744.69 624.829 745.676 623.386 745.676 620.5V616.793ZM764.338 619.967C764.338 621.16 764.198 622.214 763.919 623.128C763.648 624.034 763.255 624.795 762.738 625.413C762.222 626.022 761.591 626.484 760.847 626.797C760.102 627.11 759.264 627.267 758.333 627.267C757.41 627.267 756.577 627.11 755.832 626.797C755.087 626.484 754.452 626.022 753.928 625.413C753.411 624.795 753.009 624.034 752.722 623.128C752.442 622.214 752.303 621.16 752.303 619.967V615.549C752.303 614.355 752.442 613.306 752.722 612.4C753.001 611.486 753.399 610.725 753.915 610.115C754.44 609.497 755.07 609.032 755.807 608.719C756.551 608.406 757.385 608.249 758.308 608.249C759.239 608.249 760.076 608.406 760.821 608.719C761.566 609.032 762.197 609.497 762.713 610.115C763.238 610.725 763.64 611.486 763.919 612.4C764.198 613.306 764.338 614.355 764.338 615.549V619.967ZM755.35 618.812L761.266 614.406C761.198 613.145 760.919 612.214 760.428 611.613C759.945 611.004 759.239 610.699 758.308 610.699C757.317 610.699 756.577 611.05 756.086 611.753C755.595 612.455 755.35 613.535 755.35 614.99V618.812ZM761.291 616.793L755.375 621.198C755.527 623.619 756.513 624.829 758.333 624.829C760.305 624.829 761.291 623.386 761.291 620.5V616.793ZM771.612 608.516L773.91 616.501L776.449 608.516H780.232V627H777.363V620.652L777.541 612.553L774.697 621.414H773.098L770.521 612.857L770.698 620.652V627H767.829V608.516H771.612Z" fill="black"/>
</g>
<g id="header-right">
<g id="ABOUT">
<path d="M1829.32 66.709H1823.54L1822.27 71H1819.12L1825.13 52.5156H1827.81L1833.7 71H1830.56L1829.32 66.709ZM1824.31 64.1064H1828.55L1826.46 56.8574L1824.31 64.1064ZM1835.96 71V52.5156H1841.86C1842.75 52.5241 1843.58 52.6257 1844.35 52.8203C1845.13 53.015 1845.8 53.3154 1846.38 53.7217C1846.96 54.1279 1847.42 54.6484 1847.75 55.2832C1848.08 55.9095 1848.24 56.6543 1848.23 57.5176C1848.22 58.4316 1847.97 59.2145 1847.47 59.8662C1846.97 60.5094 1846.3 61.0088 1845.45 61.3643C1845.97 61.5081 1846.43 61.7155 1846.82 61.9863C1847.23 62.2487 1847.57 62.5661 1847.84 62.9385C1848.11 63.3109 1848.32 63.7256 1848.46 64.1826C1848.6 64.6312 1848.68 65.1094 1848.68 65.6172C1848.68 66.4974 1848.52 67.2718 1848.19 67.9404C1847.87 68.609 1847.42 69.1676 1846.85 69.6162C1846.28 70.0648 1845.6 70.4076 1844.82 70.6445C1844.04 70.873 1843.2 70.9915 1842.29 71H1835.96ZM1839.02 62.6211V68.5117H1842.34C1842.82 68.5033 1843.26 68.4313 1843.66 68.2959C1844.06 68.152 1844.4 67.9574 1844.69 67.7119C1844.98 67.4665 1845.2 67.166 1845.36 66.8105C1845.53 66.4551 1845.62 66.0573 1845.62 65.6172C1845.62 65.1517 1845.55 64.737 1845.4 64.373C1845.26 64.0007 1845.05 63.6875 1844.78 63.4336C1844.51 63.1797 1844.18 62.985 1843.79 62.8496C1843.4 62.7057 1842.96 62.6296 1842.48 62.6211H1839.02ZM1839.02 60.2979H1841.94C1842.39 60.2894 1842.82 60.2301 1843.21 60.1201C1843.6 60.0016 1843.95 59.8324 1844.23 59.6123C1844.52 59.3838 1844.75 59.1087 1844.92 58.7871C1845.09 58.457 1845.17 58.0804 1845.17 57.6572C1845.17 57.1917 1845.09 56.7939 1844.93 56.4639C1844.77 56.1338 1844.54 55.863 1844.25 55.6514C1843.96 55.4398 1843.62 55.2874 1843.22 55.1943C1842.82 55.0928 1842.38 55.0378 1841.91 55.0293H1839.02V60.2979ZM1864.11 62.9512C1864.11 64.043 1863.97 65.0924 1863.7 66.0996C1863.42 67.0983 1863 67.9827 1862.44 68.7529C1861.89 69.5146 1861.19 70.124 1860.36 70.5811C1859.53 71.0296 1858.55 71.2539 1857.44 71.2539C1856.33 71.2539 1855.36 71.0254 1854.54 70.5684C1853.72 70.1113 1853.04 69.502 1852.49 68.7402C1851.94 67.9701 1851.53 67.0856 1851.25 66.0869C1850.98 65.0882 1850.85 64.043 1850.85 62.9512V60.5898C1850.85 59.862 1850.91 59.151 1851.03 58.457C1851.15 57.763 1851.33 57.1113 1851.57 56.502C1851.82 55.8841 1852.12 55.3171 1852.47 54.8008C1852.84 54.276 1853.26 53.8275 1853.74 53.4551C1854.23 53.0827 1854.78 52.7907 1855.39 52.5791C1856.01 52.3675 1856.69 52.2617 1857.42 52.2617C1858.54 52.2617 1859.51 52.4902 1860.34 52.9473C1861.18 53.4043 1861.88 54.0179 1862.44 54.7881C1863 55.5498 1863.42 56.4342 1863.7 57.4414C1863.97 58.4486 1864.11 59.498 1864.11 60.5898V62.9512ZM1861.05 60.5645C1861.05 59.8704 1860.98 59.1807 1860.86 58.4951C1860.75 57.8096 1860.55 57.2002 1860.27 56.667C1859.99 56.1253 1859.62 55.6895 1859.15 55.3594C1858.69 55.0208 1858.12 54.8516 1857.42 54.8516C1856.74 54.8516 1856.17 55.0208 1855.71 55.3594C1855.26 55.6895 1854.9 56.1253 1854.63 56.667C1854.37 57.2087 1854.18 57.8223 1854.07 58.5078C1853.97 59.1849 1853.92 59.8704 1853.91 60.5645V62.9512C1853.92 63.6452 1853.97 64.335 1854.08 65.0205C1854.19 65.6976 1854.38 66.3112 1854.64 66.8613C1854.91 67.403 1855.27 67.8431 1855.72 68.1816C1856.18 68.5202 1856.75 68.6895 1857.44 68.6895C1858.13 68.6895 1858.71 68.5202 1859.16 68.1816C1859.63 67.8431 1860 67.403 1860.28 66.8613C1860.56 66.3197 1860.75 65.7061 1860.86 65.0205C1860.98 64.335 1861.05 63.6452 1861.05 62.9512V60.5645ZM1879.22 52.5156L1879.25 64.8936C1879.24 65.8415 1879.09 66.709 1878.79 67.4961C1878.49 68.2747 1878.08 68.9434 1877.55 69.502C1877.01 70.0605 1876.37 70.4922 1875.6 70.7969C1874.85 71.1016 1874 71.2539 1873.06 71.2539C1872.15 71.2539 1871.32 71.1016 1870.58 70.7969C1869.83 70.4922 1869.19 70.0648 1868.66 69.5146C1868.13 68.9561 1867.71 68.2874 1867.42 67.5088C1867.12 66.7217 1866.97 65.8499 1866.96 64.8936L1866.98 52.5156H1869.98L1870 64.8936C1870.01 65.4606 1870.09 65.9811 1870.22 66.4551C1870.36 66.929 1870.55 67.3395 1870.8 67.6865C1871.06 68.0251 1871.37 68.2917 1871.74 68.4863C1872.12 68.6725 1872.57 68.7656 1873.06 68.7656C1873.57 68.7656 1874.02 68.6725 1874.41 68.4863C1874.8 68.2917 1875.13 68.0251 1875.39 67.6865C1875.65 67.3395 1875.85 66.929 1875.98 66.4551C1876.12 65.9811 1876.19 65.4606 1876.2 64.8936L1876.23 52.5156H1879.22ZM1895.9 55.0293H1890.23V71H1887.19V55.0293H1881.56V52.5156H1895.9V55.0293Z" fill="black"/>
<path d="M1818.46 73.5391H1896.53V74.8086H1818.46V73.5391Z" fill="black"/>
</g>
<g id="CREDITS">
<path d="M1801.72 106.325C1801.63 107.214 1801.42 108.026 1801.08 108.763C1800.74 109.491 1800.3 110.117 1799.74 110.642C1799.18 111.158 1798.52 111.56 1797.76 111.848C1797 112.127 1796.16 112.267 1795.23 112.267C1794.1 112.267 1793.12 112.051 1792.29 111.619C1791.45 111.179 1790.75 110.587 1790.19 109.842C1789.63 109.097 1789.21 108.225 1788.93 107.227C1788.65 106.228 1788.51 105.161 1788.5 104.027V101.501C1788.51 100.375 1788.66 99.3132 1788.95 98.3145C1789.23 97.3073 1789.66 96.4313 1790.22 95.6865C1790.78 94.9333 1791.49 94.3408 1792.32 93.9092C1793.16 93.4691 1794.13 93.249 1795.24 93.249C1796.22 93.249 1797.08 93.3929 1797.85 93.6807C1798.61 93.9684 1799.26 94.3747 1799.8 94.8994C1800.34 95.4242 1800.77 96.0632 1801.1 96.8164C1801.42 97.5697 1801.62 98.4076 1801.72 99.3301H1798.67C1798.62 98.7884 1798.51 98.2975 1798.35 97.8574C1798.2 97.4089 1797.99 97.028 1797.72 96.7148C1797.45 96.3932 1797.11 96.1478 1796.69 95.9785C1796.28 95.8092 1795.8 95.7246 1795.24 95.7246C1794.56 95.7246 1793.98 95.8812 1793.52 96.1943C1793.05 96.5075 1792.67 96.9307 1792.39 97.4639C1792.1 97.9886 1791.89 98.598 1791.76 99.292C1791.65 99.986 1791.59 100.714 1791.59 101.476V104.027C1791.59 104.823 1791.65 105.572 1791.76 106.274C1791.89 106.968 1792.09 107.578 1792.37 108.103C1792.65 108.627 1793.03 109.042 1793.49 109.347C1793.96 109.651 1794.54 109.804 1795.23 109.804C1796.3 109.804 1797.11 109.503 1797.67 108.902C1798.23 108.293 1798.56 107.434 1798.66 106.325H1801.72ZM1811.05 104.789H1807.95V112H1804.9V93.5156H1810.74C1811.69 93.5241 1812.56 93.6468 1813.36 93.8838C1814.16 94.1123 1814.86 94.4593 1815.44 94.9248C1816.03 95.3818 1816.48 95.9574 1816.8 96.6514C1817.12 97.3454 1817.28 98.1579 1817.28 99.0889C1817.28 99.7152 1817.2 100.286 1817.03 100.803C1816.87 101.311 1816.64 101.772 1816.34 102.187C1816.05 102.601 1815.69 102.965 1815.28 103.278C1814.86 103.591 1814.4 103.858 1813.91 104.078L1817.82 111.848V112H1814.57L1811.05 104.789ZM1807.95 102.326H1810.76C1811.26 102.326 1811.73 102.254 1812.15 102.11C1812.58 101.966 1812.94 101.763 1813.25 101.501C1813.56 101.23 1813.8 100.904 1813.97 100.523C1814.14 100.134 1814.22 99.6898 1814.22 99.1904C1814.22 98.6742 1814.14 98.2171 1813.98 97.8193C1813.82 97.4215 1813.59 97.0872 1813.28 96.8164C1812.99 96.5456 1812.62 96.3424 1812.19 96.207C1811.76 96.0632 1811.28 95.987 1810.74 95.9785H1807.95V102.326ZM1831.3 103.71H1823.69V109.512H1832.59V112H1820.63V93.5156H1832.5V96.0293H1823.69V101.247H1831.3V103.71ZM1835.93 112V93.5156H1840.45C1841.72 93.5241 1842.86 93.7357 1843.87 94.1504C1844.88 94.5651 1845.74 95.1491 1846.44 95.9023C1847.15 96.6556 1847.7 97.557 1848.08 98.6064C1848.46 99.6475 1848.66 100.803 1848.67 102.072V103.469C1848.66 104.738 1848.46 105.898 1848.08 106.947C1847.7 107.988 1847.16 108.885 1846.46 109.639C1845.75 110.383 1844.9 110.963 1843.9 111.378C1842.91 111.793 1841.78 112 1840.54 112H1835.93ZM1839.03 95.9785V109.55H1840.54C1841.38 109.541 1842.11 109.393 1842.74 109.105C1843.36 108.809 1843.88 108.399 1844.3 107.874C1844.72 107.341 1845.03 106.702 1845.24 105.957C1845.45 105.212 1845.56 104.383 1845.57 103.469V102.047C1845.56 101.158 1845.45 100.346 1845.24 99.6094C1845.03 98.873 1844.72 98.2383 1844.3 97.7051C1843.87 97.1634 1843.34 96.7445 1842.7 96.4482C1842.06 96.1436 1841.31 95.987 1840.45 95.9785H1839.03ZM1852.11 93.5156H1863.1V96.042H1859.1V109.486H1863.1V112H1852.11V109.486H1856.02V96.042H1852.11V93.5156ZM1880.4 96.0293H1874.73V112H1871.69V96.0293H1866.06V93.5156H1880.4V96.0293ZM1892.53 107.239C1892.53 106.799 1892.43 106.414 1892.25 106.084C1892.07 105.745 1891.81 105.449 1891.47 105.195C1891.14 104.941 1890.75 104.721 1890.28 104.535C1889.82 104.34 1889.32 104.163 1888.78 104.002C1888.05 103.79 1887.33 103.528 1886.62 103.215C1885.92 102.902 1885.29 102.521 1884.73 102.072C1884.18 101.615 1883.73 101.086 1883.39 100.485C1883.05 99.876 1882.88 99.1735 1882.88 98.3779C1882.88 97.5824 1883.05 96.8714 1883.39 96.2451C1883.73 95.6104 1884.19 95.0729 1884.77 94.6328C1885.35 94.1927 1886.01 93.8542 1886.78 93.6172C1887.54 93.3802 1888.33 93.2617 1889.16 93.2617C1890.05 93.2617 1890.88 93.4014 1891.65 93.6807C1892.43 93.9515 1893.11 94.3366 1893.68 94.8359C1894.27 95.3268 1894.73 95.9193 1895.07 96.6133C1895.4 97.2988 1895.58 98.0605 1895.59 98.8984H1892.54C1892.5 98.4329 1892.4 98.0098 1892.24 97.6289C1892.08 97.2396 1891.86 96.9053 1891.58 96.626C1891.3 96.3467 1890.95 96.1309 1890.55 95.9785C1890.14 95.8262 1889.67 95.75 1889.14 95.75C1888.68 95.75 1888.26 95.8092 1887.87 95.9277C1887.48 96.0462 1887.14 96.2197 1886.85 96.4482C1886.57 96.6768 1886.35 96.9518 1886.19 97.2734C1886.03 97.5951 1885.95 97.959 1885.95 98.3652C1885.95 98.7969 1886.06 99.1735 1886.28 99.4951C1886.5 99.8083 1886.79 100.083 1887.14 100.32C1887.5 100.557 1887.91 100.765 1888.36 100.942C1888.83 101.112 1889.31 101.268 1889.81 101.412C1890.58 101.641 1891.32 101.924 1892.02 102.263C1892.72 102.593 1893.34 102.995 1893.87 103.469C1894.41 103.934 1894.83 104.476 1895.14 105.094C1895.46 105.712 1895.61 106.418 1895.61 107.214C1895.61 108.035 1895.44 108.758 1895.09 109.385C1894.74 110.011 1894.28 110.536 1893.7 110.959C1893.11 111.382 1892.43 111.704 1891.66 111.924C1890.89 112.135 1890.09 112.241 1889.25 112.241C1888.68 112.241 1888.12 112.186 1887.56 112.076C1887 111.966 1886.47 111.801 1885.95 111.581C1885.44 111.361 1884.97 111.09 1884.53 110.769C1884.09 110.438 1883.7 110.062 1883.37 109.639C1883.05 109.207 1882.8 108.729 1882.61 108.204C1882.43 107.671 1882.33 107.087 1882.32 106.452H1885.38C1885.42 107.011 1885.54 107.497 1885.75 107.912C1885.95 108.327 1886.22 108.674 1886.56 108.953C1886.9 109.224 1887.29 109.431 1887.74 109.575C1888.2 109.711 1888.7 109.778 1889.25 109.778C1889.71 109.778 1890.14 109.723 1890.53 109.613C1890.93 109.503 1891.28 109.342 1891.58 109.131C1891.87 108.911 1892.1 108.644 1892.27 108.331C1892.44 108.009 1892.53 107.646 1892.53 107.239Z" fill="black"/>
<path d="M1787.35 114.539H1896.64V115.809H1787.35V114.539Z" fill="black"/>
</g>
</g>
<g id="header-left">
<rect id="Rectangle 1" x="39" y="106" width="379" height="90" fill="#FCE96A"/>
<rect id="Rectangle 2" x="39" y="206" width="283" height="90" fill="#FCE96A"/>
<path id="Solidity Summit" d="M74.7822 163.527C74.7822 162.537 74.6045 161.61 74.249 160.747C73.9189 159.884 73.335 159.084 72.4971 158.348C71.6846 157.586 70.6055 156.9 69.2598 156.291C67.9395 155.656 66.2891 155.072 64.3086 154.539C61.8965 153.879 59.5859 153.054 57.377 152.063C55.1934 151.073 53.2637 149.88 51.5879 148.483C49.9121 147.087 48.5664 145.462 47.5508 143.608C46.5605 141.755 46.0654 139.622 46.0654 137.21C46.0654 134.874 46.5605 132.754 47.5508 130.85C48.541 128.945 49.9121 127.32 51.6641 125.975C53.416 124.629 55.4854 123.601 57.8721 122.89C60.2588 122.153 62.8486 121.785 65.6416 121.785C68.5361 121.785 71.1768 122.204 73.5635 123.042C75.9756 123.88 78.0449 125.061 79.7715 126.584C81.498 128.082 82.8438 129.872 83.8086 131.954C84.7734 134.036 85.2559 136.321 85.2559 138.81H74.8203C74.7695 137.565 74.541 136.423 74.1348 135.382C73.7539 134.341 73.1699 133.452 72.3828 132.716C71.6211 131.954 70.6562 131.37 69.4883 130.964C68.3457 130.532 67 130.316 65.4512 130.316C64.0293 130.316 62.7598 130.494 61.6426 130.85C60.5508 131.18 59.624 131.662 58.8623 132.297C58.1006 132.906 57.5166 133.643 57.1104 134.506C56.7295 135.344 56.5391 136.258 56.5391 137.248C56.5391 138.289 56.793 139.229 57.3008 140.066C57.834 140.904 58.5957 141.666 59.5859 142.352C60.5762 143.012 61.7695 143.621 63.166 144.18C64.5879 144.738 66.1875 145.259 67.9648 145.741C70.5039 146.478 72.8398 147.379 74.9727 148.445C77.1055 149.512 78.9336 150.781 80.457 152.254C82.0059 153.701 83.1992 155.364 84.0371 157.243C84.9004 159.097 85.332 161.166 85.332 163.451C85.332 165.889 84.8369 168.06 83.8467 169.964C82.8818 171.843 81.5361 173.442 79.8096 174.763C78.083 176.058 76.0264 177.048 73.6396 177.733C71.2529 178.394 68.6504 178.724 65.832 178.724C64.0801 178.724 62.3281 178.559 60.5762 178.229C58.8496 177.924 57.1865 177.441 55.5869 176.781C54.0127 176.121 52.54 175.296 51.1689 174.306C49.7979 173.315 48.6045 172.16 47.5889 170.84C46.5986 169.52 45.8115 168.021 45.2275 166.346C44.6689 164.67 44.3896 162.816 44.3896 160.785H54.9014C54.9521 162.461 55.2441 163.896 55.7773 165.089C56.3105 166.282 57.0469 167.26 57.9863 168.021C58.9512 168.783 60.0938 169.342 61.4141 169.697C62.7598 170.053 64.2324 170.23 65.832 170.23C67.2539 170.23 68.5107 170.065 69.6025 169.735C70.7197 169.405 71.6592 168.948 72.4209 168.364C73.1826 167.78 73.7666 167.082 74.1729 166.27C74.5791 165.432 74.7822 164.518 74.7822 163.527ZM91.7686 157.015C91.7686 154.019 92.2002 151.251 93.0635 148.712C93.9268 146.147 95.1836 143.926 96.834 142.047C98.5098 140.168 100.541 138.695 102.928 137.629C105.34 136.562 108.095 136.029 111.192 136.029C114.29 136.029 117.045 136.562 119.457 137.629C121.869 138.695 123.9 140.168 125.551 142.047C127.227 143.926 128.496 146.147 129.359 148.712C130.223 151.251 130.654 154.019 130.654 157.015V157.814C130.654 160.836 130.223 163.629 129.359 166.193C128.496 168.732 127.239 170.941 125.589 172.82C123.938 174.699 121.907 176.172 119.495 177.238C117.083 178.279 114.341 178.8 111.269 178.8C108.171 178.8 105.403 178.279 102.966 177.238C100.554 176.172 98.5098 174.699 96.834 172.82C95.1836 170.941 93.9268 168.732 93.0635 166.193C92.2002 163.629 91.7686 160.836 91.7686 157.814V157.015ZM102.356 157.814C102.356 159.541 102.521 161.166 102.852 162.689C103.182 164.188 103.702 165.508 104.413 166.65C105.124 167.768 106.038 168.656 107.155 169.316C108.298 169.977 109.669 170.307 111.269 170.307C112.817 170.307 114.15 169.977 115.268 169.316C116.385 168.656 117.286 167.768 117.972 166.65C118.683 165.508 119.203 164.188 119.533 162.689C119.863 161.166 120.028 159.541 120.028 157.814V157.015C120.028 155.339 119.863 153.752 119.533 152.254C119.203 150.756 118.683 149.436 117.972 148.293C117.286 147.15 116.385 146.249 115.268 145.589C114.15 144.929 112.792 144.599 111.192 144.599C109.618 144.599 108.272 144.929 107.155 145.589C106.038 146.249 105.124 147.15 104.413 148.293C103.702 149.436 103.182 150.756 102.852 152.254C102.521 153.752 102.356 155.339 102.356 157.015V157.814ZM142.271 119.5H165.312V169.393H177.119V178H142.271V169.393H154.61V128.146H142.271V119.5ZM189.726 136.791H212.158V169.393H223.317V178H189.726V169.393H201.456V145.437H189.726V136.791ZM200.694 126.241C200.694 125.429 200.834 124.68 201.113 123.994C201.418 123.283 201.837 122.687 202.37 122.204C202.903 121.696 203.538 121.303 204.274 121.023C205.036 120.744 205.874 120.604 206.788 120.604C208.667 120.604 210.152 121.138 211.244 122.204C212.361 123.245 212.92 124.591 212.92 126.241C212.92 127.892 212.361 129.25 211.244 130.316C210.152 131.357 208.667 131.878 206.788 131.878C205.874 131.878 205.036 131.738 204.274 131.459C203.538 131.18 202.903 130.799 202.37 130.316C201.837 129.809 201.418 129.212 201.113 128.526C200.834 127.815 200.694 127.054 200.694 126.241ZM232.648 157.091C232.648 153.968 233.004 151.111 233.715 148.521C234.451 145.932 235.518 143.71 236.914 141.856C238.311 140.003 239.999 138.568 241.979 137.553C243.985 136.537 246.271 136.029 248.835 136.029C250.993 136.029 252.885 136.423 254.51 137.21C256.16 137.972 257.62 139.063 258.89 140.485V119.5H269.516V178H259.956L259.423 173.696C258.128 175.296 256.604 176.54 254.853 177.429C253.101 178.317 251.069 178.762 248.759 178.762C246.245 178.762 243.985 178.241 241.979 177.2C239.999 176.134 238.311 174.674 236.914 172.82C235.543 170.967 234.489 168.771 233.753 166.231C233.017 163.667 232.648 160.887 232.648 157.891V157.091ZM243.236 157.891C243.236 159.617 243.376 161.229 243.655 162.728C243.96 164.2 244.442 165.495 245.103 166.612C245.763 167.704 246.613 168.567 247.654 169.202C248.695 169.837 249.965 170.154 251.463 170.154C253.291 170.154 254.802 169.761 255.995 168.974C257.214 168.187 258.179 167.107 258.89 165.736V149.055C258.179 147.658 257.227 146.579 256.033 145.817C254.84 145.03 253.342 144.637 251.539 144.637C250.041 144.637 248.759 144.967 247.692 145.627C246.651 146.262 245.801 147.15 245.141 148.293C244.48 149.41 243.998 150.73 243.693 152.254C243.389 153.752 243.236 155.364 243.236 157.091V157.891ZM283.417 136.791H305.85V169.393H317.009V178H283.417V169.393H295.147V145.437H283.417V136.791ZM294.386 126.241C294.386 125.429 294.525 124.68 294.805 123.994C295.109 123.283 295.528 122.687 296.062 122.204C296.595 121.696 297.229 121.303 297.966 121.023C298.728 120.744 299.565 120.604 300.479 120.604C302.358 120.604 303.844 121.138 304.936 122.204C306.053 123.245 306.611 124.591 306.611 126.241C306.611 127.892 306.053 129.25 304.936 130.316C303.844 131.357 302.358 131.878 300.479 131.878C299.565 131.878 298.728 131.738 297.966 131.459C297.229 131.18 296.595 130.799 296.062 130.316C295.528 129.809 295.109 129.212 294.805 128.526C294.525 127.815 294.386 127.054 294.386 126.241ZM346.868 126.698V136.791H362.255V144.599H346.868V162.309C346.868 163.807 347.033 165.063 347.363 166.079C347.719 167.069 348.214 167.869 348.849 168.479C349.483 169.062 350.245 169.481 351.134 169.735C352.048 169.989 353.063 170.116 354.181 170.116C354.993 170.116 355.818 170.078 356.656 170.002C357.52 169.926 358.332 169.837 359.094 169.735C359.881 169.608 360.604 169.481 361.265 169.354C361.95 169.228 362.534 169.101 363.017 168.974L364.045 176.248C363.309 176.68 362.445 177.061 361.455 177.391C360.465 177.695 359.411 177.949 358.294 178.152C357.177 178.355 356.009 178.508 354.79 178.609C353.597 178.736 352.416 178.8 351.248 178.8C348.988 178.8 346.932 178.508 345.078 177.924C343.25 177.314 341.676 176.388 340.355 175.144C339.061 173.874 338.058 172.274 337.347 170.345C336.636 168.39 336.28 166.054 336.28 163.337V144.599H326.873V136.791H336.28V126.698H346.868ZM391.848 160.709L393.066 165.127L404.035 136.791H415.728L394.818 184.17C394.361 185.211 393.765 186.341 393.028 187.56C392.317 188.778 391.416 189.908 390.324 190.949C389.232 191.99 387.899 192.866 386.325 193.577C384.776 194.288 382.936 194.644 380.803 194.644C380.295 194.644 379.825 194.618 379.394 194.567C378.962 194.542 378.543 194.491 378.137 194.415C377.73 194.364 377.324 194.288 376.918 194.187C376.537 194.11 376.118 194.009 375.661 193.882L376.956 185.808C377.388 185.808 377.934 185.82 378.594 185.846C379.279 185.896 379.825 185.922 380.231 185.922C381.069 185.922 381.806 185.668 382.44 185.16C383.101 184.652 383.659 184.094 384.116 183.484C384.573 182.875 384.941 182.316 385.221 181.809C385.5 181.301 385.69 181.047 385.792 181.047L388.344 176.248L370.9 136.791H382.479L391.848 160.709ZM74.7822 263.527C74.7822 262.537 74.6045 261.61 74.249 260.747C73.9189 259.884 73.335 259.084 72.4971 258.348C71.6846 257.586 70.6055 256.9 69.2598 256.291C67.9395 255.656 66.2891 255.072 64.3086 254.539C61.8965 253.879 59.5859 253.054 57.377 252.063C55.1934 251.073 53.2637 249.88 51.5879 248.483C49.9121 247.087 48.5664 245.462 47.5508 243.608C46.5605 241.755 46.0654 239.622 46.0654 237.21C46.0654 234.874 46.5605 232.754 47.5508 230.85C48.541 228.945 49.9121 227.32 51.6641 225.975C53.416 224.629 55.4854 223.601 57.8721 222.89C60.2588 222.153 62.8486 221.785 65.6416 221.785C68.5361 221.785 71.1768 222.204 73.5635 223.042C75.9756 223.88 78.0449 225.061 79.7715 226.584C81.498 228.082 82.8438 229.872 83.8086 231.954C84.7734 234.036 85.2559 236.321 85.2559 238.81H74.8203C74.7695 237.565 74.541 236.423 74.1348 235.382C73.7539 234.341 73.1699 233.452 72.3828 232.716C71.6211 231.954 70.6562 231.37 69.4883 230.964C68.3457 230.532 67 230.316 65.4512 230.316C64.0293 230.316 62.7598 230.494 61.6426 230.85C60.5508 231.18 59.624 231.662 58.8623 232.297C58.1006 232.906 57.5166 233.643 57.1104 234.506C56.7295 235.344 56.5391 236.258 56.5391 237.248C56.5391 238.289 56.793 239.229 57.3008 240.066C57.834 240.904 58.5957 241.666 59.5859 242.352C60.5762 243.012 61.7695 243.621 63.166 244.18C64.5879 244.738 66.1875 245.259 67.9648 245.741C70.5039 246.478 72.8398 247.379 74.9727 248.445C77.1055 249.512 78.9336 250.781 80.457 252.254C82.0059 253.701 83.1992 255.364 84.0371 257.243C84.9004 259.097 85.332 261.166 85.332 263.451C85.332 265.889 84.8369 268.06 83.8467 269.964C82.8818 271.843 81.5361 273.442 79.8096 274.763C78.083 276.058 76.0264 277.048 73.6396 277.733C71.2529 278.394 68.6504 278.724 65.832 278.724C64.0801 278.724 62.3281 278.559 60.5762 278.229C58.8496 277.924 57.1865 277.441 55.5869 276.781C54.0127 276.121 52.54 275.296 51.1689 274.306C49.7979 273.315 48.6045 272.16 47.5889 270.84C46.5986 269.52 45.8115 268.021 45.2275 266.346C44.6689 264.67 44.3896 262.816 44.3896 260.785H54.9014C54.9521 262.461 55.2441 263.896 55.7773 265.089C56.3105 266.282 57.0469 267.26 57.9863 268.021C58.9512 268.783 60.0938 269.342 61.4141 269.697C62.7598 270.053 64.2324 270.23 65.832 270.23C67.2539 270.23 68.5107 270.065 69.6025 269.735C70.7197 269.405 71.6592 268.948 72.4209 268.364C73.1826 267.78 73.7666 267.082 74.1729 266.27C74.5791 265.432 74.7822 264.518 74.7822 263.527ZM119.495 272.211C118.099 274.268 116.41 275.88 114.43 277.048C112.475 278.216 110.329 278.8 107.993 278.8C105.86 278.8 103.905 278.47 102.128 277.81C100.351 277.149 98.8271 276.108 97.5576 274.687C96.2881 273.239 95.2979 271.411 94.5869 269.202C93.9014 266.968 93.5586 264.289 93.5586 261.166V236.791H104.146V261.242C104.146 262.918 104.261 264.327 104.489 265.47C104.743 266.612 105.137 267.539 105.67 268.25C106.203 268.936 106.901 269.431 107.765 269.735C108.628 270.04 109.682 270.192 110.926 270.192C113.033 270.192 114.747 269.799 116.067 269.012C117.388 268.199 118.391 267.095 119.076 265.698V236.791H129.702V278H120.104L119.495 272.211ZM146.65 236.791L146.955 241.78C147.742 240.003 148.821 238.606 150.192 237.591C151.589 236.55 153.277 236.029 155.258 236.029C158.584 236.029 160.755 237.489 161.771 240.409C162.583 239.038 163.611 237.972 164.855 237.21C166.125 236.423 167.648 236.029 169.426 236.029C170.67 236.029 171.825 236.258 172.892 236.715C173.983 237.172 174.923 237.908 175.71 238.924C176.522 239.914 177.145 241.209 177.576 242.809C178.033 244.383 178.262 246.312 178.262 248.598V278H168.626V248.56C168.626 247.772 168.537 247.125 168.359 246.617C168.207 246.109 167.991 245.716 167.712 245.437C167.433 245.132 167.103 244.929 166.722 244.827C166.366 244.7 165.998 244.637 165.617 244.637C164.881 244.637 164.259 244.814 163.751 245.17C163.243 245.5 162.85 245.957 162.57 246.541V278H153.239V248.521C153.239 247.734 153.163 247.087 153.011 246.579C152.858 246.071 152.643 245.678 152.363 245.398C152.109 245.119 151.805 244.929 151.449 244.827C151.094 244.7 150.713 244.637 150.307 244.637C149.494 244.637 148.834 244.865 148.326 245.322C147.844 245.779 147.463 246.389 147.184 247.15V278H137.548V236.791H146.65ZM193.496 236.791L193.801 241.78C194.588 240.003 195.667 238.606 197.038 237.591C198.435 236.55 200.123 236.029 202.104 236.029C205.43 236.029 207.601 237.489 208.616 240.409C209.429 239.038 210.457 237.972 211.701 237.21C212.971 236.423 214.494 236.029 216.271 236.029C217.516 236.029 218.671 236.258 219.737 236.715C220.829 237.172 221.769 237.908 222.556 238.924C223.368 239.914 223.99 241.209 224.422 242.809C224.879 244.383 225.107 246.312 225.107 248.598V278H215.472V248.56C215.472 247.772 215.383 247.125 215.205 246.617C215.053 246.109 214.837 245.716 214.558 245.437C214.278 245.132 213.948 244.929 213.567 244.827C213.212 244.7 212.844 244.637 212.463 244.637C211.727 244.637 211.104 244.814 210.597 245.17C210.089 245.5 209.695 245.957 209.416 246.541V278H200.085V248.521C200.085 247.734 200.009 247.087 199.856 246.579C199.704 246.071 199.488 245.678 199.209 245.398C198.955 245.119 198.65 244.929 198.295 244.827C197.939 244.7 197.559 244.637 197.152 244.637C196.34 244.637 195.68 244.865 195.172 245.322C194.689 245.779 194.309 246.389 194.029 247.15V278H184.394V236.791H193.496ZM236.571 236.791H259.004V269.393H270.163V278H236.571V269.393H248.302V245.437H236.571V236.791ZM247.54 226.241C247.54 225.429 247.68 224.68 247.959 223.994C248.264 223.283 248.683 222.687 249.216 222.204C249.749 221.696 250.384 221.303 251.12 221.023C251.882 220.744 252.72 220.604 253.634 220.604C255.513 220.604 256.998 221.138 258.09 222.204C259.207 223.245 259.766 224.591 259.766 226.241C259.766 227.892 259.207 229.25 258.09 230.316C256.998 231.357 255.513 231.878 253.634 231.878C252.72 231.878 251.882 231.738 251.12 231.459C250.384 231.18 249.749 230.799 249.216 230.316C248.683 229.809 248.264 229.212 247.959 228.526C247.68 227.815 247.54 227.054 247.54 226.241ZM300.022 226.698V236.791H315.409V244.599H300.022V262.309C300.022 263.807 300.188 265.063 300.518 266.079C300.873 267.069 301.368 267.869 302.003 268.479C302.638 269.062 303.399 269.481 304.288 269.735C305.202 269.989 306.218 270.116 307.335 270.116C308.147 270.116 308.973 270.078 309.811 270.002C310.674 269.926 311.486 269.837 312.248 269.735C313.035 269.608 313.759 269.481 314.419 269.354C315.104 269.228 315.688 269.101 316.171 268.974L317.199 276.248C316.463 276.68 315.6 277.061 314.609 277.391C313.619 277.695 312.565 277.949 311.448 278.152C310.331 278.355 309.163 278.508 307.944 278.609C306.751 278.736 305.57 278.8 304.402 278.8C302.143 278.8 300.086 278.508 298.232 277.924C296.404 277.314 294.83 276.388 293.51 275.144C292.215 273.874 291.212 272.274 290.501 270.345C289.79 268.39 289.435 266.054 289.435 263.337V244.599H280.027V236.791H289.435V226.698H300.022Z" fill="black"/>
<path id="W&#206;&#158;LCOM&#206;&#158; T0 TH&#206;&#158;" d="M51.1387 66.1504L52.5605 53.0938H55.623L53.0801 73H49.9355L47.7617 59.7656L45.6152 73H42.4844L39.9414 53.0938H43.0039L44.4258 66.082L46.4629 53.0938H49.0332L51.1387 66.1504ZM57.9062 70.3613H70.9766V73H57.9062V70.3613ZM59.2051 61.4746H69.5957V64.0586H59.2051V61.4746ZM58.043 53.0938H70.6621V55.7461H58.043V53.0938ZM78.5508 70.3203H88.0391V73H75.2695V53.0938H78.5508V70.3203ZM105.211 66.8887C105.12 67.8457 104.892 68.7207 104.527 69.5137C104.163 70.2975 103.68 70.972 103.078 71.5371C102.477 72.0931 101.766 72.526 100.945 72.8359C100.134 73.1367 99.2272 73.2871 98.2246 73.2871C97.0124 73.2871 95.9551 73.0547 95.0527 72.5898C94.1504 72.1159 93.3984 71.4779 92.7969 70.6758C92.1953 69.8737 91.7441 68.9349 91.4434 67.8594C91.1426 66.7839 90.9876 65.6354 90.9785 64.4141V61.6934C90.9876 60.4811 91.1471 59.3372 91.457 58.2617C91.7669 57.1771 92.2227 56.2337 92.8242 55.4316C93.4349 54.6204 94.1914 53.9824 95.0938 53.5176C95.9961 53.0436 97.0443 52.8066 98.2383 52.8066C99.2865 52.8066 100.221 52.9616 101.041 53.2715C101.861 53.5814 102.563 54.0189 103.146 54.584C103.73 55.1491 104.195 55.8372 104.541 56.6484C104.887 57.4596 105.111 58.362 105.211 59.3555H101.93C101.875 58.7721 101.761 58.2435 101.588 57.7695C101.424 57.2865 101.196 56.8763 100.904 56.5391C100.613 56.1927 100.243 55.9284 99.7969 55.7461C99.3594 55.5638 98.8398 55.4727 98.2383 55.4727C97.5 55.4727 96.8802 55.6413 96.3789 55.9785C95.8776 56.3158 95.472 56.7715 95.1621 57.3457C94.8522 57.9108 94.6289 58.5671 94.4922 59.3145C94.3646 60.0618 94.3008 60.8457 94.3008 61.666V64.4141C94.3008 65.2708 94.3646 66.0775 94.4922 66.834C94.6289 67.5814 94.8477 68.2376 95.1484 68.8027C95.4492 69.3678 95.8503 69.8145 96.3516 70.1426C96.8529 70.4707 97.4772 70.6348 98.2246 70.6348C99.373 70.6348 100.248 70.3112 100.85 69.6641C101.451 69.0078 101.807 68.0827 101.916 66.8887H105.211ZM122.082 64.332C122.082 65.5078 121.932 66.638 121.631 67.7227C121.33 68.7982 120.879 69.7507 120.277 70.5801C119.685 71.4004 118.938 72.0566 118.035 72.5488C117.142 73.0319 116.094 73.2734 114.891 73.2734C113.697 73.2734 112.658 73.0273 111.773 72.5352C110.889 72.043 110.151 71.3867 109.559 70.5664C108.975 69.737 108.533 68.7845 108.232 67.709C107.941 66.6335 107.795 65.5078 107.795 64.332V61.7891C107.795 61.0052 107.859 60.2396 107.986 59.4922C108.123 58.7448 108.319 58.043 108.574 57.3867C108.839 56.7214 109.162 56.1107 109.545 55.5547C109.937 54.9896 110.393 54.5065 110.912 54.1055C111.441 53.7044 112.033 53.39 112.689 53.1621C113.355 52.9342 114.084 52.8203 114.877 52.8203C116.08 52.8203 117.128 53.0664 118.021 53.5586C118.924 54.0508 119.676 54.7116 120.277 55.541C120.879 56.3613 121.33 57.3138 121.631 58.3984C121.932 59.4831 122.082 60.6133 122.082 61.7891V64.332ZM118.787 61.7617C118.778 61.0143 118.71 60.2715 118.582 59.5332C118.454 58.7949 118.24 58.1387 117.939 57.5645C117.639 56.9811 117.238 56.5117 116.736 56.1562C116.244 55.7917 115.624 55.6094 114.877 55.6094C114.139 55.6094 113.523 55.7917 113.031 56.1562C112.548 56.5117 112.161 56.9811 111.869 57.5645C111.587 58.1478 111.386 58.8086 111.268 59.5469C111.158 60.276 111.099 61.0143 111.09 61.7617V64.332C111.099 65.0794 111.163 65.8223 111.281 66.5605C111.4 67.2897 111.6 67.9505 111.883 68.543C112.174 69.1263 112.562 69.6003 113.045 69.9648C113.537 70.3294 114.152 70.5117 114.891 70.5117C115.638 70.5117 116.258 70.3294 116.75 69.9648C117.251 69.6003 117.652 69.1263 117.953 68.543C118.254 67.9596 118.464 67.2988 118.582 66.5605C118.71 65.8223 118.778 65.0794 118.787 64.332V61.7617ZM129.287 53.0938L131.762 61.6934L134.496 53.0938H138.57V73H135.48V66.1641L135.672 57.4414L132.609 66.9844H130.887L128.111 57.7695L128.303 66.1641V73H125.213V53.0938H129.287ZM141.988 70.3613H155.059V73H141.988V70.3613ZM143.287 61.4746H153.678V64.0586H143.287V61.4746ZM142.125 53.0938H154.744V55.7461H142.125V53.0938ZM189.949 55.8008H183.838V73H180.57V55.8008H174.5V53.0938H189.949V55.8008ZM205.535 65.4258C205.535 66.7109 205.385 67.8457 205.084 68.8301C204.792 69.8053 204.368 70.6257 203.812 71.291C203.257 71.9473 202.577 72.444 201.775 72.7812C200.973 73.1185 200.071 73.2871 199.068 73.2871C198.075 73.2871 197.177 73.1185 196.375 72.7812C195.573 72.444 194.889 71.9473 194.324 71.291C193.768 70.6257 193.335 69.8053 193.025 68.8301C192.725 67.8457 192.574 66.7109 192.574 65.4258V60.668C192.574 59.3828 192.725 58.2526 193.025 57.2773C193.326 56.293 193.755 55.4727 194.311 54.8164C194.876 54.151 195.555 53.6497 196.348 53.3125C197.15 52.9753 198.048 52.8066 199.041 52.8066C200.044 52.8066 200.946 52.9753 201.748 53.3125C202.55 53.6497 203.229 54.151 203.785 54.8164C204.35 55.4727 204.783 56.293 205.084 57.2773C205.385 58.2526 205.535 59.3828 205.535 60.668V65.4258ZM195.855 64.1816L202.227 59.4375C202.154 58.0794 201.853 57.0768 201.324 56.4297C200.805 55.7734 200.044 55.4453 199.041 55.4453C197.975 55.4453 197.177 55.8236 196.648 56.5801C196.12 57.3366 195.855 58.4987 195.855 60.0664V64.1816ZM202.254 62.0078L195.883 66.752C196.047 69.3587 197.109 70.6621 199.068 70.6621C201.192 70.6621 202.254 69.1081 202.254 66V62.0078ZM240.398 55.8008H234.287V73H231.02V55.8008H224.949V53.0938H240.398V55.8008ZM256.012 73H252.812V64.1133H246.045V73H242.859V53.0938H246.045V61.4199H252.812V53.0938H256.012V73ZM259.703 70.3613H272.773V73H259.703V70.3613ZM261.002 61.4746H271.393V64.0586H261.002V61.4746ZM259.84 53.0938H272.459V55.7461H259.84V53.0938Z" fill="black"/>
</g>
</g>
<defs>
<linearGradient id="paint0_linear" x1="853" y1="853" x2="853" y2="728.5" gradientUnits="userSpaceOnUse">
<stop stop-color="#333334"/>
<stop offset="1" stop-color="#989898"/>
</linearGradient>
<linearGradient id="paint1_linear" x1="1067" y1="853" x2="1067" y2="728.5" gradientUnits="userSpaceOnUse">
<stop stop-color="#DCDCDC"/>
<stop offset="1" stop-color="#989898"/>
</linearGradient>
<linearGradient id="paint2_linear" x1="1131" y1="689.5" x2="1003.5" y2="690" gradientUnits="userSpaceOnUse">
<stop stop-color="#FCE96A"/>
<stop offset="1" stop-color="#4A4A48"/>
</linearGradient>
<linearGradient id="paint3_linear" x1="1024" y1="324" x2="920.5" y2="371.5" gradientUnits="userSpaceOnUse">
<stop stop-color="#5C5C5E"/>
<stop offset="1" stop-color="#FCE96A"/>
</linearGradient>
<linearGradient id="paint4_linear" x1="853" y1="629" x2="853" y2="504.5" gradientUnits="userSpaceOnUse">
<stop stop-color="#CECED1"/>
<stop offset="1" stop-color="#FCE96A"/>
</linearGradient>
</defs>
</svg>
