<svg width="411" height="731" viewBox="0 0 411 731" fill="none" xmlns="http://www.w3.org/2000/svg">
<g id="MOBILE-solidity.interspace.chat">
<g clip-path="url(#clip0)">
<rect width="411" height="731" fill="#E6E7EC"/>
<g id="footer">
<rect id="background" x="-1" y="687" width="412" height="44" fill="#5C5C5E"/>
<g id="credits">
<rect id="Rectangle 5" x="252" y="704" width="58" height="13" fill="#5C5C5E"/>
<g id="CREDITS">
<path d="M259.81 710.944C259.764 711.423 259.65 711.86 259.468 712.257C259.285 712.649 259.044 712.986 258.743 713.269C258.442 713.547 258.087 713.763 257.677 713.918C257.271 714.068 256.818 714.144 256.316 714.144C255.71 714.144 255.182 714.027 254.73 713.795C254.279 713.558 253.903 713.239 253.603 712.838C253.302 712.437 253.076 711.967 252.926 711.43C252.775 710.892 252.698 710.318 252.693 709.707V708.347C252.698 707.741 252.778 707.169 252.933 706.631C253.088 706.089 253.315 705.617 253.616 705.216C253.922 704.81 254.3 704.491 254.751 704.259C255.202 704.022 255.726 703.903 256.323 703.903C256.847 703.903 257.314 703.981 257.725 704.136C258.135 704.291 258.486 704.509 258.777 704.792C259.069 705.075 259.301 705.419 259.475 705.824C259.648 706.23 259.759 706.681 259.81 707.178H258.169C258.142 706.886 258.085 706.622 257.998 706.385C257.916 706.143 257.802 705.938 257.656 705.77C257.51 705.596 257.326 705.464 257.103 705.373C256.884 705.282 256.624 705.236 256.323 705.236C255.954 705.236 255.644 705.321 255.394 705.489C255.143 705.658 254.94 705.886 254.785 706.173C254.63 706.455 254.519 706.784 254.45 707.157C254.386 707.531 254.354 707.923 254.354 708.333V709.707C254.354 710.135 254.386 710.539 254.45 710.917C254.519 711.291 254.628 711.619 254.778 711.901C254.929 712.184 255.129 712.407 255.38 712.571C255.631 712.735 255.943 712.817 256.316 712.817C256.891 712.817 257.328 712.656 257.629 712.332C257.93 712.004 258.107 711.541 258.162 710.944H259.81ZM264.834 710.117H263.166V714H261.525V704.047H264.67C265.18 704.051 265.65 704.118 266.078 704.245C266.511 704.368 266.885 704.555 267.199 704.806C267.514 705.052 267.757 705.362 267.931 705.735C268.104 706.109 268.19 706.547 268.19 707.048C268.19 707.385 268.145 707.693 268.054 707.971C267.967 708.244 267.844 708.493 267.685 708.716C267.525 708.939 267.334 709.135 267.11 709.304C266.887 709.472 266.641 709.616 266.372 709.734L268.478 713.918V714H266.728L264.834 710.117ZM263.166 708.791H264.677C264.95 708.791 265.201 708.752 265.429 708.675C265.657 708.597 265.853 708.488 266.017 708.347C266.185 708.201 266.315 708.025 266.406 707.82C266.497 707.611 266.543 707.371 266.543 707.103C266.543 706.825 266.5 706.578 266.413 706.364C266.326 706.15 266.201 705.97 266.037 705.824C265.878 705.678 265.682 705.569 265.449 705.496C265.217 705.419 264.957 705.378 264.67 705.373H263.166V708.791ZM275.737 709.536H271.643V712.66H276.435V714H269.995V704.047H276.387V705.4H271.643V708.21H275.737V709.536ZM278.232 714V704.047H280.666C281.35 704.051 281.963 704.165 282.505 704.389C283.052 704.612 283.514 704.926 283.893 705.332C284.275 705.738 284.569 706.223 284.774 706.788C284.979 707.349 285.084 707.971 285.089 708.654V709.406C285.084 710.09 284.979 710.714 284.774 711.279C284.569 711.84 284.278 712.323 283.899 712.729C283.521 713.13 283.063 713.442 282.525 713.665C281.988 713.888 281.384 714 280.714 714H278.232ZM279.9 705.373V712.681H280.714C281.165 712.676 281.559 712.596 281.896 712.441C282.234 712.282 282.514 712.061 282.737 711.778C282.965 711.491 283.134 711.147 283.243 710.746C283.357 710.345 283.416 709.898 283.421 709.406V708.641C283.416 708.162 283.357 707.725 283.243 707.328C283.134 706.932 282.965 706.59 282.737 706.303C282.509 706.011 282.222 705.785 281.876 705.626C281.534 705.462 281.131 705.378 280.666 705.373H279.9ZM286.941 704.047H292.861V705.407H290.708V712.646H292.861V714H286.941V712.646H289.047V705.407H286.941V704.047ZM302.179 705.4H299.123V714H297.489V705.4H294.454V704.047H302.179V705.4ZM308.707 711.437C308.707 711.2 308.657 710.992 308.557 710.814C308.461 710.632 308.322 710.473 308.14 710.336C307.962 710.199 307.748 710.081 307.497 709.98C307.251 709.876 306.982 709.78 306.69 709.693C306.299 709.579 305.911 709.438 305.528 709.27C305.15 709.101 304.811 708.896 304.51 708.654C304.214 708.408 303.972 708.123 303.785 707.8C303.603 707.472 303.512 707.093 303.512 706.665C303.512 706.237 303.603 705.854 303.785 705.517C303.972 705.175 304.22 704.885 304.53 704.648C304.84 704.411 305.2 704.229 305.61 704.102C306.021 703.974 306.449 703.91 306.896 703.91C307.374 703.91 307.821 703.985 308.235 704.136C308.655 704.282 309.019 704.489 309.329 704.758C309.644 705.022 309.892 705.341 310.074 705.715C310.257 706.084 310.35 706.494 310.354 706.945H308.714C308.691 706.695 308.636 706.467 308.55 706.262C308.468 706.052 308.349 705.872 308.194 705.722C308.044 705.571 307.859 705.455 307.641 705.373C307.422 705.291 307.169 705.25 306.882 705.25C306.636 705.25 306.408 705.282 306.198 705.346C305.989 705.41 305.806 705.503 305.651 705.626C305.501 705.749 305.382 705.897 305.296 706.07C305.209 706.243 305.166 706.439 305.166 706.658C305.166 706.891 305.225 707.093 305.344 707.267C305.462 707.435 305.617 707.583 305.809 707.711C306 707.839 306.219 707.95 306.465 708.046C306.715 708.137 306.975 708.221 307.244 708.299C307.659 708.422 308.055 708.575 308.434 708.757C308.812 708.935 309.145 709.151 309.432 709.406C309.719 709.657 309.947 709.949 310.115 710.281C310.284 710.614 310.368 710.994 310.368 711.423C310.368 711.865 310.275 712.255 310.088 712.592C309.901 712.929 309.65 713.212 309.336 713.439C309.021 713.667 308.657 713.84 308.242 713.959C307.827 714.073 307.395 714.13 306.943 714.13C306.638 714.13 306.335 714.1 306.034 714.041C305.733 713.982 305.444 713.893 305.166 713.774C304.893 713.656 304.637 713.51 304.4 713.337C304.163 713.159 303.956 712.956 303.778 712.729C303.605 712.496 303.468 712.239 303.368 711.956C303.268 711.669 303.215 711.354 303.211 711.013H304.858C304.881 711.313 304.947 711.576 305.057 711.799C305.166 712.022 305.312 712.209 305.494 712.359C305.676 712.505 305.888 712.617 306.13 712.694C306.376 712.767 306.647 712.804 306.943 712.804C307.189 712.804 307.42 712.774 307.634 712.715C307.848 712.656 308.035 712.569 308.194 712.455C308.354 712.337 308.479 712.193 308.57 712.024C308.661 711.851 308.707 711.655 308.707 711.437Z" fill="#FCE96A"/>
<path d="M252.071 715.367H310.922V716.051H252.071V715.367Z" fill="#FCE96A"/>
</g>
</g>
<g id="help">
<rect id="Rectangle 4" x="185" y="704" width="35" height="13" fill="#5C5C5E"/>
<g id="HELP">
<path d="M192.648 714H191.049V709.557H187.665V714H186.072V704.047H187.665V708.21H191.049V704.047H192.648V714ZM200.441 709.536H196.347V712.66H201.139V714H194.699V704.047H201.091V705.4H196.347V708.21H200.441V709.536ZM204.816 712.66H209.561V714H203.176V704.047H204.816V712.66ZM213.19 710.186V714H211.55V704.047H214.879C215.376 704.051 215.834 704.127 216.253 704.272C216.677 704.414 217.041 704.619 217.347 704.888C217.652 705.152 217.889 705.476 218.058 705.858C218.231 706.237 218.317 706.665 218.317 707.144C218.317 707.608 218.231 708.028 218.058 708.401C217.889 708.775 217.652 709.094 217.347 709.358C217.041 709.623 216.677 709.826 216.253 709.967C215.834 710.108 215.376 710.181 214.879 710.186H213.19ZM213.19 708.859H214.879C215.157 708.859 215.405 708.818 215.624 708.736C215.843 708.65 216.03 708.531 216.185 708.381C216.34 708.23 216.458 708.05 216.54 707.841C216.622 707.631 216.663 707.403 216.663 707.157C216.663 706.897 216.622 706.658 216.54 706.439C216.458 706.221 216.34 706.034 216.185 705.879C216.03 705.719 215.843 705.596 215.624 705.51C215.405 705.423 215.157 705.378 214.879 705.373H213.19V708.859Z" fill="#FCE96A"/>
<path d="M185.184 715.367H218.81V716.051H185.184V715.367Z" fill="#FCE96A"/>
</g>
</g>
<g id="about">
<rect id="Rectangle 3" x="111" y="704" width="43" height="13" fill="#5C5C5E"/>
<g id="ABOUT">
<path d="M117.324 711.689H114.214L113.53 714H111.835L115.068 704.047H116.511L119.683 714H117.994L117.324 711.689ZM114.631 710.288H116.914L115.786 706.385L114.631 710.288ZM120.899 714V704.047H124.078C124.557 704.051 125.003 704.106 125.418 704.211C125.837 704.316 126.202 704.478 126.512 704.696C126.826 704.915 127.072 705.195 127.25 705.537C127.428 705.874 127.514 706.275 127.51 706.74C127.505 707.232 127.368 707.654 127.1 708.005C126.831 708.351 126.468 708.62 126.013 708.812C126.291 708.889 126.537 709.001 126.751 709.146C126.97 709.288 127.152 709.459 127.298 709.659C127.444 709.86 127.555 710.083 127.633 710.329C127.71 710.571 127.749 710.828 127.749 711.102C127.749 711.576 127.662 711.993 127.489 712.353C127.316 712.713 127.075 713.013 126.765 713.255C126.459 713.496 126.095 713.681 125.671 713.809C125.252 713.932 124.798 713.995 124.311 714H120.899ZM122.547 709.488V712.66H124.338C124.598 712.656 124.835 712.617 125.049 712.544C125.263 712.466 125.448 712.362 125.603 712.229C125.757 712.097 125.878 711.936 125.965 711.744C126.056 711.553 126.102 711.339 126.102 711.102C126.102 710.851 126.063 710.628 125.985 710.432C125.908 710.231 125.796 710.062 125.65 709.926C125.505 709.789 125.327 709.684 125.117 709.611C124.908 709.534 124.673 709.493 124.413 709.488H122.547ZM122.547 708.237H124.119C124.365 708.233 124.593 708.201 124.803 708.142C125.017 708.078 125.201 707.987 125.356 707.868C125.511 707.745 125.634 707.597 125.726 707.424C125.817 707.246 125.862 707.043 125.862 706.815C125.862 706.565 125.819 706.351 125.732 706.173C125.646 705.995 125.523 705.849 125.363 705.735C125.208 705.621 125.024 705.539 124.81 705.489C124.595 705.435 124.361 705.405 124.105 705.4H122.547V708.237ZM136.062 709.666C136.062 710.254 135.986 710.819 135.836 711.361C135.686 711.899 135.46 712.375 135.159 712.79C134.863 713.2 134.489 713.528 134.038 713.774C133.591 714.016 133.067 714.137 132.466 714.137C131.869 714.137 131.349 714.014 130.907 713.768C130.465 713.521 130.096 713.193 129.8 712.783C129.508 712.368 129.287 711.892 129.137 711.354C128.991 710.817 128.918 710.254 128.918 709.666V708.395C128.918 708.003 128.95 707.62 129.014 707.246C129.082 706.872 129.18 706.521 129.308 706.193C129.44 705.861 129.602 705.555 129.793 705.277C129.989 704.995 130.217 704.753 130.477 704.553C130.741 704.352 131.037 704.195 131.365 704.081C131.698 703.967 132.062 703.91 132.459 703.91C133.061 703.91 133.585 704.033 134.031 704.279C134.482 704.525 134.858 704.856 135.159 705.271C135.46 705.681 135.686 706.157 135.836 706.699C135.986 707.242 136.062 707.807 136.062 708.395V709.666ZM134.414 708.381C134.41 708.007 134.375 707.636 134.312 707.267C134.248 706.897 134.141 706.569 133.99 706.282C133.84 705.991 133.639 705.756 133.389 705.578C133.143 705.396 132.833 705.305 132.459 705.305C132.09 705.305 131.782 705.396 131.536 705.578C131.295 705.756 131.101 705.991 130.955 706.282C130.814 706.574 130.714 706.904 130.654 707.273C130.6 707.638 130.57 708.007 130.565 708.381V709.666C130.57 710.04 130.602 710.411 130.661 710.78C130.72 711.145 130.821 711.475 130.962 711.771C131.108 712.063 131.301 712.3 131.543 712.482C131.789 712.665 132.097 712.756 132.466 712.756C132.84 712.756 133.149 712.665 133.396 712.482C133.646 712.3 133.847 712.063 133.997 711.771C134.147 711.48 134.252 711.149 134.312 710.78C134.375 710.411 134.41 710.04 134.414 709.666V708.381ZM144.196 704.047L144.21 710.712C144.205 711.222 144.123 711.689 143.964 712.113C143.804 712.533 143.581 712.893 143.294 713.193C143.007 713.494 142.658 713.727 142.248 713.891C141.842 714.055 141.387 714.137 140.881 714.137C140.389 714.137 139.942 714.055 139.541 713.891C139.14 713.727 138.796 713.496 138.509 713.2C138.222 712.899 137.998 712.539 137.839 712.12C137.679 711.696 137.597 711.227 137.593 710.712L137.606 704.047H139.22L139.233 710.712C139.238 711.017 139.277 711.298 139.35 711.553C139.423 711.808 139.527 712.029 139.664 712.216C139.801 712.398 139.969 712.542 140.17 712.646C140.375 712.747 140.612 712.797 140.881 712.797C141.154 712.797 141.396 712.747 141.605 712.646C141.815 712.542 141.991 712.398 142.132 712.216C142.273 712.029 142.38 711.808 142.453 711.553C142.526 711.298 142.565 711.017 142.569 710.712L142.583 704.047H144.196ZM153.179 705.4H150.123V714H148.489V705.4H145.454V704.047H153.179V705.4Z" fill="#FCE96A"/>
<path d="M111.479 715.367H153.514V716.051H111.479V715.367Z" fill="#FCE96A"/>
</g>
</g>
</g>
<path id="empty" d="M209 355H110L159.5 268L209 355Z" fill="#19191A"/>
<path id="CR&#206;&#158;AT&#206;&#158; BR&#206;&#158;AKOUT R00M" d="M67.0859 552.071C67.0273 552.687 66.8809 553.249 66.6465 553.759C66.4121 554.263 66.1016 554.696 65.7148 555.06C65.3281 555.417 64.8711 555.695 64.3438 555.895C63.8223 556.088 63.2393 556.185 62.5947 556.185C61.8154 556.185 61.1357 556.035 60.5557 555.736C59.9756 555.432 59.4922 555.021 59.1055 554.506C58.7188 553.99 58.4287 553.387 58.2354 552.695C58.042 552.004 57.9424 551.266 57.9365 550.48V548.731C57.9424 547.952 58.0449 547.217 58.2441 546.525C58.4434 545.828 58.7363 545.222 59.123 544.706C59.5156 544.185 60.002 543.774 60.582 543.476C61.1621 543.171 61.8359 543.019 62.6035 543.019C63.2773 543.019 63.8779 543.118 64.4053 543.317C64.9326 543.517 65.3838 543.798 65.7588 544.161C66.1338 544.524 66.4326 544.967 66.6553 545.488C66.8779 546.01 67.0215 546.59 67.0859 547.229H64.9766C64.9414 546.854 64.8682 546.514 64.7568 546.209C64.6514 545.898 64.5049 545.635 64.3174 545.418C64.1299 545.195 63.8926 545.025 63.6055 544.908C63.3242 544.791 62.9902 544.732 62.6035 544.732C62.1289 544.732 61.7305 544.841 61.4082 545.058C61.0859 545.274 60.8252 545.567 60.626 545.937C60.4268 546.3 60.2832 546.722 60.1953 547.202C60.1133 547.683 60.0723 548.187 60.0723 548.714V550.48C60.0723 551.031 60.1133 551.55 60.1953 552.036C60.2832 552.517 60.4238 552.938 60.6172 553.302C60.8105 553.665 61.0684 553.952 61.3906 554.163C61.7129 554.374 62.1143 554.479 62.5947 554.479C63.333 554.479 63.8955 554.271 64.2822 553.855C64.6689 553.434 64.8975 552.839 64.9678 552.071H67.0859ZM73.5459 551.008H71.4014V556H69.292V543.203H73.335C73.9912 543.209 74.5947 543.294 75.1455 543.458C75.7021 543.616 76.1826 543.856 76.5869 544.179C76.9912 544.495 77.3047 544.894 77.5273 545.374C77.75 545.854 77.8613 546.417 77.8613 547.062C77.8613 547.495 77.8027 547.891 77.6855 548.248C77.5742 548.6 77.416 548.919 77.2109 549.206C77.0059 549.493 76.7598 549.745 76.4727 549.962C76.1855 550.179 75.8691 550.363 75.5234 550.516L78.2305 555.895V556H75.9805L73.5459 551.008ZM71.4014 549.303H73.3438C73.6953 549.303 74.0176 549.253 74.3105 549.153C74.6035 549.054 74.8555 548.913 75.0664 548.731C75.2832 548.544 75.4502 548.318 75.5674 548.055C75.6846 547.785 75.7432 547.478 75.7432 547.132C75.7432 546.774 75.6875 546.458 75.5762 546.183C75.4648 545.907 75.3037 545.676 75.0928 545.488C74.8877 545.301 74.6357 545.16 74.3369 545.066C74.0381 544.967 73.7041 544.914 73.335 544.908H71.4014V549.303ZM79.918 554.304H88.3203V556H79.918V554.304ZM80.7529 548.591H87.4326V550.252H80.7529V548.591ZM80.0059 543.203H88.1182V544.908H80.0059V543.203ZM97.083 553.029H93.084L92.2051 556H90.0254L94.1826 543.203H96.0371L100.115 556H97.9443L97.083 553.029ZM93.6201 551.228H96.5557L95.1055 546.209L93.6201 551.228ZM110.75 544.943H106.821V556H104.721V544.943H100.818V543.203H110.75V544.943ZM112.35 554.304H120.752V556H112.35V554.304ZM113.185 548.591H119.864V550.252H113.185V548.591ZM112.438 543.203H120.55V544.908H112.438V543.203ZM36.8164 582V569.203H40.9033C41.5186 569.209 42.0928 569.279 42.626 569.414C43.165 569.549 43.6338 569.757 44.0322 570.038C44.4365 570.319 44.7529 570.68 44.9814 571.119C45.21 571.553 45.3213 572.068 45.3154 572.666C45.3096 573.299 45.1338 573.841 44.7881 574.292C44.4424 574.737 43.9766 575.083 43.3906 575.329C43.748 575.429 44.0645 575.572 44.3398 575.76C44.6211 575.941 44.8555 576.161 45.043 576.419C45.2305 576.677 45.374 576.964 45.4736 577.28C45.5732 577.591 45.623 577.922 45.623 578.273C45.623 578.883 45.5117 579.419 45.2891 579.882C45.0664 580.345 44.7559 580.731 44.3574 581.042C43.9648 581.353 43.4961 581.59 42.9512 581.754C42.4121 581.912 41.8291 581.994 41.2021 582H36.8164ZM38.9346 576.199V580.277H41.2373C41.5713 580.271 41.876 580.222 42.1514 580.128C42.4268 580.028 42.6641 579.894 42.8633 579.724C43.0625 579.554 43.2178 579.346 43.3291 579.1C43.4463 578.854 43.5049 578.578 43.5049 578.273C43.5049 577.951 43.4551 577.664 43.3555 577.412C43.2559 577.154 43.1123 576.938 42.9248 576.762C42.7373 576.586 42.5088 576.451 42.2393 576.357C41.9697 576.258 41.668 576.205 41.334 576.199H38.9346ZM38.9346 574.591H40.9561C41.2725 574.585 41.5654 574.544 41.835 574.468C42.1104 574.386 42.3477 574.269 42.5469 574.116C42.7461 573.958 42.9043 573.768 43.0215 573.545C43.1387 573.316 43.1973 573.056 43.1973 572.763C43.1973 572.44 43.1416 572.165 43.0303 571.937C42.9189 571.708 42.7607 571.521 42.5557 571.374C42.3564 571.228 42.1191 571.122 41.8438 571.058C41.5684 570.987 41.2666 570.949 40.9385 570.943H38.9346V574.591ZM51.9248 577.008H49.7803V582H47.6709V569.203H51.7139C52.3701 569.209 52.9736 569.294 53.5244 569.458C54.0811 569.616 54.5615 569.856 54.9658 570.179C55.3701 570.495 55.6836 570.894 55.9062 571.374C56.1289 571.854 56.2402 572.417 56.2402 573.062C56.2402 573.495 56.1816 573.891 56.0645 574.248C55.9531 574.6 55.7949 574.919 55.5898 575.206C55.3848 575.493 55.1387 575.745 54.8516 575.962C54.5645 576.179 54.248 576.363 53.9023 576.516L56.6094 581.895V582H54.3594L51.9248 577.008ZM49.7803 575.303H51.7227C52.0742 575.303 52.3965 575.253 52.6895 575.153C52.9824 575.054 53.2344 574.913 53.4453 574.731C53.6621 574.544 53.8291 574.318 53.9463 574.055C54.0635 573.785 54.1221 573.478 54.1221 573.132C54.1221 572.774 54.0664 572.458 53.9551 572.183C53.8438 571.907 53.6826 571.676 53.4717 571.488C53.2666 571.301 53.0146 571.16 52.7158 571.066C52.417 570.967 52.083 570.914 51.7139 570.908H49.7803V575.303ZM58.2969 580.304H66.6992V582H58.2969V580.304ZM59.1318 574.591H65.8115V576.252H59.1318V574.591ZM58.3848 569.203H66.4971V570.908H58.3848V569.203ZM75.4619 579.029H71.4629L70.584 582H68.4043L72.5615 569.203H74.416L78.4941 582H76.3232L75.4619 579.029ZM71.999 577.228H74.9346L73.4844 572.209L71.999 577.228ZM83.5566 576.437L82.1855 577.975V582H80.0498V569.203H82.1855V575.197L83.3545 573.677L86.7207 569.203H89.2959L84.9453 574.819L89.5156 582H86.9844L83.5566 576.437ZM99.5527 576.428C99.5527 577.184 99.4561 577.91 99.2627 578.607C99.0693 579.299 98.7793 579.911 98.3926 580.444C98.0117 580.972 97.5312 581.394 96.9512 581.71C96.377 582.021 95.7031 582.176 94.9297 582.176C94.1621 582.176 93.4941 582.018 92.9258 581.701C92.3574 581.385 91.8828 580.963 91.502 580.436C91.127 579.902 90.8428 579.29 90.6494 578.599C90.4619 577.907 90.3682 577.184 90.3682 576.428V574.793C90.3682 574.289 90.4092 573.797 90.4912 573.316C90.5791 572.836 90.7051 572.385 90.8691 571.963C91.0391 571.535 91.2471 571.143 91.4932 570.785C91.7451 570.422 92.0381 570.111 92.3721 569.854C92.7119 569.596 93.0928 569.394 93.5146 569.247C93.9424 569.101 94.4111 569.027 94.9209 569.027C95.6943 569.027 96.3682 569.186 96.9424 569.502C97.5225 569.818 98.0059 570.243 98.3926 570.776C98.7793 571.304 99.0693 571.916 99.2627 572.613C99.4561 573.311 99.5527 574.037 99.5527 574.793V576.428ZM97.4346 574.775C97.4287 574.295 97.3848 573.817 97.3027 573.343C97.2207 572.868 97.083 572.446 96.8896 572.077C96.6963 571.702 96.4385 571.4 96.1162 571.172C95.7998 570.938 95.4014 570.82 94.9209 570.82C94.4463 570.82 94.0508 570.938 93.7344 571.172C93.4238 571.4 93.1748 571.702 92.9873 572.077C92.8057 572.452 92.6768 572.877 92.6006 573.352C92.5303 573.82 92.4922 574.295 92.4863 574.775V576.428C92.4922 576.908 92.5332 577.386 92.6094 577.86C92.6855 578.329 92.8145 578.754 92.9961 579.135C93.1836 579.51 93.4326 579.814 93.7432 580.049C94.0596 580.283 94.4551 580.4 94.9297 580.4C95.4102 580.4 95.8086 580.283 96.125 580.049C96.4473 579.814 96.7051 579.51 96.8984 579.135C97.0918 578.76 97.2266 578.335 97.3027 577.86C97.3848 577.386 97.4287 576.908 97.4346 576.428V574.775ZM110.012 569.203L110.029 577.772C110.023 578.429 109.918 579.029 109.713 579.574C109.508 580.113 109.221 580.576 108.852 580.963C108.482 581.35 108.034 581.648 107.507 581.859C106.985 582.07 106.399 582.176 105.749 582.176C105.116 582.176 104.542 582.07 104.026 581.859C103.511 581.648 103.068 581.353 102.699 580.972C102.33 580.585 102.043 580.122 101.838 579.583C101.633 579.038 101.527 578.435 101.521 577.772L101.539 569.203H103.613L103.631 577.772C103.637 578.165 103.687 578.525 103.78 578.854C103.874 579.182 104.009 579.466 104.185 579.706C104.36 579.94 104.577 580.125 104.835 580.26C105.099 580.389 105.403 580.453 105.749 580.453C106.101 580.453 106.411 580.389 106.681 580.26C106.95 580.125 107.176 579.94 107.357 579.706C107.539 579.466 107.677 579.182 107.771 578.854C107.864 578.525 107.914 578.165 107.92 577.772L107.938 569.203H110.012ZM121.561 570.943H117.632V582H115.531V570.943H111.629V569.203H121.561V570.943ZM84.3564 603.008H82.2119V608H80.1025V595.203H84.1455C84.8018 595.209 85.4053 595.294 85.9561 595.458C86.5127 595.616 86.9932 595.856 87.3975 596.179C87.8018 596.495 88.1152 596.894 88.3379 597.374C88.5605 597.854 88.6719 598.417 88.6719 599.062C88.6719 599.495 88.6133 599.891 88.4961 600.248C88.3848 600.6 88.2266 600.919 88.0215 601.206C87.8164 601.493 87.5703 601.745 87.2832 601.962C86.9961 602.179 86.6797 602.363 86.334 602.516L89.041 607.895V608H86.791L84.3564 603.008ZM82.2119 601.303H84.1543C84.5059 601.303 84.8281 601.253 85.1211 601.153C85.4141 601.054 85.666 600.913 85.877 600.731C86.0938 600.544 86.2607 600.318 86.3779 600.055C86.4951 599.785 86.5537 599.478 86.5537 599.132C86.5537 598.774 86.498 598.458 86.3867 598.183C86.2754 597.907 86.1143 597.676 85.9033 597.488C85.6982 597.301 85.4463 597.16 85.1475 597.066C84.8486 596.967 84.5146 596.914 84.1455 596.908H82.2119V601.303ZM99.1484 603.131C99.1484 603.957 99.0518 604.687 98.8584 605.319C98.6709 605.946 98.3984 606.474 98.041 606.901C97.6836 607.323 97.2471 607.643 96.7314 607.859C96.2158 608.076 95.6357 608.185 94.9912 608.185C94.3525 608.185 93.7754 608.076 93.2598 607.859C92.7441 607.643 92.3047 607.323 91.9414 606.901C91.584 606.474 91.3057 605.946 91.1064 605.319C90.9131 604.687 90.8164 603.957 90.8164 603.131V600.072C90.8164 599.246 90.9131 598.52 91.1064 597.893C91.2998 597.26 91.5752 596.732 91.9326 596.311C92.2959 595.883 92.7324 595.561 93.2422 595.344C93.7578 595.127 94.335 595.019 94.9736 595.019C95.6182 595.019 96.1982 595.127 96.7139 595.344C97.2295 595.561 97.666 595.883 98.0234 596.311C98.3867 596.732 98.665 597.26 98.8584 597.893C99.0518 598.52 99.1484 599.246 99.1484 600.072V603.131ZM92.9258 602.331L97.0215 599.281C96.9746 598.408 96.7812 597.764 96.4414 597.348C96.1074 596.926 95.6182 596.715 94.9736 596.715C94.2881 596.715 93.7754 596.958 93.4355 597.444C93.0957 597.931 92.9258 598.678 92.9258 599.686V602.331ZM97.0391 600.934L92.9434 603.983C93.0488 605.659 93.7314 606.497 94.9912 606.497C96.3564 606.497 97.0391 605.498 97.0391 603.5V600.934ZM109.959 603.131C109.959 603.957 109.862 604.687 109.669 605.319C109.481 605.946 109.209 606.474 108.852 606.901C108.494 607.323 108.058 607.643 107.542 607.859C107.026 608.076 106.446 608.185 105.802 608.185C105.163 608.185 104.586 608.076 104.07 607.859C103.555 607.643 103.115 607.323 102.752 606.901C102.395 606.474 102.116 605.946 101.917 605.319C101.724 604.687 101.627 603.957 101.627 603.131V600.072C101.627 599.246 101.724 598.52 101.917 597.893C102.11 597.26 102.386 596.732 102.743 596.311C103.106 595.883 103.543 595.561 104.053 595.344C104.568 595.127 105.146 595.019 105.784 595.019C106.429 595.019 107.009 595.127 107.524 595.344C108.04 595.561 108.477 595.883 108.834 596.311C109.197 596.732 109.476 597.26 109.669 597.893C109.862 598.52 109.959 599.246 109.959 600.072V603.131ZM103.736 602.331L107.832 599.281C107.785 598.408 107.592 597.764 107.252 597.348C106.918 596.926 106.429 596.715 105.784 596.715C105.099 596.715 104.586 596.958 104.246 597.444C103.906 597.931 103.736 598.678 103.736 599.686V602.331ZM107.85 600.934L103.754 603.983C103.859 605.659 104.542 606.497 105.802 606.497C107.167 606.497 107.85 605.498 107.85 603.5V600.934ZM114.995 595.203L116.586 600.731L118.344 595.203H120.963V608H118.977V603.605L119.1 597.998L117.131 604.133H116.023L114.239 598.209L114.362 603.605V608H112.376V595.203H114.995Z" fill="black"/>
<path id="CHAT" d="M192.328 625.071C192.27 625.687 192.123 626.249 191.889 626.759C191.654 627.263 191.344 627.696 190.957 628.06C190.57 628.417 190.113 628.695 189.586 628.895C189.064 629.088 188.481 629.185 187.837 629.185C187.058 629.185 186.378 629.035 185.798 628.736C185.218 628.432 184.734 628.021 184.348 627.506C183.961 626.99 183.671 626.387 183.478 625.695C183.284 625.004 183.185 624.266 183.179 623.48V621.731C183.185 620.952 183.287 620.217 183.486 619.525C183.686 618.828 183.979 618.222 184.365 617.706C184.758 617.185 185.244 616.774 185.824 616.476C186.404 616.171 187.078 616.019 187.846 616.019C188.52 616.019 189.12 616.118 189.647 616.317C190.175 616.517 190.626 616.798 191.001 617.161C191.376 617.524 191.675 617.967 191.897 618.488C192.12 619.01 192.264 619.59 192.328 620.229H190.219C190.184 619.854 190.11 619.514 189.999 619.209C189.894 618.898 189.747 618.635 189.56 618.418C189.372 618.195 189.135 618.025 188.848 617.908C188.566 617.791 188.232 617.732 187.846 617.732C187.371 617.732 186.973 617.841 186.65 618.058C186.328 618.274 186.067 618.567 185.868 618.937C185.669 619.3 185.525 619.722 185.438 620.202C185.355 620.683 185.314 621.187 185.314 621.714V623.48C185.314 624.031 185.355 624.55 185.438 625.036C185.525 625.517 185.666 625.938 185.859 626.302C186.053 626.665 186.311 626.952 186.633 627.163C186.955 627.374 187.356 627.479 187.837 627.479C188.575 627.479 189.138 627.271 189.524 626.855C189.911 626.434 190.14 625.839 190.21 625.071H192.328ZM202.787 629H200.73V623.287H196.38V629H194.332V616.203H196.38V621.556H200.73V616.203H202.787V629ZM211.515 626.029H207.516L206.637 629H204.457L208.614 616.203H210.469L214.547 629H212.376L211.515 626.029ZM208.052 624.228H210.987L209.537 619.209L208.052 624.228ZM225.182 617.943H221.253V629H219.152V617.943H215.25V616.203H225.182V617.943Z" fill="black"/>
<path id="CLA1M P0AP" d="M322.949 537.071C322.891 537.687 322.744 538.249 322.51 538.759C322.275 539.263 321.965 539.696 321.578 540.06C321.191 540.417 320.734 540.695 320.207 540.895C319.686 541.088 319.103 541.185 318.458 541.185C317.679 541.185 316.999 541.035 316.419 540.736C315.839 540.432 315.355 540.021 314.969 539.506C314.582 538.99 314.292 538.387 314.099 537.695C313.905 537.004 313.806 536.266 313.8 535.48V533.731C313.806 532.952 313.908 532.217 314.107 531.525C314.307 530.828 314.6 530.222 314.986 529.706C315.379 529.185 315.865 528.774 316.445 528.476C317.025 528.171 317.699 528.019 318.467 528.019C319.141 528.019 319.741 528.118 320.269 528.317C320.796 528.517 321.247 528.798 321.622 529.161C321.997 529.524 322.296 529.967 322.519 530.488C322.741 531.01 322.885 531.59 322.949 532.229H320.84C320.805 531.854 320.731 531.514 320.62 531.209C320.515 530.898 320.368 530.635 320.181 530.418C319.993 530.195 319.756 530.025 319.469 529.908C319.188 529.791 318.854 529.732 318.467 529.732C317.992 529.732 317.594 529.841 317.271 530.058C316.949 530.274 316.688 530.567 316.489 530.937C316.29 531.3 316.146 531.722 316.059 532.202C315.977 532.683 315.936 533.187 315.936 533.714V535.48C315.936 536.031 315.977 536.55 316.059 537.036C316.146 537.517 316.287 537.938 316.48 538.302C316.674 538.665 316.932 538.952 317.254 539.163C317.576 539.374 317.978 539.479 318.458 539.479C319.196 539.479 319.759 539.271 320.146 538.855C320.532 538.434 320.761 537.839 320.831 537.071H322.949ZM327.432 539.277H333.531V541H325.322V528.203H327.432V539.277ZM342.136 538.029H338.137L337.258 541H335.078L339.235 528.203H341.09L345.168 541H342.997L342.136 538.029ZM338.673 536.228H341.608L340.158 531.209L338.673 536.228ZM352.48 541H350.362V530.796L347.093 531.991V530.146L352.349 528.203H352.48V541ZM360.048 528.203L361.639 533.731L363.396 528.203H366.016V541H364.029V536.605L364.152 530.998L362.184 537.133H361.076L359.292 531.209L359.415 536.605V541H357.429V528.203H360.048ZM316.577 562.096V567H314.468V554.203H318.748C319.387 554.209 319.976 554.306 320.515 554.493C321.06 554.675 321.528 554.938 321.921 555.284C322.313 555.624 322.618 556.04 322.835 556.532C323.058 557.019 323.169 557.569 323.169 558.185C323.169 558.782 323.058 559.321 322.835 559.802C322.618 560.282 322.313 560.692 321.921 561.032C321.528 561.372 321.06 561.633 320.515 561.814C319.976 561.996 319.387 562.09 318.748 562.096H316.577ZM316.577 560.391H318.748C319.105 560.391 319.425 560.338 319.706 560.232C319.987 560.121 320.228 559.969 320.427 559.775C320.626 559.582 320.778 559.351 320.884 559.081C320.989 558.812 321.042 558.519 321.042 558.202C321.042 557.868 320.989 557.561 320.884 557.279C320.778 556.998 320.626 556.758 320.427 556.559C320.228 556.354 319.987 556.195 319.706 556.084C319.425 555.973 319.105 555.914 318.748 555.908H316.577V560.391ZM333.391 562.131C333.391 562.957 333.294 563.687 333.101 564.319C332.913 564.946 332.641 565.474 332.283 565.901C331.926 566.323 331.489 566.643 330.974 566.859C330.458 567.076 329.878 567.185 329.233 567.185C328.595 567.185 328.018 567.076 327.502 566.859C326.986 566.643 326.547 566.323 326.184 565.901C325.826 565.474 325.548 564.946 325.349 564.319C325.155 563.687 325.059 562.957 325.059 562.131V559.072C325.059 558.246 325.155 557.52 325.349 556.893C325.542 556.26 325.817 555.732 326.175 555.311C326.538 554.883 326.975 554.561 327.484 554.344C328 554.127 328.577 554.019 329.216 554.019C329.86 554.019 330.44 554.127 330.956 554.344C331.472 554.561 331.908 554.883 332.266 555.311C332.629 555.732 332.907 556.26 333.101 556.893C333.294 557.52 333.391 558.246 333.391 559.072V562.131ZM327.168 561.331L331.264 558.281C331.217 557.408 331.023 556.764 330.684 556.348C330.35 555.926 329.86 555.715 329.216 555.715C328.53 555.715 328.018 555.958 327.678 556.444C327.338 556.931 327.168 557.678 327.168 558.686V561.331ZM331.281 559.934L327.186 562.983C327.291 564.659 327.974 565.497 329.233 565.497C330.599 565.497 331.281 564.498 331.281 562.5V559.934ZM342.136 564.029H338.137L337.258 567H335.078L339.235 554.203H341.09L345.168 567H342.997L342.136 564.029ZM338.673 562.228H341.608L340.158 557.209L338.673 562.228ZM349.009 562.096V567H346.899V554.203H351.18C351.818 554.209 352.407 554.306 352.946 554.493C353.491 554.675 353.96 554.938 354.353 555.284C354.745 555.624 355.05 556.04 355.267 556.532C355.489 557.019 355.601 557.569 355.601 558.185C355.601 558.782 355.489 559.321 355.267 559.802C355.05 560.282 354.745 560.692 354.353 561.032C353.96 561.372 353.491 561.633 352.946 561.814C352.407 561.996 351.818 562.09 351.18 562.096H349.009ZM349.009 560.391H351.18C351.537 560.391 351.856 560.338 352.138 560.232C352.419 560.121 352.659 559.969 352.858 559.775C353.058 559.582 353.21 559.351 353.315 559.081C353.421 558.812 353.474 558.519 353.474 558.202C353.474 557.868 353.421 557.561 353.315 557.279C353.21 556.998 353.058 556.758 352.858 556.559C352.659 556.354 352.419 556.195 352.138 556.084C351.856 555.973 351.537 555.914 351.18 555.908H349.009V560.391Z" fill="black"/>
<path id="L1V&#206;&#158; STR&#206;&#158;AM" d="M315.621 424.277H321.721V426H313.512V413.203H315.621V424.277ZM329.859 426H327.741V415.796L324.472 416.991V415.146L329.728 413.203H329.859V426ZM339 422.792L341.663 413.203H343.966L340.011 426H337.998L334.052 413.203H336.354L339 422.792ZM345.592 424.304H353.994V426H345.592V424.304ZM346.427 418.591H353.106V420.252H346.427V418.591ZM345.68 413.203H353.792V414.908H345.68V413.203ZM319.954 448.704C319.954 448.399 319.89 448.133 319.761 447.904C319.638 447.67 319.459 447.465 319.225 447.289C318.996 447.113 318.721 446.961 318.398 446.832C318.082 446.697 317.736 446.574 317.361 446.463C316.857 446.316 316.359 446.135 315.867 445.918C315.381 445.701 314.944 445.438 314.558 445.127C314.177 444.811 313.866 444.444 313.626 444.028C313.392 443.606 313.274 443.12 313.274 442.569C313.274 442.019 313.392 441.526 313.626 441.093C313.866 440.653 314.186 440.281 314.584 439.977C314.982 439.672 315.445 439.438 315.973 439.273C316.5 439.109 317.051 439.027 317.625 439.027C318.24 439.027 318.814 439.124 319.348 439.317C319.887 439.505 320.355 439.771 320.754 440.117C321.158 440.457 321.478 440.867 321.712 441.348C321.946 441.822 322.066 442.35 322.072 442.93H319.963C319.934 442.607 319.863 442.314 319.752 442.051C319.646 441.781 319.494 441.55 319.295 441.356C319.102 441.163 318.864 441.014 318.583 440.908C318.302 440.803 317.977 440.75 317.607 440.75C317.291 440.75 316.998 440.791 316.729 440.873C316.459 440.955 316.225 441.075 316.025 441.233C315.832 441.392 315.68 441.582 315.568 441.805C315.457 442.027 315.401 442.279 315.401 442.561C315.401 442.859 315.478 443.12 315.63 443.343C315.782 443.56 315.981 443.75 316.228 443.914C316.474 444.078 316.755 444.222 317.071 444.345C317.394 444.462 317.728 444.57 318.073 444.67C318.606 444.828 319.116 445.024 319.603 445.259C320.089 445.487 320.517 445.766 320.886 446.094C321.255 446.416 321.548 446.791 321.765 447.219C321.981 447.646 322.09 448.136 322.09 448.687C322.09 449.255 321.97 449.756 321.729 450.189C321.489 450.623 321.167 450.986 320.763 451.279C320.358 451.572 319.89 451.795 319.356 451.947C318.823 452.094 318.267 452.167 317.687 452.167C317.294 452.167 316.904 452.129 316.518 452.053C316.131 451.977 315.759 451.862 315.401 451.71C315.05 451.558 314.722 451.37 314.417 451.147C314.112 450.919 313.846 450.658 313.617 450.365C313.395 450.066 313.219 449.735 313.09 449.372C312.961 449.003 312.894 448.599 312.888 448.159H315.006C315.035 448.546 315.12 448.883 315.261 449.17C315.401 449.457 315.589 449.697 315.823 449.891C316.058 450.078 316.33 450.222 316.641 450.321C316.957 450.415 317.306 450.462 317.687 450.462C318.003 450.462 318.299 450.424 318.574 450.348C318.85 450.271 319.09 450.16 319.295 450.014C319.5 449.861 319.661 449.677 319.778 449.46C319.896 449.237 319.954 448.985 319.954 448.704ZM333.182 440.943H329.253V452H327.152V440.943H323.25V439.203H333.182V440.943ZM339.22 447.008H337.075V452H334.966V439.203H339.009C339.665 439.209 340.269 439.294 340.819 439.458C341.376 439.616 341.856 439.856 342.261 440.179C342.665 440.495 342.979 440.894 343.201 441.374C343.424 441.854 343.535 442.417 343.535 443.062C343.535 443.495 343.477 443.891 343.359 444.248C343.248 444.6 343.09 444.919 342.885 445.206C342.68 445.493 342.434 445.745 342.146 445.962C341.859 446.179 341.543 446.363 341.197 446.516L343.904 451.895V452H341.654L339.22 447.008ZM337.075 445.303H339.018C339.369 445.303 339.691 445.253 339.984 445.153C340.277 445.054 340.529 444.913 340.74 444.731C340.957 444.544 341.124 444.318 341.241 444.055C341.358 443.785 341.417 443.478 341.417 443.132C341.417 442.774 341.361 442.458 341.25 442.183C341.139 441.907 340.978 441.676 340.767 441.488C340.562 441.301 340.31 441.16 340.011 441.066C339.712 440.967 339.378 440.914 339.009 440.908H337.075V445.303ZM345.592 450.304H353.994V452H345.592V450.304ZM346.427 444.591H353.106V446.252H346.427V444.591ZM345.68 439.203H353.792V440.908H345.68V439.203ZM362.757 449.029H358.758L357.879 452H355.699L359.856 439.203H361.711L365.789 452H363.618L362.757 449.029ZM359.294 447.228H362.229L360.779 442.209L359.294 447.228ZM369.858 439.203L371.449 444.731L373.207 439.203H375.826V452H373.84V447.605L373.963 441.998L371.994 448.133H370.887L369.103 442.209L369.226 447.605V452H367.239V439.203H369.858Z" fill="black"/>
<path id="MA1N R00M" d="M81.1846 410.203L82.7754 415.731L84.5332 410.203H87.1523V423H85.166V418.605L85.2891 412.998L83.3203 419.133H82.2129L80.4287 413.209L80.5518 418.605V423H78.5654V410.203H81.1846ZM95.7041 420.029H91.7051L90.8262 423H88.6465L92.8037 410.203H94.6582L98.7363 423H96.5654L95.7041 420.029ZM92.2412 418.228H95.1768L93.7266 413.209L92.2412 418.228ZM106.049 423H103.931V412.796L100.661 413.991V412.146L105.917 410.203H106.049V423ZM119.399 423H117.272L113.106 414.193L113.098 423H110.962V410.203H113.098L117.246 418.983L117.264 410.203H119.399V423ZM82.9775 444.008H80.833V449H78.7236V436.203H82.7666C83.4229 436.209 84.0264 436.294 84.5771 436.458C85.1338 436.616 85.6143 436.856 86.0186 437.179C86.4229 437.495 86.7363 437.894 86.959 438.374C87.1816 438.854 87.293 439.417 87.293 440.062C87.293 440.495 87.2344 440.891 87.1172 441.248C87.0059 441.6 86.8477 441.919 86.6426 442.206C86.4375 442.493 86.1914 442.745 85.9043 442.962C85.6172 443.179 85.3008 443.363 84.9551 443.516L87.6621 448.895V449H85.4121L82.9775 444.008ZM80.833 442.303H82.7754C83.127 442.303 83.4492 442.253 83.7422 442.153C84.0352 442.054 84.2871 441.913 84.498 441.731C84.7148 441.544 84.8818 441.318 84.999 441.055C85.1162 440.785 85.1748 440.478 85.1748 440.132C85.1748 439.774 85.1191 439.458 85.0078 439.183C84.8965 438.907 84.7354 438.676 84.5244 438.488C84.3193 438.301 84.0674 438.16 83.7686 438.066C83.4697 437.967 83.1357 437.914 82.7666 437.908H80.833V442.303ZM97.7695 444.131C97.7695 444.957 97.6729 445.687 97.4795 446.319C97.292 446.946 97.0195 447.474 96.6621 447.901C96.3047 448.323 95.8682 448.643 95.3525 448.859C94.8369 449.076 94.2568 449.185 93.6123 449.185C92.9736 449.185 92.3965 449.076 91.8809 448.859C91.3652 448.643 90.9258 448.323 90.5625 447.901C90.2051 447.474 89.9268 446.946 89.7275 446.319C89.5342 445.687 89.4375 444.957 89.4375 444.131V441.072C89.4375 440.246 89.5342 439.52 89.7275 438.893C89.9209 438.26 90.1963 437.732 90.5537 437.311C90.917 436.883 91.3535 436.561 91.8633 436.344C92.3789 436.127 92.9561 436.019 93.5947 436.019C94.2393 436.019 94.8193 436.127 95.335 436.344C95.8506 436.561 96.2871 436.883 96.6445 437.311C97.0078 437.732 97.2861 438.26 97.4795 438.893C97.6729 439.52 97.7695 440.246 97.7695 441.072V444.131ZM91.5469 443.331L95.6426 440.281C95.5957 439.408 95.4023 438.764 95.0625 438.348C94.7285 437.926 94.2393 437.715 93.5947 437.715C92.9092 437.715 92.3965 437.958 92.0566 438.444C91.7168 438.931 91.5469 439.678 91.5469 440.686V443.331ZM95.6602 441.934L91.5645 444.983C91.6699 446.659 92.3525 447.497 93.6123 447.497C94.9775 447.497 95.6602 446.498 95.6602 444.5V441.934ZM108.58 444.131C108.58 444.957 108.483 445.687 108.29 446.319C108.103 446.946 107.83 447.474 107.473 447.901C107.115 448.323 106.679 448.643 106.163 448.859C105.647 449.076 105.067 449.185 104.423 449.185C103.784 449.185 103.207 449.076 102.691 448.859C102.176 448.643 101.736 448.323 101.373 447.901C101.016 447.474 100.737 446.946 100.538 446.319C100.345 445.687 100.248 444.957 100.248 444.131V441.072C100.248 440.246 100.345 439.52 100.538 438.893C100.731 438.26 101.007 437.732 101.364 437.311C101.728 436.883 102.164 436.561 102.674 436.344C103.189 436.127 103.767 436.019 104.405 436.019C105.05 436.019 105.63 436.127 106.146 436.344C106.661 436.561 107.098 436.883 107.455 437.311C107.818 437.732 108.097 438.26 108.29 438.893C108.483 439.52 108.58 440.246 108.58 441.072V444.131ZM102.357 443.331L106.453 440.281C106.406 439.408 106.213 438.764 105.873 438.348C105.539 437.926 105.05 437.715 104.405 437.715C103.72 437.715 103.207 437.958 102.867 438.444C102.527 438.931 102.357 439.678 102.357 440.686V443.331ZM106.471 441.934L102.375 444.983C102.48 446.659 103.163 447.497 104.423 447.497C105.788 447.497 106.471 446.498 106.471 444.5V441.934ZM113.616 436.203L115.207 441.731L116.965 436.203H119.584V449H117.598V444.605L117.721 438.998L115.752 445.133H114.645L112.86 439.209L112.983 444.605V449H110.997V436.203H113.616Z" fill="black"/>
<path id="L0BBY" d="M188.095 240.277H194.194V242H185.985V229.203H188.095V240.277ZM204.864 237.131C204.864 237.957 204.768 238.687 204.574 239.319C204.387 239.946 204.114 240.474 203.757 240.901C203.399 241.323 202.963 241.643 202.447 241.859C201.932 242.076 201.352 242.185 200.707 242.185C200.068 242.185 199.491 242.076 198.976 241.859C198.46 241.643 198.021 241.323 197.657 240.901C197.3 240.474 197.021 239.946 196.822 239.319C196.629 238.687 196.532 237.957 196.532 237.131V234.072C196.532 233.246 196.629 232.52 196.822 231.893C197.016 231.26 197.291 230.732 197.648 230.311C198.012 229.883 198.448 229.561 198.958 229.344C199.474 229.127 200.051 229.019 200.689 229.019C201.334 229.019 201.914 229.127 202.43 229.344C202.945 229.561 203.382 229.883 203.739 230.311C204.103 230.732 204.381 231.26 204.574 231.893C204.768 232.52 204.864 233.246 204.864 234.072V237.131ZM198.642 236.331L202.737 233.281C202.69 232.408 202.497 231.764 202.157 231.348C201.823 230.926 201.334 230.715 200.689 230.715C200.004 230.715 199.491 230.958 199.151 231.444C198.812 231.931 198.642 232.678 198.642 233.686V236.331ZM202.755 234.934L198.659 237.983C198.765 239.659 199.447 240.497 200.707 240.497C202.072 240.497 202.755 239.498 202.755 237.5V234.934ZM207.396 242V229.203H211.482C212.098 229.209 212.672 229.279 213.205 229.414C213.744 229.549 214.213 229.757 214.611 230.038C215.016 230.319 215.332 230.68 215.561 231.119C215.789 231.553 215.9 232.068 215.895 232.666C215.889 233.299 215.713 233.841 215.367 234.292C215.021 234.737 214.556 235.083 213.97 235.329C214.327 235.429 214.644 235.572 214.919 235.76C215.2 235.941 215.435 236.161 215.622 236.419C215.81 236.677 215.953 236.964 216.053 237.28C216.152 237.591 216.202 237.922 216.202 238.273C216.202 238.883 216.091 239.419 215.868 239.882C215.646 240.345 215.335 240.731 214.937 241.042C214.544 241.353 214.075 241.59 213.53 241.754C212.991 241.912 212.408 241.994 211.781 242H207.396ZM209.514 236.199V240.277H211.816C212.15 240.271 212.455 240.222 212.73 240.128C213.006 240.028 213.243 239.894 213.442 239.724C213.642 239.554 213.797 239.346 213.908 239.1C214.025 238.854 214.084 238.578 214.084 238.273C214.084 237.951 214.034 237.664 213.935 237.412C213.835 237.154 213.691 236.938 213.504 236.762C213.316 236.586 213.088 236.451 212.818 236.357C212.549 236.258 212.247 236.205 211.913 236.199H209.514ZM209.514 234.591H211.535C211.852 234.585 212.145 234.544 212.414 234.468C212.689 234.386 212.927 234.269 213.126 234.116C213.325 233.958 213.483 233.768 213.601 233.545C213.718 233.316 213.776 233.056 213.776 232.763C213.776 232.44 213.721 232.165 213.609 231.937C213.498 231.708 213.34 231.521 213.135 231.374C212.936 231.228 212.698 231.122 212.423 231.058C212.147 230.987 211.846 230.949 211.518 230.943H209.514V234.591ZM218.206 242V229.203H222.293C222.908 229.209 223.482 229.279 224.016 229.414C224.555 229.549 225.023 229.757 225.422 230.038C225.826 230.319 226.143 230.68 226.371 231.119C226.6 231.553 226.711 232.068 226.705 232.666C226.699 233.299 226.523 233.841 226.178 234.292C225.832 234.737 225.366 235.083 224.78 235.329C225.138 235.429 225.454 235.572 225.729 235.76C226.011 235.941 226.245 236.161 226.433 236.419C226.62 236.677 226.764 236.964 226.863 237.28C226.963 237.591 227.013 237.922 227.013 238.273C227.013 238.883 226.901 239.419 226.679 239.882C226.456 240.345 226.146 240.731 225.747 241.042C225.354 241.353 224.886 241.59 224.341 241.754C223.802 241.912 223.219 241.994 222.592 242H218.206ZM220.324 236.199V240.277H222.627C222.961 240.271 223.266 240.222 223.541 240.128C223.816 240.028 224.054 239.894 224.253 239.724C224.452 239.554 224.607 239.346 224.719 239.1C224.836 238.854 224.895 238.578 224.895 238.273C224.895 237.951 224.845 237.664 224.745 237.412C224.646 237.154 224.502 236.938 224.314 236.762C224.127 236.586 223.898 236.451 223.629 236.357C223.359 236.258 223.058 236.205 222.724 236.199H220.324ZM220.324 234.591H222.346C222.662 234.585 222.955 234.544 223.225 234.468C223.5 234.386 223.737 234.269 223.937 234.116C224.136 233.958 224.294 233.768 224.411 233.545C224.528 233.316 224.587 233.056 224.587 232.763C224.587 232.44 224.531 232.165 224.42 231.937C224.309 231.708 224.15 231.521 223.945 231.374C223.746 231.228 223.509 231.122 223.233 231.058C222.958 230.987 222.656 230.949 222.328 230.943H220.324V234.591ZM233.13 235.32L235.793 229.203H238.148L234.158 237.403L234.141 242H232.093L232.075 237.351L228.111 229.203H230.467L233.13 235.32Z" fill="black"/>
<path id="AG&#206;&#158;NDA" d="M310.583 291.029H306.584L305.705 294H303.525L307.683 281.203H309.537L313.615 294H311.444L310.583 291.029ZM307.12 289.228H310.056L308.605 284.209L307.12 289.228ZM323.775 292.4C323.559 292.658 323.304 292.896 323.011 293.112C322.718 293.329 322.39 293.517 322.026 293.675C321.663 293.833 321.268 293.956 320.84 294.044C320.418 294.132 319.967 294.176 319.486 294.176C318.719 294.176 318.039 294.026 317.447 293.728C316.855 293.429 316.354 293.021 315.944 292.506C315.54 291.984 315.229 291.372 315.013 290.669C314.802 289.966 314.693 289.21 314.688 288.401V286.819C314.688 286.011 314.793 285.255 315.004 284.552C315.215 283.849 315.517 283.236 315.909 282.715C316.308 282.193 316.794 281.783 317.368 281.484C317.942 281.18 318.599 281.027 319.337 281.027C319.999 281.027 320.591 281.118 321.112 281.3C321.634 281.481 322.082 281.745 322.457 282.091C322.832 282.431 323.128 282.847 323.345 283.339C323.567 283.831 323.708 284.382 323.767 284.991H321.692C321.64 284.646 321.558 284.335 321.446 284.06C321.335 283.784 321.186 283.55 320.998 283.356C320.811 283.163 320.582 283.017 320.312 282.917C320.049 282.812 319.735 282.759 319.372 282.759C318.927 282.759 318.543 282.87 318.221 283.093C317.904 283.31 317.641 283.605 317.43 283.98C317.219 284.35 317.063 284.78 316.964 285.272C316.864 285.759 316.812 286.269 316.806 286.802V288.401C316.812 288.935 316.864 289.444 316.964 289.931C317.069 290.417 317.23 290.848 317.447 291.223C317.67 291.592 317.954 291.888 318.3 292.11C318.646 292.333 319.062 292.447 319.548 292.453C319.747 292.453 319.952 292.441 320.163 292.418C320.374 292.389 320.573 292.345 320.761 292.286C320.954 292.228 321.13 292.154 321.288 292.066C321.446 291.973 321.575 291.858 321.675 291.724L321.692 289.166H319.381V287.522H323.758L323.775 292.4ZM325.85 292.304H334.252V294H325.85V292.304ZM326.685 286.591H333.364V288.252H326.685V286.591ZM325.938 281.203H334.05V282.908H325.938V281.203ZM345.089 294H342.962L338.796 285.193L338.787 294H336.651V281.203H338.787L342.936 289.983L342.953 281.203H345.089V294ZM347.515 294V281.203H350.644C351.522 281.209 352.311 281.355 353.008 281.643C353.711 281.93 354.306 282.334 354.792 282.855C355.284 283.377 355.662 284.001 355.926 284.728C356.189 285.448 356.324 286.248 356.33 287.127V288.094C356.324 288.973 356.189 289.775 355.926 290.502C355.662 291.223 355.287 291.844 354.801 292.365C354.314 292.881 353.726 293.282 353.034 293.569C352.343 293.856 351.566 294 350.705 294H347.515ZM349.659 282.908V292.304H350.705C351.285 292.298 351.792 292.195 352.226 291.996C352.659 291.791 353.02 291.507 353.307 291.144C353.6 290.774 353.816 290.332 353.957 289.816C354.104 289.301 354.18 288.727 354.186 288.094V287.109C354.18 286.494 354.104 285.932 353.957 285.422C353.816 284.912 353.6 284.473 353.307 284.104C353.014 283.729 352.645 283.438 352.199 283.233C351.76 283.022 351.241 282.914 350.644 282.908H349.659ZM364.636 291.029H360.637L359.758 294H357.578L361.735 281.203H363.59L367.668 294H365.497L364.636 291.029ZM361.173 289.228H364.108L362.658 284.209L361.173 289.228Z" fill="black"/>
<g id="new-room">
<g id="Group 11">
<path id="new-room_2" d="M110.096 487.687L209.394 487.687L159.745 575.321L110.096 487.687Z" fill="#5C5C5E"/>
<path id="new-room-hover" d="M107.104 502.642L183.672 502.642L145.388 574.424L107.104 502.642Z" fill="url(#paint0_linear)"/>
</g>
<rect id="Rectangle 6" x="35" y="543" width="86" height="65" fill="#FF0000"/>
</g>
<g id="chat">
<g id="Group 9">
<path id="chat_2" d="M259.043 575.321L159.745 575.321L209.394 487.687L259.043 575.321Z" fill="#333334"/>
<path id="chat-hover" d="M250.07 588.182H173.503L211.787 516.4L250.07 588.182Z" stroke="#FCE96A" stroke-width="5.07435"/>
</g>
<rect id="Rectangle 7" x="184" y="613" width="42" height="20" fill="#FF0000"/>
</g>
<g id="poap">
<g id="Group 7">
<path id="poap_2" d="M209.394 487.687L308.692 487.687L259.043 575.321L209.394 487.687Z" fill="#19191A"/>
<path id="poap-hover" d="M235.116 502.642L311.684 502.642L273.4 574.424L235.116 502.642Z" fill="url(#paint1_linear)"/>
</g>
<rect id="Rectangle 8" x="313" y="524" width="55" height="47" fill="#FF0000"/>
</g>
<g id="livestream">
<g id="Group 5">
<path id="livestream_2" d="M308.693 487.687L209.394 487.687L259.043 400.352L308.693 487.687Z" fill="#2E2E2F"/>
<path id="livestream-hover" d="M311.683 476.322H235.116L273.399 404.54L311.683 476.322Z" fill="url(#paint2_linear)"/>
</g>
<rect id="Rectangle 9" x="309" y="412" width="68" height="40" fill="#FF0000"/>
</g>
<g id="agenda">
<g id="Group 3">
<path id="agenda_2" d="M308.693 355.489H209.394L259.043 268.154L308.693 355.489Z" fill="#5C5C5E"/>
<path id="agenda-hover" d="M311.683 341.132H235.116L273.399 269.35L311.683 341.132Z" stroke="#FCE96A" stroke-width="5.07435"/>
</g>
<rect id="Rectangle 12" x="300" y="280" width="68" height="14" fill="#FF0000"/>
</g>
<g id="lobby">
<g id="Group 2">
<path id="lobby_2" d="M159.744 268.154L259.043 268.154L209.394 355.489L159.744 268.154Z" fill="#333334"/>
<path id="lobby-hover" d="M171.11 257.985L247.677 257.985L209.394 329.767L171.11 257.985Z" fill="url(#paint3_linear)"/>
</g>
<rect id="Rectangle 11" x="184" y="229" width="55" height="17" fill="#FF0000"/>
</g>
<g id="main-room">
<g id="Group 1">
<path id="main-room_2" d="M110.096 355.489L209.394 355.489L159.745 443.122L110.096 355.489Z" fill="#5C5C5E"/>
<path id="main-room-hover" d="M107.104 368.649L183.672 368.649L145.388 440.431L107.104 368.649Z" fill="url(#paint4_linear)"/>
</g>
<rect id="Rectangle 10" x="78" y="407" width="43" height="42" fill="#FF0000"/>
</g>
<g id="header-left">
<rect id="Rectangle 1" x="20" y="47" width="185" height="44" fill="#FCE96A"/>
<rect id="Rectangle 2" x="20" y="96" width="138" height="44" fill="#FCE96A"/>
<path id="Solidity Summit" d="M37.5918 73.3203C37.5918 72.8633 37.5098 72.4355 37.3457 72.0371C37.1934 71.6387 36.9238 71.2695 36.5371 70.9297C36.1621 70.5781 35.6641 70.2617 35.043 69.9805C34.4336 69.6875 33.6719 69.418 32.7578 69.1719C31.6445 68.8672 30.5781 68.4863 29.5586 68.0293C28.5508 67.5723 27.6602 67.0215 26.8867 66.377C26.1133 65.7324 25.4922 64.9824 25.0234 64.127C24.5664 63.2715 24.3379 62.2871 24.3379 61.1738C24.3379 60.0957 24.5664 59.1172 25.0234 58.2383C25.4805 57.3594 26.1133 56.6094 26.9219 55.9883C27.7305 55.3672 28.6855 54.8926 29.7871 54.5645C30.8887 54.2246 32.084 54.0547 33.373 54.0547C34.709 54.0547 35.9277 54.248 37.0293 54.6348C38.1426 55.0215 39.0977 55.5664 39.8945 56.2695C40.6914 56.9609 41.3125 57.7871 41.7578 58.748C42.2031 59.709 42.4258 60.7637 42.4258 61.9121H37.6094C37.5859 61.3379 37.4805 60.8105 37.293 60.3301C37.1172 59.8496 36.8477 59.4395 36.4844 59.0996C36.1328 58.748 35.6875 58.4785 35.1484 58.291C34.6211 58.0918 34 57.9922 33.2852 57.9922C32.6289 57.9922 32.043 58.0742 31.5273 58.2383C31.0234 58.3906 30.5957 58.6133 30.2441 58.9062C29.8926 59.1875 29.623 59.5273 29.4355 59.9258C29.2598 60.3125 29.1719 60.7344 29.1719 61.1914C29.1719 61.6719 29.2891 62.1055 29.5234 62.4922C29.7695 62.8789 30.1211 63.2305 30.5781 63.5469C31.0352 63.8516 31.5859 64.1328 32.2305 64.3906C32.8867 64.6484 33.625 64.8887 34.4453 65.1113C35.6172 65.4512 36.6953 65.8672 37.6797 66.3594C38.6641 66.8516 39.5078 67.4375 40.2109 68.1172C40.9258 68.7852 41.4766 69.5527 41.8633 70.4199C42.2617 71.2754 42.4609 72.2305 42.4609 73.2852C42.4609 74.4102 42.2324 75.4121 41.7754 76.291C41.3301 77.1582 40.709 77.8965 39.9121 78.5059C39.1152 79.1035 38.166 79.5605 37.0645 79.877C35.9629 80.1816 34.7617 80.334 33.4609 80.334C32.6523 80.334 31.8438 80.2578 31.0352 80.1055C30.2383 79.9648 29.4707 79.7422 28.7324 79.4375C28.0059 79.1328 27.3262 78.752 26.6934 78.2949C26.0605 77.8379 25.5098 77.3047 25.041 76.6953C24.584 76.0859 24.2207 75.3945 23.9512 74.6211C23.6934 73.8477 23.5645 72.9922 23.5645 72.0547H28.416C28.4395 72.8281 28.5742 73.4902 28.8203 74.041C29.0664 74.5918 29.4062 75.043 29.8398 75.3945C30.2852 75.7461 30.8125 76.0039 31.4219 76.168C32.043 76.332 32.7227 76.4141 33.4609 76.4141C34.1172 76.4141 34.6973 76.3379 35.2012 76.1855C35.7168 76.0332 36.1504 75.8223 36.502 75.5527C36.8535 75.2832 37.123 74.9609 37.3105 74.5859C37.498 74.1992 37.5918 73.7773 37.5918 73.3203ZM45.4316 70.3145C45.4316 68.9316 45.6309 67.6543 46.0293 66.4824C46.4277 65.2988 47.0078 64.2734 47.7695 63.4062C48.543 62.5391 49.4805 61.8594 50.582 61.3672C51.6953 60.875 52.9668 60.6289 54.3965 60.6289C55.8262 60.6289 57.0977 60.875 58.2109 61.3672C59.3242 61.8594 60.2617 62.5391 61.0234 63.4062C61.7969 64.2734 62.3828 65.2988 62.7812 66.4824C63.1797 67.6543 63.3789 68.9316 63.3789 70.3145V70.6836C63.3789 72.0781 63.1797 73.3672 62.7812 74.5508C62.3828 75.7227 61.8027 76.7422 61.041 77.6094C60.2793 78.4766 59.3418 79.1562 58.2285 79.6484C57.1152 80.1289 55.8496 80.3691 54.4316 80.3691C53.002 80.3691 51.7246 80.1289 50.5996 79.6484C49.4863 79.1562 48.543 78.4766 47.7695 77.6094C47.0078 76.7422 46.4277 75.7227 46.0293 74.5508C45.6309 73.3672 45.4316 72.0781 45.4316 70.6836V70.3145ZM50.3184 70.6836C50.3184 71.4805 50.3945 72.2305 50.5469 72.9336C50.6992 73.625 50.9395 74.2344 51.2676 74.7617C51.5957 75.2773 52.0176 75.6875 52.5332 75.9922C53.0605 76.2969 53.6934 76.4492 54.4316 76.4492C55.1465 76.4492 55.7617 76.2969 56.2773 75.9922C56.793 75.6875 57.209 75.2773 57.5254 74.7617C57.8535 74.2344 58.0938 73.625 58.2461 72.9336C58.3984 72.2305 58.4746 71.4805 58.4746 70.6836V70.3145C58.4746 69.541 58.3984 68.8086 58.2461 68.1172C58.0938 67.4258 57.8535 66.8164 57.5254 66.2891C57.209 65.7617 56.793 65.3457 56.2773 65.041C55.7617 64.7363 55.1348 64.584 54.3965 64.584C53.6699 64.584 53.0488 64.7363 52.5332 65.041C52.0176 65.3457 51.5957 65.7617 51.2676 66.2891C50.9395 66.8164 50.6992 67.4258 50.5469 68.1172C50.3945 68.8086 50.3184 69.541 50.3184 70.3145V70.6836ZM68.7402 53H79.375V76.0273H84.8242V80H68.7402V76.0273H74.4355V56.9902H68.7402V53ZM90.6426 60.9805H100.996V76.0273H106.146V80H90.6426V76.0273H96.0566V64.9707H90.6426V60.9805ZM95.7051 56.1113C95.7051 55.7363 95.7695 55.3906 95.8984 55.0742C96.0391 54.7461 96.2324 54.4707 96.4785 54.248C96.7246 54.0137 97.0176 53.832 97.3574 53.7031C97.709 53.5742 98.0957 53.5098 98.5176 53.5098C99.3848 53.5098 100.07 53.7559 100.574 54.248C101.09 54.7285 101.348 55.3496 101.348 56.1113C101.348 56.873 101.09 57.5 100.574 57.9922C100.07 58.4727 99.3848 58.7129 98.5176 58.7129C98.0957 58.7129 97.709 58.6484 97.3574 58.5195C97.0176 58.3906 96.7246 58.2148 96.4785 57.9922C96.2324 57.7578 96.0391 57.4824 95.8984 57.166C95.7695 56.8379 95.7051 56.4863 95.7051 56.1113ZM110.453 70.3496C110.453 68.9082 110.617 67.5898 110.945 66.3945C111.285 65.1992 111.777 64.1738 112.422 63.3184C113.066 62.4629 113.846 61.8008 114.76 61.332C115.686 60.8633 116.74 60.6289 117.924 60.6289C118.92 60.6289 119.793 60.8105 120.543 61.1738C121.305 61.5254 121.979 62.0293 122.564 62.6855V53H127.469V80H123.057L122.811 78.0137C122.213 78.752 121.51 79.3262 120.701 79.7363C119.893 80.1465 118.955 80.3516 117.889 80.3516C116.729 80.3516 115.686 80.1113 114.76 79.6309C113.846 79.1387 113.066 78.4648 112.422 77.6094C111.789 76.7539 111.303 75.7402 110.963 74.5684C110.623 73.3848 110.453 72.1016 110.453 70.7188V70.3496ZM115.34 70.7188C115.34 71.5156 115.404 72.2598 115.533 72.9512C115.674 73.6309 115.896 74.2285 116.201 74.7441C116.506 75.248 116.898 75.6465 117.379 75.9395C117.859 76.2324 118.445 76.3789 119.137 76.3789C119.98 76.3789 120.678 76.1973 121.229 75.834C121.791 75.4707 122.236 74.9727 122.564 74.3398V66.6406C122.236 65.9961 121.797 65.498 121.246 65.1465C120.695 64.7832 120.004 64.6016 119.172 64.6016C118.48 64.6016 117.889 64.7539 117.396 65.0586C116.916 65.3516 116.523 65.7617 116.219 66.2891C115.914 66.8047 115.691 67.4141 115.551 68.1172C115.41 68.8086 115.34 69.5527 115.34 70.3496V70.7188ZM133.885 60.9805H144.238V76.0273H149.389V80H133.885V76.0273H139.299V64.9707H133.885V60.9805ZM138.947 56.1113C138.947 55.7363 139.012 55.3906 139.141 55.0742C139.281 54.7461 139.475 54.4707 139.721 54.248C139.967 54.0137 140.26 53.832 140.6 53.7031C140.951 53.5742 141.338 53.5098 141.76 53.5098C142.627 53.5098 143.312 53.7559 143.816 54.248C144.332 54.7285 144.59 55.3496 144.59 56.1113C144.59 56.873 144.332 57.5 143.816 57.9922C143.312 58.4727 142.627 58.7129 141.76 58.7129C141.338 58.7129 140.951 58.6484 140.6 58.5195C140.26 58.3906 139.967 58.2148 139.721 57.9922C139.475 57.7578 139.281 57.4824 139.141 57.166C139.012 56.8379 138.947 56.4863 138.947 56.1113ZM163.17 56.3223V60.9805H170.271V64.584H163.17V72.7578C163.17 73.4492 163.246 74.0293 163.398 74.498C163.562 74.9551 163.791 75.3242 164.084 75.6055C164.377 75.875 164.729 76.0684 165.139 76.1855C165.561 76.3027 166.029 76.3613 166.545 76.3613C166.92 76.3613 167.301 76.3438 167.688 76.3086C168.086 76.2734 168.461 76.2324 168.812 76.1855C169.176 76.127 169.51 76.0684 169.814 76.0098C170.131 75.9512 170.4 75.8926 170.623 75.834L171.098 79.1914C170.758 79.3906 170.359 79.5664 169.902 79.7188C169.445 79.8594 168.959 79.9766 168.443 80.0703C167.928 80.1641 167.389 80.2344 166.826 80.2812C166.275 80.3398 165.73 80.3691 165.191 80.3691C164.148 80.3691 163.199 80.2344 162.344 79.9648C161.5 79.6836 160.773 79.2559 160.164 78.6816C159.566 78.0957 159.104 77.3574 158.775 76.4668C158.447 75.5645 158.283 74.4863 158.283 73.2324V64.584H153.941V60.9805H158.283V56.3223H163.17ZM183.93 72.0195L184.492 74.0586L189.555 60.9805H194.951L185.301 82.8477C185.09 83.3281 184.814 83.8496 184.475 84.4121C184.146 84.9746 183.73 85.4961 183.227 85.9766C182.723 86.457 182.107 86.8613 181.381 87.1895C180.666 87.5176 179.816 87.6816 178.832 87.6816C178.598 87.6816 178.381 87.6699 178.182 87.6465C177.982 87.6348 177.789 87.6113 177.602 87.5762C177.414 87.5527 177.227 87.5176 177.039 87.4707C176.863 87.4355 176.67 87.3887 176.459 87.3301L177.057 83.6035C177.256 83.6035 177.508 83.6094 177.812 83.6211C178.129 83.6445 178.381 83.6562 178.568 83.6562C178.955 83.6562 179.295 83.5391 179.588 83.3047C179.893 83.0703 180.15 82.8125 180.361 82.5312C180.572 82.25 180.742 81.9922 180.871 81.7578C181 81.5234 181.088 81.4062 181.135 81.4062L182.312 79.1914L174.262 60.9805H179.605L183.93 72.0195ZM37.5918 124.32C37.5918 123.863 37.5098 123.436 37.3457 123.037C37.1934 122.639 36.9238 122.27 36.5371 121.93C36.1621 121.578 35.6641 121.262 35.043 120.98C34.4336 120.688 33.6719 120.418 32.7578 120.172C31.6445 119.867 30.5781 119.486 29.5586 119.029C28.5508 118.572 27.6602 118.021 26.8867 117.377C26.1133 116.732 25.4922 115.982 25.0234 115.127C24.5664 114.271 24.3379 113.287 24.3379 112.174C24.3379 111.096 24.5664 110.117 25.0234 109.238C25.4805 108.359 26.1133 107.609 26.9219 106.988C27.7305 106.367 28.6855 105.893 29.7871 105.564C30.8887 105.225 32.084 105.055 33.373 105.055C34.709 105.055 35.9277 105.248 37.0293 105.635C38.1426 106.021 39.0977 106.566 39.8945 107.27C40.6914 107.961 41.3125 108.787 41.7578 109.748C42.2031 110.709 42.4258 111.764 42.4258 112.912H37.6094C37.5859 112.338 37.4805 111.811 37.293 111.33C37.1172 110.85 36.8477 110.439 36.4844 110.1C36.1328 109.748 35.6875 109.479 35.1484 109.291C34.6211 109.092 34 108.992 33.2852 108.992C32.6289 108.992 32.043 109.074 31.5273 109.238C31.0234 109.391 30.5957 109.613 30.2441 109.906C29.8926 110.188 29.623 110.527 29.4355 110.926C29.2598 111.312 29.1719 111.734 29.1719 112.191C29.1719 112.672 29.2891 113.105 29.5234 113.492C29.7695 113.879 30.1211 114.23 30.5781 114.547C31.0352 114.852 31.5859 115.133 32.2305 115.391C32.8867 115.648 33.625 115.889 34.4453 116.111C35.6172 116.451 36.6953 116.867 37.6797 117.359C38.6641 117.852 39.5078 118.438 40.2109 119.117C40.9258 119.785 41.4766 120.553 41.8633 121.42C42.2617 122.275 42.4609 123.23 42.4609 124.285C42.4609 125.41 42.2324 126.412 41.7754 127.291C41.3301 128.158 40.709 128.896 39.9121 129.506C39.1152 130.104 38.166 130.561 37.0645 130.877C35.9629 131.182 34.7617 131.334 33.4609 131.334C32.6523 131.334 31.8438 131.258 31.0352 131.105C30.2383 130.965 29.4707 130.742 28.7324 130.438C28.0059 130.133 27.3262 129.752 26.6934 129.295C26.0605 128.838 25.5098 128.305 25.041 127.695C24.584 127.086 24.2207 126.395 23.9512 125.621C23.6934 124.848 23.5645 123.992 23.5645 123.055H28.416C28.4395 123.828 28.5742 124.49 28.8203 125.041C29.0664 125.592 29.4062 126.043 29.8398 126.395C30.2852 126.746 30.8125 127.004 31.4219 127.168C32.043 127.332 32.7227 127.414 33.4609 127.414C34.1172 127.414 34.6973 127.338 35.2012 127.186C35.7168 127.033 36.1504 126.822 36.502 126.553C36.8535 126.283 37.123 125.961 37.3105 125.586C37.498 125.199 37.5918 124.777 37.5918 124.32ZM58.2285 128.328C57.584 129.277 56.8047 130.021 55.8906 130.561C54.9883 131.1 53.998 131.369 52.9199 131.369C51.9355 131.369 51.0332 131.217 50.2129 130.912C49.3926 130.607 48.6895 130.127 48.1035 129.471C47.5176 128.803 47.0605 127.959 46.7324 126.939C46.416 125.908 46.2578 124.672 46.2578 123.23V111.98H51.1445V123.266C51.1445 124.039 51.1973 124.689 51.3027 125.217C51.4199 125.744 51.6016 126.172 51.8477 126.5C52.0938 126.816 52.416 127.045 52.8145 127.186C53.2129 127.326 53.6992 127.396 54.2734 127.396C55.2461 127.396 56.0371 127.215 56.6465 126.852C57.2559 126.477 57.7188 125.967 58.0352 125.322V111.98H62.9395V131H58.5098L58.2285 128.328ZM70.7617 111.98L70.9023 114.283C71.2656 113.463 71.7637 112.818 72.3965 112.35C73.041 111.869 73.8203 111.629 74.7344 111.629C76.2695 111.629 77.2715 112.303 77.7402 113.65C78.1152 113.018 78.5898 112.525 79.1641 112.174C79.75 111.811 80.4531 111.629 81.2734 111.629C81.8477 111.629 82.3809 111.734 82.873 111.945C83.377 112.156 83.8105 112.496 84.1738 112.965C84.5488 113.422 84.8359 114.02 85.0352 114.758C85.2461 115.484 85.3516 116.375 85.3516 117.43V131H80.9043V117.412C80.9043 117.049 80.8633 116.75 80.7812 116.516C80.7109 116.281 80.6113 116.1 80.4824 115.971C80.3535 115.83 80.2012 115.736 80.0254 115.689C79.8613 115.631 79.6914 115.602 79.5156 115.602C79.1758 115.602 78.8887 115.684 78.6543 115.848C78.4199 116 78.2383 116.211 78.1094 116.48V131H73.8027V117.395C73.8027 117.031 73.7676 116.732 73.6973 116.498C73.627 116.264 73.5273 116.082 73.3984 115.953C73.2812 115.824 73.1406 115.736 72.9766 115.689C72.8125 115.631 72.6367 115.602 72.4492 115.602C72.0742 115.602 71.7695 115.707 71.5352 115.918C71.3125 116.129 71.1367 116.41 71.0078 116.762V131H66.5605V111.98H70.7617ZM92.3828 111.98L92.5234 114.283C92.8867 113.463 93.3848 112.818 94.0176 112.35C94.6621 111.869 95.4414 111.629 96.3555 111.629C97.8906 111.629 98.8926 112.303 99.3613 113.65C99.7363 113.018 100.211 112.525 100.785 112.174C101.371 111.811 102.074 111.629 102.895 111.629C103.469 111.629 104.002 111.734 104.494 111.945C104.998 112.156 105.432 112.496 105.795 112.965C106.17 113.422 106.457 114.02 106.656 114.758C106.867 115.484 106.973 116.375 106.973 117.43V131H102.525V117.412C102.525 117.049 102.484 116.75 102.402 116.516C102.332 116.281 102.232 116.1 102.104 115.971C101.975 115.83 101.822 115.736 101.646 115.689C101.482 115.631 101.312 115.602 101.137 115.602C100.797 115.602 100.51 115.684 100.275 115.848C100.041 116 99.8594 116.211 99.7305 116.48V131H95.4238V117.395C95.4238 117.031 95.3887 116.732 95.3184 116.498C95.248 116.264 95.1484 116.082 95.0195 115.953C94.9023 115.824 94.7617 115.736 94.5977 115.689C94.4336 115.631 94.2578 115.602 94.0703 115.602C93.6953 115.602 93.3906 115.707 93.1562 115.918C92.9336 116.129 92.7578 116.41 92.6289 116.762V131H88.1816V111.98H92.3828ZM112.264 111.98H122.617V127.027H127.768V131H112.264V127.027H117.678V115.971H112.264V111.98ZM117.326 107.111C117.326 106.736 117.391 106.391 117.52 106.074C117.66 105.746 117.854 105.471 118.1 105.248C118.346 105.014 118.639 104.832 118.979 104.703C119.33 104.574 119.717 104.51 120.139 104.51C121.006 104.51 121.691 104.756 122.195 105.248C122.711 105.729 122.969 106.35 122.969 107.111C122.969 107.873 122.711 108.5 122.195 108.992C121.691 109.473 121.006 109.713 120.139 109.713C119.717 109.713 119.33 109.648 118.979 109.52C118.639 109.391 118.346 109.215 118.1 108.992C117.854 108.758 117.66 108.482 117.52 108.166C117.391 107.838 117.326 107.486 117.326 107.111ZM141.549 107.322V111.98H148.65V115.584H141.549V123.758C141.549 124.449 141.625 125.029 141.777 125.498C141.941 125.955 142.17 126.324 142.463 126.605C142.756 126.875 143.107 127.068 143.518 127.186C143.939 127.303 144.408 127.361 144.924 127.361C145.299 127.361 145.68 127.344 146.066 127.309C146.465 127.273 146.84 127.232 147.191 127.186C147.555 127.127 147.889 127.068 148.193 127.01C148.51 126.951 148.779 126.893 149.002 126.834L149.477 130.191C149.137 130.391 148.738 130.566 148.281 130.719C147.824 130.859 147.338 130.977 146.822 131.07C146.307 131.164 145.768 131.234 145.205 131.281C144.654 131.34 144.109 131.369 143.57 131.369C142.527 131.369 141.578 131.234 140.723 130.965C139.879 130.684 139.152 130.256 138.543 129.682C137.945 129.096 137.482 128.357 137.154 127.467C136.826 126.564 136.662 125.486 136.662 124.232V115.584H132.32V111.98H136.662V107.322H141.549Z" fill="black"/>
<path id="W&#206;&#158;LCOM&#206;&#158; T0" d="M29.6201 32.5967L30.5342 24.2031H32.5029L30.8682 37H28.8467L27.4492 28.4922L26.0693 37H24.0566L22.4219 24.2031H24.3906L25.3047 32.5527L26.6143 24.2031H28.2666L29.6201 32.5967ZM33.9707 35.3037H42.373V37H33.9707V35.3037ZM34.8057 29.5908H41.4854V31.252H34.8057V29.5908ZM34.0586 24.2031H42.1709V25.9082H34.0586V24.2031ZM47.2422 35.2773H53.3418V37H45.1328V24.2031H47.2422V35.2773ZM64.3809 33.0713C64.3223 33.6865 64.1758 34.249 63.9414 34.7588C63.707 35.2627 63.3965 35.6963 63.0098 36.0596C62.623 36.417 62.166 36.6953 61.6387 36.8945C61.1172 37.0879 60.5342 37.1846 59.8896 37.1846C59.1104 37.1846 58.4307 37.0352 57.8506 36.7363C57.2705 36.4316 56.7871 36.0215 56.4004 35.5059C56.0137 34.9902 55.7236 34.3867 55.5303 33.6953C55.3369 33.0039 55.2373 32.2656 55.2314 31.4805V29.7314C55.2373 28.9521 55.3398 28.2168 55.5391 27.5254C55.7383 26.8281 56.0312 26.2217 56.418 25.7061C56.8105 25.1846 57.2969 24.7744 57.877 24.4756C58.457 24.1709 59.1309 24.0186 59.8984 24.0186C60.5723 24.0186 61.1729 24.1182 61.7002 24.3174C62.2275 24.5166 62.6787 24.7979 63.0537 25.1611C63.4287 25.5244 63.7275 25.9668 63.9502 26.4883C64.1729 27.0098 64.3164 27.5898 64.3809 28.2285H62.2715C62.2363 27.8535 62.1631 27.5137 62.0518 27.209C61.9463 26.8984 61.7998 26.6348 61.6123 26.418C61.4248 26.1953 61.1875 26.0254 60.9004 25.9082C60.6191 25.791 60.2852 25.7324 59.8984 25.7324C59.4238 25.7324 59.0254 25.8408 58.7031 26.0576C58.3809 26.2744 58.1201 26.5674 57.9209 26.9365C57.7217 27.2998 57.5781 27.7217 57.4902 28.2021C57.4082 28.6826 57.3672 29.1865 57.3672 29.7139V31.4805C57.3672 32.0312 57.4082 32.5498 57.4902 33.0361C57.5781 33.5166 57.7188 33.9385 57.9121 34.3018C58.1055 34.665 58.3633 34.9521 58.6855 35.1631C59.0078 35.374 59.4092 35.4795 59.8896 35.4795C60.6279 35.4795 61.1904 35.2715 61.5771 34.8555C61.9639 34.4336 62.1924 33.8389 62.2627 33.0713H64.3809ZM75.2266 31.4277C75.2266 32.1836 75.1299 32.9102 74.9365 33.6074C74.7432 34.2988 74.4531 34.9111 74.0664 35.4443C73.6855 35.9717 73.2051 36.3936 72.625 36.71C72.0508 37.0205 71.377 37.1758 70.6035 37.1758C69.8359 37.1758 69.168 37.0176 68.5996 36.7012C68.0312 36.3848 67.5566 35.9629 67.1758 35.4355C66.8008 34.9023 66.5166 34.29 66.3232 33.5986C66.1357 32.9072 66.042 32.1836 66.042 31.4277V29.793C66.042 29.2891 66.083 28.7969 66.165 28.3164C66.2529 27.8359 66.3789 27.3848 66.543 26.9629C66.7129 26.5352 66.9209 26.1426 67.167 25.7852C67.4189 25.4219 67.7119 25.1113 68.0459 24.8535C68.3857 24.5957 68.7666 24.3936 69.1885 24.2471C69.6162 24.1006 70.085 24.0273 70.5947 24.0273C71.3682 24.0273 72.042 24.1855 72.6162 24.502C73.1963 24.8184 73.6797 25.2432 74.0664 25.7764C74.4531 26.3037 74.7432 26.916 74.9365 27.6133C75.1299 28.3105 75.2266 29.0371 75.2266 29.793V31.4277ZM73.1084 29.7754C73.1025 29.2949 73.0586 28.8174 72.9766 28.3428C72.8945 27.8682 72.7568 27.4463 72.5635 27.0771C72.3701 26.7021 72.1123 26.4004 71.79 26.1719C71.4736 25.9375 71.0752 25.8203 70.5947 25.8203C70.1201 25.8203 69.7246 25.9375 69.4082 26.1719C69.0977 26.4004 68.8486 26.7021 68.6611 27.0771C68.4795 27.4521 68.3506 27.877 68.2744 28.3516C68.2041 28.8203 68.166 29.2949 68.1602 29.7754V31.4277C68.166 31.9082 68.207 32.3857 68.2832 32.8604C68.3594 33.3291 68.4883 33.7539 68.6699 34.1348C68.8574 34.5098 69.1064 34.8145 69.417 35.0488C69.7334 35.2832 70.1289 35.4004 70.6035 35.4004C71.084 35.4004 71.4824 35.2832 71.7988 35.0488C72.1211 34.8145 72.3789 34.5098 72.5723 34.1348C72.7656 33.7598 72.9004 33.335 72.9766 32.8604C73.0586 32.3857 73.1025 31.9082 73.1084 31.4277V29.7754ZM79.8584 24.2031L81.4492 29.7314L83.207 24.2031H85.8262V37H83.8398V32.6055L83.9629 26.998L81.9941 33.1328H80.8867L79.1025 27.209L79.2256 32.6055V37H77.2393V24.2031H79.8584ZM88.0234 35.3037H96.4258V37H88.0234V35.3037ZM88.8584 29.5908H95.5381V31.252H88.8584V29.5908ZM88.1113 24.2031H96.2236V25.9082H88.1113V24.2031ZM118.855 25.9434H114.927V37H112.826V25.9434H108.924V24.2031H118.855V25.9434ZM128.875 32.1309C128.875 32.957 128.778 33.6865 128.585 34.3193C128.397 34.9463 128.125 35.4736 127.768 35.9014C127.41 36.3232 126.974 36.6426 126.458 36.8594C125.942 37.0762 125.362 37.1846 124.718 37.1846C124.079 37.1846 123.502 37.0762 122.986 36.8594C122.471 36.6426 122.031 36.3232 121.668 35.9014C121.311 35.4736 121.032 34.9463 120.833 34.3193C120.64 33.6865 120.543 32.957 120.543 32.1309V29.0723C120.543 28.2461 120.64 27.5195 120.833 26.8926C121.026 26.2598 121.302 25.7324 121.659 25.3105C122.022 24.8828 122.459 24.5605 122.969 24.3438C123.484 24.127 124.062 24.0186 124.7 24.0186C125.345 24.0186 125.925 24.127 126.44 24.3438C126.956 24.5605 127.393 24.8828 127.75 25.3105C128.113 25.7324 128.392 26.2598 128.585 26.8926C128.778 27.5195 128.875 28.2461 128.875 29.0723V32.1309ZM122.652 31.3311L126.748 28.2812C126.701 27.4082 126.508 26.7637 126.168 26.3477C125.834 25.9258 125.345 25.7148 124.7 25.7148C124.015 25.7148 123.502 25.958 123.162 26.4443C122.822 26.9307 122.652 27.6777 122.652 28.6855V31.3311ZM126.766 29.9336L122.67 32.9834C122.775 34.6592 123.458 35.4971 124.718 35.4971C126.083 35.4971 126.766 34.498 126.766 32.5V29.9336Z" fill="black"/>
</g>
<g id="Group 12">
<path id="29+30 April 2020" d="M31.5342 166L22.9385 166V164.55L27.1045 160.006C27.4561 159.613 27.749 159.268 27.9834 158.969C28.2236 158.664 28.4141 158.386 28.5547 158.134C28.6953 157.882 28.7949 157.647 28.8535 157.431C28.9121 157.214 28.9414 156.994 28.9414 156.771C28.9414 156.479 28.8945 156.209 28.8008 155.963C28.7129 155.711 28.584 155.497 28.4141 155.321C28.25 155.14 28.0479 154.999 27.8076 154.899C27.5732 154.8 27.3096 154.75 27.0166 154.75C26.2549 154.75 25.6924 154.958 25.3291 155.374C24.9717 155.79 24.793 156.364 24.793 157.097H22.6836C22.6836 156.54 22.7832 156.016 22.9824 155.523C23.1875 155.025 23.4775 154.592 23.8525 154.223C24.2334 153.854 24.6934 153.563 25.2324 153.353C25.7715 153.136 26.3779 153.027 27.0518 153.027C27.6846 153.027 28.2471 153.118 28.7393 153.3C29.2314 153.481 29.6475 153.736 29.9873 154.064C30.3271 154.387 30.585 154.771 30.7607 155.216C30.9365 155.661 31.0244 156.15 31.0244 156.684C31.0244 157.082 30.96 157.469 30.8311 157.844C30.7021 158.213 30.5234 158.582 30.2949 158.951C30.0664 159.32 29.7939 159.692 29.4775 160.067C29.1611 160.437 28.8184 160.817 28.4492 161.21L25.5488 164.321L31.5342 164.321V166ZM35.9111 164.26C36.6729 164.26 37.3115 164.172 37.8271 163.996C38.3486 163.814 38.7705 163.565 39.0928 163.249C39.415 162.933 39.6523 162.561 39.8047 162.133C39.9629 161.699 40.0625 161.23 40.1035 160.727C39.9746 160.873 39.8252 161.011 39.6553 161.14C39.4912 161.263 39.3037 161.374 39.0928 161.474C38.8877 161.567 38.6592 161.644 38.4072 161.702C38.1611 161.755 37.8887 161.781 37.5898 161.781C36.9629 161.781 36.418 161.664 35.9551 161.43C35.4922 161.189 35.1084 160.873 34.8037 160.48C34.499 160.082 34.2705 159.625 34.1182 159.109C33.9717 158.594 33.8984 158.055 33.8984 157.492C33.8984 156.877 33.9893 156.3 34.1709 155.761C34.3525 155.216 34.6191 154.741 34.9707 154.337C35.3223 153.933 35.7529 153.613 36.2627 153.379C36.7783 153.145 37.3643 153.027 38.0205 153.027C38.7295 153.027 39.3447 153.168 39.8662 153.449C40.3936 153.73 40.8301 154.108 41.1758 154.583C41.5273 155.058 41.7881 155.611 41.958 156.244C42.1338 156.871 42.2217 157.533 42.2217 158.23V158.916C42.2217 159.525 42.1807 160.126 42.0986 160.718C42.0225 161.304 41.8877 161.863 41.6943 162.396C41.5068 162.924 41.2549 163.41 40.9385 163.855C40.6279 164.301 40.2383 164.687 39.7695 165.016C39.3066 165.338 38.7559 165.593 38.1172 165.78C37.4844 165.962 36.752 166.053 35.9199 166.053H35.7529V164.26H35.9111ZM38.0205 160.12C38.2607 160.12 38.4893 160.082 38.7061 160.006C38.9287 159.93 39.1309 159.824 39.3125 159.689C39.4941 159.555 39.6553 159.394 39.7959 159.206C39.9365 159.019 40.0479 158.813 40.1299 158.591V157.896C40.1299 157.381 40.0713 156.927 39.9541 156.534C39.8428 156.136 39.6904 155.805 39.4971 155.541C39.3037 155.271 39.0781 155.069 38.8203 154.935C38.5684 154.8 38.3018 154.732 38.0205 154.732C37.6924 154.732 37.4023 154.803 37.1504 154.943C36.8984 155.084 36.6846 155.277 36.5088 155.523C36.3389 155.764 36.207 156.048 36.1133 156.376C36.0254 156.704 35.9814 157.056 35.9814 157.431C35.9814 157.782 36.0225 158.119 36.1045 158.441C36.1865 158.764 36.3096 159.051 36.4736 159.303C36.6436 159.549 36.8574 159.748 37.1152 159.9C37.373 160.047 37.6748 160.12 38.0205 160.12ZM50.0088 158.969H53.3662L53.3662 160.946H50.0088L50.0088 164.717H47.9609L47.9609 160.946L44.5947 160.946L44.5947 158.969L47.9609 158.969V155.4H50.0088V158.969ZM57.998 158.652H59.2549C59.624 158.652 59.9463 158.605 60.2217 158.512C60.4971 158.412 60.7256 158.274 60.9072 158.099C61.0889 157.923 61.2236 157.715 61.3115 157.475C61.4053 157.229 61.4521 156.959 61.4521 156.666C61.4521 156.045 61.2881 155.567 60.96 155.233C60.6377 154.894 60.1484 154.724 59.4922 154.724C59.2051 154.724 58.9385 154.768 58.6924 154.855C58.4521 154.937 58.2412 155.058 58.0596 155.216C57.8838 155.374 57.7461 155.564 57.6465 155.787C57.5469 156.01 57.4971 156.262 57.4971 156.543H55.3965C55.3965 156.039 55.4961 155.573 55.6953 155.146C55.9004 154.718 56.1816 154.349 56.5391 154.038C56.9023 153.722 57.333 153.476 57.8311 153.3C58.3291 153.118 58.874 153.027 59.4658 153.027C60.0693 153.027 60.623 153.106 61.127 153.265C61.6309 153.417 62.0615 153.646 62.4189 153.95C62.7764 154.255 63.0547 154.636 63.2539 155.093C63.4531 155.544 63.5527 156.068 63.5527 156.666C63.5527 156.918 63.5146 157.176 63.4385 157.439C63.3623 157.703 63.2451 157.958 63.0869 158.204C62.9346 158.45 62.7383 158.682 62.498 158.898C62.2637 159.109 61.9854 159.288 61.6631 159.435C62.0498 159.569 62.375 159.742 62.6387 159.953C62.9023 160.164 63.1162 160.401 63.2803 160.665C63.4443 160.923 63.5615 161.201 63.6318 161.5C63.7021 161.799 63.7373 162.104 63.7373 162.414C63.7373 163.012 63.6289 163.545 63.4121 164.014C63.1953 164.482 62.8936 164.878 62.5068 165.2C62.126 165.517 61.6748 165.76 61.1533 165.93C60.6318 166.094 60.0693 166.176 59.4658 166.176C58.9092 166.176 58.3789 166.1 57.875 165.947C57.3711 165.795 56.9258 165.569 56.5391 165.271C56.1582 164.966 55.8535 164.591 55.625 164.146C55.3965 163.694 55.2822 163.173 55.2822 162.581H57.3828C57.3828 162.862 57.4326 163.123 57.5322 163.363C57.6318 163.598 57.7725 163.8 57.9541 163.97C58.1416 164.134 58.3643 164.263 58.6221 164.356C58.8799 164.45 59.1699 164.497 59.4922 164.497C60.1602 164.497 60.6846 164.321 61.0654 163.97C61.4521 163.612 61.6455 163.097 61.6455 162.423C61.6455 162.054 61.5898 161.737 61.4785 161.474C61.3672 161.204 61.2061 160.984 60.9951 160.814C60.79 160.639 60.541 160.51 60.248 160.428C59.9551 160.346 59.624 160.305 59.2549 160.305H57.998L57.998 158.652ZM74.8379 161.131C74.8379 161.957 74.7412 162.687 74.5479 163.319C74.3604 163.946 74.0879 164.474 73.7305 164.901C73.373 165.323 72.9365 165.643 72.4209 165.859C71.9053 166.076 71.3252 166.185 70.6807 166.185C70.042 166.185 69.4648 166.076 68.9492 165.859C68.4336 165.643 67.9941 165.323 67.6309 164.901C67.2734 164.474 66.9951 163.946 66.7959 163.319C66.6025 162.687 66.5059 161.957 66.5059 161.131L66.5059 158.072C66.5059 157.246 66.6025 156.52 66.7959 155.893C66.9893 155.26 67.2646 154.732 67.6221 154.311C67.9854 153.883 68.4219 153.561 68.9316 153.344C69.4473 153.127 70.0244 153.019 70.6631 153.019C71.3076 153.019 71.8877 153.127 72.4033 153.344C72.9189 153.561 73.3555 153.883 73.7129 154.311C74.0762 154.732 74.3545 155.26 74.5479 155.893C74.7412 156.52 74.8379 157.246 74.8379 158.072L74.8379 161.131ZM68.6152 160.331L72.7109 157.281C72.6641 156.408 72.4707 155.764 72.1309 155.348C71.7969 154.926 71.3076 154.715 70.6631 154.715C69.9775 154.715 69.4648 154.958 69.125 155.444C68.7852 155.931 68.6152 156.678 68.6152 157.686L68.6152 160.331ZM72.7285 158.934L68.6328 161.983C68.7383 163.659 69.4209 164.497 70.6807 164.497C72.0459 164.497 72.7285 163.498 72.7285 161.5L72.7285 158.934ZM94.3936 163.029H90.3945L89.5156 166H87.3359L91.4932 153.203H93.3477L97.4258 166H95.2549L94.3936 163.029ZM90.9307 161.228H93.8662L92.416 156.209L90.9307 161.228ZM107.375 161.342C107.375 162.033 107.293 162.675 107.129 163.267C106.965 163.858 106.725 164.371 106.408 164.805C106.092 165.232 105.702 165.569 105.239 165.815C104.782 166.056 104.255 166.176 103.657 166.176C103.118 166.176 102.641 166.088 102.225 165.912C101.814 165.736 101.46 165.484 101.161 165.156V169.656H99.0605L99.0605 156.49H100.994L101.082 157.448C101.387 157.085 101.747 156.807 102.163 156.613C102.585 156.414 103.074 156.314 103.631 156.314C104.234 156.314 104.768 156.432 105.23 156.666C105.699 156.9 106.092 157.231 106.408 157.659C106.725 158.081 106.965 158.591 107.129 159.188C107.293 159.78 107.375 160.437 107.375 161.157V161.342ZM105.274 161.157C105.274 160.729 105.23 160.328 105.143 159.953C105.055 159.572 104.92 159.241 104.738 158.96C104.557 158.673 104.325 158.447 104.044 158.283C103.763 158.119 103.429 158.037 103.042 158.037C102.573 158.037 102.187 158.137 101.882 158.336C101.577 158.535 101.337 158.802 101.161 159.136L101.161 163.39C101.337 163.718 101.574 163.984 101.873 164.189C102.178 164.395 102.573 164.497 103.06 164.497C103.446 164.497 103.78 164.412 104.062 164.242C104.343 164.072 104.571 163.844 104.747 163.557C104.929 163.27 105.061 162.936 105.143 162.555C105.23 162.174 105.274 161.77 105.274 161.342V161.157ZM116.393 156.314C116.563 156.314 116.732 156.32 116.902 156.332C117.072 156.344 117.233 156.361 117.386 156.385C117.544 156.408 117.688 156.435 117.816 156.464C117.945 156.487 118.054 156.517 118.142 156.552L117.843 158.617C117.198 158.471 116.563 158.397 115.936 158.397C115.232 158.397 114.664 158.544 114.23 158.837C113.803 159.13 113.486 159.537 113.281 160.059L113.281 166L111.181 166L111.181 156.49L113.149 156.49L113.246 157.976C113.633 157.46 114.09 157.056 114.617 156.763C115.15 156.464 115.742 156.314 116.393 156.314ZM121.13 156.49H126.201L126.201 164.26H129.022V166H121.13V164.26H124.083L124.083 158.239H121.13V156.49ZM123.907 154.029C123.907 153.701 124.013 153.432 124.224 153.221C124.435 153.004 124.73 152.896 125.111 152.896C125.498 152.896 125.797 153.004 126.008 153.221C126.225 153.432 126.333 153.701 126.333 154.029C126.333 154.357 126.225 154.63 126.008 154.847C125.797 155.058 125.498 155.163 125.111 155.163C124.73 155.163 124.435 155.058 124.224 154.847C124.013 154.63 123.907 154.357 123.907 154.029ZM131.87 152.5H137.012L137.012 164.26H139.912V166H131.87V164.26H134.894L134.894 154.249H131.87V152.5ZM161.261 166H152.665V164.55L156.831 160.006C157.183 159.613 157.476 159.268 157.71 158.969C157.95 158.664 158.141 158.386 158.281 158.134C158.422 157.882 158.521 157.647 158.58 157.431C158.639 157.214 158.668 156.994 158.668 156.771C158.668 156.479 158.621 156.209 158.527 155.963C158.439 155.711 158.311 155.497 158.141 155.321C157.977 155.14 157.774 154.999 157.534 154.899C157.3 154.8 157.036 154.75 156.743 154.75C155.981 154.75 155.419 154.958 155.056 155.374C154.698 155.79 154.52 156.364 154.52 157.097H152.41C152.41 156.54 152.51 156.016 152.709 155.523C152.914 155.025 153.204 154.592 153.579 154.223C153.96 153.854 154.42 153.563 154.959 153.353C155.498 153.136 156.104 153.027 156.778 153.027C157.411 153.027 157.974 153.118 158.466 153.3C158.958 153.481 159.374 153.736 159.714 154.064C160.054 154.387 160.312 154.771 160.487 155.216C160.663 155.661 160.751 156.15 160.751 156.684C160.751 157.082 160.687 157.469 160.558 157.844C160.429 158.213 160.25 158.582 160.021 158.951C159.793 159.32 159.521 159.692 159.204 160.067C158.888 160.437 158.545 160.817 158.176 161.21L155.275 164.321H161.261V166ZM172.133 161.131C172.133 161.957 172.036 162.687 171.843 163.319C171.655 163.946 171.383 164.474 171.025 164.901C170.668 165.323 170.231 165.643 169.716 165.859C169.2 166.076 168.62 166.185 167.976 166.185C167.337 166.185 166.76 166.076 166.244 165.859C165.729 165.643 165.289 165.323 164.926 164.901C164.568 164.474 164.29 163.946 164.091 163.319C163.897 162.687 163.801 161.957 163.801 161.131V158.072C163.801 157.246 163.897 156.52 164.091 155.893C164.284 155.26 164.56 154.732 164.917 154.311C165.28 153.883 165.717 153.561 166.227 153.344C166.742 153.127 167.319 153.019 167.958 153.019C168.603 153.019 169.183 153.127 169.698 153.344C170.214 153.561 170.65 153.883 171.008 154.311C171.371 154.732 171.649 155.26 171.843 155.893C172.036 156.52 172.133 157.246 172.133 158.072V161.131ZM165.91 160.331L170.006 157.281C169.959 156.408 169.766 155.764 169.426 155.348C169.092 154.926 168.603 154.715 167.958 154.715C167.272 154.715 166.76 154.958 166.42 155.444C166.08 155.931 165.91 156.678 165.91 157.686V160.331ZM170.023 158.934L165.928 161.983C166.033 163.659 166.716 164.497 167.976 164.497C169.341 164.497 170.023 163.498 170.023 161.5V158.934ZM182.882 166L174.286 166V164.55L178.452 160.006C178.804 159.613 179.097 159.268 179.331 158.969C179.571 158.664 179.762 158.386 179.902 158.134C180.043 157.882 180.143 157.647 180.201 157.431C180.26 157.214 180.289 156.994 180.289 156.771C180.289 156.479 180.242 156.209 180.148 155.963C180.061 155.711 179.932 155.497 179.762 155.321C179.598 155.14 179.396 154.999 179.155 154.899C178.921 154.8 178.657 154.75 178.364 154.75C177.603 154.75 177.04 154.958 176.677 155.374C176.319 155.79 176.141 156.364 176.141 157.097H174.031C174.031 156.54 174.131 156.016 174.33 155.523C174.535 155.025 174.825 154.592 175.2 154.223C175.581 153.854 176.041 153.563 176.58 153.353C177.119 153.136 177.726 153.027 178.399 153.027C179.032 153.027 179.595 153.118 180.087 153.3C180.579 153.481 180.995 153.736 181.335 154.064C181.675 154.387 181.933 154.771 182.108 155.216C182.284 155.661 182.372 156.15 182.372 156.684C182.372 157.082 182.308 157.469 182.179 157.844C182.05 158.213 181.871 158.582 181.643 158.951C181.414 159.32 181.142 159.692 180.825 160.067C180.509 160.437 180.166 160.817 179.797 161.21L176.896 164.321L182.882 164.321V166ZM193.754 161.131C193.754 161.957 193.657 162.687 193.464 163.319C193.276 163.946 193.004 164.474 192.646 164.901C192.289 165.323 191.853 165.643 191.337 165.859C190.821 166.076 190.241 166.185 189.597 166.185C188.958 166.185 188.381 166.076 187.865 165.859C187.35 165.643 186.91 165.323 186.547 164.901C186.189 164.474 185.911 163.946 185.712 163.319C185.519 162.687 185.422 161.957 185.422 161.131V158.072C185.422 157.246 185.519 156.52 185.712 155.893C185.905 155.26 186.181 154.732 186.538 154.311C186.901 153.883 187.338 153.561 187.848 153.344C188.363 153.127 188.94 153.019 189.579 153.019C190.224 153.019 190.804 153.127 191.319 153.344C191.835 153.561 192.271 153.883 192.629 154.311C192.992 154.732 193.271 155.26 193.464 155.893C193.657 156.52 193.754 157.246 193.754 158.072V161.131ZM187.531 160.331L191.627 157.281C191.58 156.408 191.387 155.764 191.047 155.348C190.713 154.926 190.224 154.715 189.579 154.715C188.894 154.715 188.381 154.958 188.041 155.444C187.701 155.931 187.531 156.678 187.531 157.686V160.331ZM191.645 158.934L187.549 161.983C187.654 163.659 188.337 164.497 189.597 164.497C190.962 164.497 191.645 163.498 191.645 161.5V158.934Z" fill="black"/>
</g>
</g>
</g>
<defs>
<linearGradient id="paint0_linear" x1="145.388" y1="574.424" x2="145.388" y2="499.95" gradientUnits="userSpaceOnUse">
<stop stop-color="#333334"/>
<stop offset="1" stop-color="#989898"/>
</linearGradient>
<linearGradient id="paint1_linear" x1="273.4" y1="574.424" x2="273.4" y2="499.95" gradientUnits="userSpaceOnUse">
<stop stop-color="#DCDCDC"/>
<stop offset="1" stop-color="#989898"/>
</linearGradient>
<linearGradient id="paint2_linear" x1="311.683" y1="476.621" x2="235.415" y2="476.92" gradientUnits="userSpaceOnUse">
<stop stop-color="#FCE96A"/>
<stop offset="1" stop-color="#4A4A48"/>
</linearGradient>
<linearGradient id="paint3_linear" x1="247.677" y1="257.985" x2="185.765" y2="286.398" gradientUnits="userSpaceOnUse">
<stop stop-color="#5C5C5E"/>
<stop offset="1" stop-color="#FCE96A"/>
</linearGradient>
<linearGradient id="paint4_linear" x1="145.388" y1="440.431" x2="145.388" y2="365.957" gradientUnits="userSpaceOnUse">
<stop stop-color="#CECED1"/>
<stop offset="1" stop-color="#FCE96A"/>
</linearGradient>
<clipPath id="clip0">
<rect width="411" height="731" fill="white"/>
</clipPath>
</defs>
</svg>
