<svg width="1920" height="1200" viewBox="0 0 1920 1200" fill="none" xmlns="http://www.w3.org/2000/svg">
<g id="solidity.interspace.chat:hover">
<rect width="1920" height="1200" fill="#E6E7EC"/>
<path id="empty" d="M962.258 509.404H751.672L856.965 324.19L962.258 509.404Z" fill="#19191A"/>
<path id="CR&#206;&#158;AT&#206;&#158; BR&#206;&#158;AKOUT R00M" d="M672.68 912.325C672.595 913.214 672.383 914.026 672.045 914.763C671.706 915.491 671.258 916.117 670.699 916.642C670.141 917.158 669.48 917.56 668.719 917.848C667.965 918.127 667.123 918.267 666.192 918.267C665.067 918.267 664.085 918.051 663.247 917.619C662.409 917.179 661.711 916.587 661.152 915.842C660.594 915.097 660.175 914.225 659.896 913.227C659.616 912.228 659.472 911.161 659.464 910.027V907.501C659.472 906.375 659.62 905.313 659.908 904.314C660.196 903.307 660.619 902.431 661.178 901.687C661.745 900.933 662.447 900.341 663.285 899.909C664.123 899.469 665.096 899.249 666.205 899.249C667.178 899.249 668.046 899.393 668.808 899.681C669.569 899.968 670.221 900.375 670.763 900.899C671.304 901.424 671.736 902.063 672.058 902.816C672.379 903.57 672.587 904.408 672.68 905.33H669.633C669.582 904.788 669.476 904.298 669.315 903.857C669.163 903.409 668.951 903.028 668.681 902.715C668.41 902.393 668.067 902.148 667.652 901.979C667.246 901.809 666.764 901.725 666.205 901.725C665.52 901.725 664.944 901.881 664.479 902.194C664.013 902.507 663.636 902.931 663.349 903.464C663.061 903.989 662.854 904.598 662.727 905.292C662.608 905.986 662.549 906.714 662.549 907.476V910.027C662.549 910.823 662.608 911.572 662.727 912.274C662.854 912.968 663.057 913.578 663.336 914.103C663.615 914.627 663.988 915.042 664.453 915.347C664.919 915.651 665.498 915.804 666.192 915.804C667.259 915.804 668.071 915.503 668.63 914.902C669.188 914.293 669.519 913.434 669.62 912.325H672.68ZM682.011 910.789H678.913V918H675.866V899.516H681.706C682.654 899.524 683.526 899.647 684.321 899.884C685.125 900.112 685.819 900.459 686.403 900.925C686.987 901.382 687.44 901.957 687.762 902.651C688.083 903.345 688.244 904.158 688.244 905.089C688.244 905.715 688.16 906.286 687.99 906.803C687.829 907.311 687.601 907.772 687.305 908.187C687.008 908.601 686.653 908.965 686.238 909.278C685.824 909.591 685.367 909.858 684.867 910.078L688.777 917.848V918H685.527L682.011 910.789ZM678.913 908.326H681.719C682.227 908.326 682.692 908.254 683.115 908.11C683.538 907.966 683.902 907.763 684.207 907.501C684.52 907.23 684.761 906.904 684.931 906.523C685.1 906.134 685.185 905.69 685.185 905.19C685.185 904.674 685.104 904.217 684.943 903.819C684.783 903.422 684.55 903.087 684.245 902.816C683.949 902.546 683.585 902.342 683.153 902.207C682.722 902.063 682.239 901.987 681.706 901.979H678.913V908.326ZM691.215 915.55H703.352V918H691.215V915.55ZM692.421 907.298H702.069V909.697H692.421V907.298ZM691.342 899.516H703.06V901.979H691.342V899.516ZM716.009 913.709H710.232L708.963 918H705.814L711.819 899.516H714.498L720.389 918H717.253L716.009 913.709ZM711.007 911.106H715.247L713.152 903.857L711.007 911.106ZM735.75 902.029H730.075V918H727.041V902.029H721.404V899.516H735.75V902.029ZM738.061 915.55H750.197V918H738.061V915.55ZM739.267 907.298H748.915V909.697H739.267V907.298ZM738.188 899.516H749.905V901.979H738.188V899.516ZM550.881 953V934.516H556.784C557.673 934.524 558.502 934.626 559.272 934.82C560.051 935.015 560.728 935.315 561.304 935.722C561.888 936.128 562.345 936.648 562.675 937.283C563.005 937.91 563.166 938.654 563.157 939.518C563.149 940.432 562.895 941.215 562.396 941.866C561.896 942.509 561.223 943.009 560.377 943.364C560.893 943.508 561.35 943.715 561.748 943.986C562.154 944.249 562.493 944.566 562.764 944.938C563.035 945.311 563.242 945.726 563.386 946.183C563.53 946.631 563.602 947.109 563.602 947.617C563.602 948.497 563.441 949.272 563.119 949.94C562.798 950.609 562.349 951.168 561.773 951.616C561.206 952.065 560.529 952.408 559.742 952.645C558.964 952.873 558.121 952.992 557.216 953H550.881ZM553.94 944.621V950.512H557.267C557.749 950.503 558.189 950.431 558.587 950.296C558.985 950.152 559.327 949.957 559.615 949.712C559.903 949.466 560.127 949.166 560.288 948.811C560.457 948.455 560.542 948.057 560.542 947.617C560.542 947.152 560.47 946.737 560.326 946.373C560.182 946.001 559.975 945.688 559.704 945.434C559.433 945.18 559.103 944.985 558.714 944.85C558.325 944.706 557.889 944.63 557.406 944.621H553.94ZM553.94 942.298H556.86C557.317 942.289 557.741 942.23 558.13 942.12C558.528 942.002 558.87 941.832 559.158 941.612C559.446 941.384 559.674 941.109 559.844 940.787C560.013 940.457 560.098 940.08 560.098 939.657C560.098 939.192 560.017 938.794 559.856 938.464C559.696 938.134 559.467 937.863 559.171 937.651C558.883 937.44 558.54 937.287 558.143 937.194C557.745 937.093 557.309 937.038 556.835 937.029H553.94V942.298ZM572.704 945.789H569.606V953H566.56V934.516H572.399C573.347 934.524 574.219 934.647 575.015 934.884C575.819 935.112 576.513 935.459 577.097 935.925C577.681 936.382 578.133 936.957 578.455 937.651C578.777 938.345 578.938 939.158 578.938 940.089C578.938 940.715 578.853 941.286 578.684 941.803C578.523 942.311 578.294 942.772 577.998 943.187C577.702 943.601 577.346 943.965 576.932 944.278C576.517 944.591 576.06 944.858 575.561 945.078L579.471 952.848V953H576.221L572.704 945.789ZM569.606 943.326H572.412C572.92 943.326 573.385 943.254 573.809 943.11C574.232 942.966 574.596 942.763 574.9 942.501C575.214 942.23 575.455 941.904 575.624 941.523C575.793 941.134 575.878 940.69 575.878 940.19C575.878 939.674 575.798 939.217 575.637 938.819C575.476 938.422 575.243 938.087 574.938 937.816C574.642 937.546 574.278 937.342 573.847 937.207C573.415 937.063 572.933 936.987 572.399 936.979H569.606V943.326ZM581.908 950.55H594.045V953H581.908V950.55ZM583.114 942.298H592.763V944.697H583.114V942.298ZM582.035 934.516H593.753V936.979H582.035V934.516ZM606.702 948.709H600.926L599.656 953H596.508L602.513 934.516H605.191L611.082 953H607.946L606.702 948.709ZM601.7 946.106H605.94L603.846 938.857L601.7 946.106ZM618.395 944.964L616.414 947.186V953H613.329V934.516H616.414V943.174L618.103 940.978L622.965 934.516H626.685L620.4 942.628L627.002 953H623.346L618.395 944.964ZM641.5 944.951C641.5 946.043 641.36 947.092 641.081 948.1C640.802 949.098 640.383 949.983 639.824 950.753C639.274 951.515 638.58 952.124 637.742 952.581C636.913 953.03 635.939 953.254 634.822 953.254C633.714 953.254 632.749 953.025 631.928 952.568C631.107 952.111 630.421 951.502 629.871 950.74C629.329 949.97 628.919 949.086 628.64 948.087C628.369 947.088 628.233 946.043 628.233 944.951V942.59C628.233 941.862 628.293 941.151 628.411 940.457C628.538 939.763 628.72 939.111 628.957 938.502C629.202 937.884 629.503 937.317 629.858 936.801C630.222 936.276 630.646 935.827 631.128 935.455C631.619 935.083 632.169 934.791 632.778 934.579C633.396 934.368 634.073 934.262 634.81 934.262C635.927 934.262 636.9 934.49 637.729 934.947C638.567 935.404 639.266 936.018 639.824 936.788C640.383 937.55 640.802 938.434 641.081 939.441C641.36 940.449 641.5 941.498 641.5 942.59V944.951ZM638.44 942.564C638.432 941.87 638.368 941.181 638.25 940.495C638.132 939.81 637.933 939.2 637.653 938.667C637.374 938.125 637.002 937.689 636.536 937.359C636.079 937.021 635.504 936.852 634.81 936.852C634.124 936.852 633.553 937.021 633.096 937.359C632.647 937.689 632.287 938.125 632.017 938.667C631.754 939.209 631.568 939.822 631.458 940.508C631.356 941.185 631.301 941.87 631.293 942.564V944.951C631.301 945.645 631.361 946.335 631.471 947.021C631.581 947.698 631.767 948.311 632.029 948.861C632.3 949.403 632.66 949.843 633.108 950.182C633.565 950.52 634.137 950.689 634.822 950.689C635.516 950.689 636.092 950.52 636.549 950.182C637.014 949.843 637.387 949.403 637.666 948.861C637.945 948.32 638.14 947.706 638.25 947.021C638.368 946.335 638.432 945.645 638.44 944.951V942.564ZM656.607 934.516L656.633 946.894C656.624 947.841 656.472 948.709 656.176 949.496C655.88 950.275 655.465 950.943 654.932 951.502C654.398 952.061 653.751 952.492 652.989 952.797C652.236 953.102 651.39 953.254 650.45 953.254C649.536 953.254 648.707 953.102 647.962 952.797C647.217 952.492 646.578 952.065 646.045 951.515C645.512 950.956 645.097 950.287 644.801 949.509C644.505 948.722 644.352 947.85 644.344 946.894L644.369 934.516H647.365L647.391 946.894C647.399 947.461 647.471 947.981 647.606 948.455C647.742 948.929 647.937 949.34 648.19 949.687C648.444 950.025 648.757 950.292 649.13 950.486C649.511 950.673 649.951 950.766 650.45 950.766C650.958 950.766 651.407 950.673 651.796 950.486C652.185 950.292 652.511 950.025 652.773 949.687C653.036 949.34 653.235 948.929 653.37 948.455C653.506 947.981 653.577 947.461 653.586 946.894L653.611 934.516H656.607ZM673.289 937.029H667.614V953H664.58V937.029H658.943V934.516H673.289V937.029ZM697.626 945.789H694.528V953H691.481V934.516H697.321C698.269 934.524 699.141 934.647 699.937 934.884C700.741 935.112 701.435 935.459 702.019 935.925C702.603 936.382 703.055 936.957 703.377 937.651C703.699 938.345 703.859 939.158 703.859 940.089C703.859 940.715 703.775 941.286 703.605 941.803C703.445 942.311 703.216 942.772 702.92 943.187C702.624 943.601 702.268 943.965 701.854 944.278C701.439 944.591 700.982 944.858 700.482 945.078L704.393 952.848V953H701.143L697.626 945.789ZM694.528 943.326H697.334C697.842 943.326 698.307 943.254 698.73 943.11C699.154 942.966 699.518 942.763 699.822 942.501C700.135 942.23 700.377 941.904 700.546 941.523C700.715 941.134 700.8 940.69 700.8 940.19C700.8 939.674 700.719 939.217 700.559 938.819C700.398 938.422 700.165 938.087 699.86 937.816C699.564 937.546 699.2 937.342 698.769 937.207C698.337 937.063 697.854 936.987 697.321 936.979H694.528V943.326ZM718.992 945.967C718.992 947.16 718.853 948.214 718.573 949.128C718.302 950.034 717.909 950.795 717.393 951.413C716.876 952.022 716.246 952.484 715.501 952.797C714.756 953.11 713.918 953.267 712.987 953.267C712.065 953.267 711.231 953.11 710.486 952.797C709.742 952.484 709.107 952.022 708.582 951.413C708.066 950.795 707.664 950.034 707.376 949.128C707.097 948.214 706.957 947.16 706.957 945.967V941.549C706.957 940.355 707.097 939.306 707.376 938.4C707.655 937.486 708.053 936.725 708.569 936.115C709.094 935.497 709.725 935.032 710.461 934.719C711.206 934.406 712.039 934.249 712.962 934.249C713.893 934.249 714.731 934.406 715.476 934.719C716.22 935.032 716.851 935.497 717.367 936.115C717.892 936.725 718.294 937.486 718.573 938.4C718.853 939.306 718.992 940.355 718.992 941.549V945.967ZM710.004 944.812L715.92 940.406C715.852 939.145 715.573 938.214 715.082 937.613C714.6 937.004 713.893 936.699 712.962 936.699C711.972 936.699 711.231 937.05 710.74 937.753C710.249 938.455 710.004 939.535 710.004 940.99V944.812ZM715.945 942.793L710.029 947.198C710.182 949.619 711.168 950.829 712.987 950.829C714.959 950.829 715.945 949.386 715.945 946.5V942.793ZM734.607 945.967C734.607 947.16 734.468 948.214 734.188 949.128C733.918 950.034 733.524 950.795 733.008 951.413C732.492 952.022 731.861 952.484 731.116 952.797C730.371 953.11 729.534 953.267 728.603 953.267C727.68 953.267 726.846 953.11 726.102 952.797C725.357 952.484 724.722 952.022 724.197 951.413C723.681 950.795 723.279 950.034 722.991 949.128C722.712 948.214 722.572 947.16 722.572 945.967V941.549C722.572 940.355 722.712 939.306 722.991 938.4C723.271 937.486 723.668 936.725 724.185 936.115C724.709 935.497 725.34 935.032 726.076 934.719C726.821 934.406 727.655 934.249 728.577 934.249C729.508 934.249 730.346 934.406 731.091 934.719C731.836 935.032 732.466 935.497 732.982 936.115C733.507 936.725 733.909 937.486 734.188 938.4C734.468 939.306 734.607 940.355 734.607 941.549V945.967ZM725.619 944.812L731.535 940.406C731.467 939.145 731.188 938.214 730.697 937.613C730.215 937.004 729.508 936.699 728.577 936.699C727.587 936.699 726.846 937.05 726.355 937.753C725.865 938.455 725.619 939.535 725.619 940.99V944.812ZM731.561 942.793L725.645 947.198C725.797 949.619 726.783 950.829 728.603 950.829C730.575 950.829 731.561 949.386 731.561 946.5V942.793ZM741.882 934.516L744.18 942.501L746.719 934.516H750.502V953H747.633V946.652L747.811 938.553L744.967 947.414H743.367L740.79 938.857L740.968 946.652V953H738.099V934.516H741.882Z" fill="black"/>
<path id="CHAT" d="M951.641 1057.33C951.556 1058.21 951.344 1059.03 951.006 1059.76C950.667 1060.49 950.219 1061.12 949.66 1061.64C949.102 1062.16 948.441 1062.56 947.68 1062.85C946.926 1063.13 946.084 1063.27 945.153 1063.27C944.028 1063.27 943.046 1063.05 942.208 1062.62C941.37 1062.18 940.672 1061.59 940.113 1060.84C939.555 1060.1 939.136 1059.23 938.856 1058.23C938.577 1057.23 938.433 1056.16 938.425 1055.03V1052.5C938.433 1051.38 938.581 1050.31 938.869 1049.31C939.157 1048.31 939.58 1047.43 940.139 1046.69C940.706 1045.93 941.408 1045.34 942.246 1044.91C943.084 1044.47 944.057 1044.25 945.166 1044.25C946.139 1044.25 947.007 1044.39 947.769 1044.68C948.53 1044.97 949.182 1045.37 949.724 1045.9C950.265 1046.42 950.697 1047.06 951.019 1047.82C951.34 1048.57 951.548 1049.41 951.641 1050.33H948.594C948.543 1049.79 948.437 1049.3 948.276 1048.86C948.124 1048.41 947.912 1048.03 947.642 1047.71C947.371 1047.39 947.028 1047.15 946.613 1046.98C946.207 1046.81 945.725 1046.72 945.166 1046.72C944.48 1046.72 943.905 1046.88 943.439 1047.19C942.974 1047.51 942.597 1047.93 942.31 1048.46C942.022 1048.99 941.814 1049.6 941.688 1050.29C941.569 1050.99 941.51 1051.71 941.51 1052.48V1055.03C941.51 1055.82 941.569 1056.57 941.688 1057.27C941.814 1057.97 942.018 1058.58 942.297 1059.1C942.576 1059.63 942.949 1060.04 943.414 1060.35C943.88 1060.65 944.459 1060.8 945.153 1060.8C946.22 1060.8 947.032 1060.5 947.591 1059.9C948.149 1059.29 948.479 1058.43 948.581 1057.33H951.641ZM966.748 1063H963.777V1054.75H957.493V1063H954.535V1044.52H957.493V1052.25H963.777V1044.52H966.748V1063ZM979.354 1058.71H973.578L972.309 1063H969.16L975.165 1044.52H977.844L983.734 1063H980.599L979.354 1058.71ZM974.353 1056.11H978.593L976.498 1048.86L974.353 1056.11ZM999.096 1047.03H993.421V1063H990.387V1047.03H984.75V1044.52H999.096V1047.03Z" fill="black"/>
<path id="CLA1M P0AP" d="M1184.37 912.325C1184.29 913.214 1184.07 914.026 1183.74 914.763C1183.4 915.491 1182.95 916.117 1182.39 916.642C1181.83 917.158 1181.17 917.56 1180.41 917.848C1179.66 918.127 1178.81 918.267 1177.88 918.267C1176.76 918.267 1175.78 918.051 1174.94 917.619C1174.1 917.179 1173.4 916.587 1172.84 915.842C1172.29 915.097 1171.87 914.225 1171.59 913.227C1171.31 912.228 1171.16 911.161 1171.16 910.027V907.501C1171.16 906.375 1171.31 905.313 1171.6 904.314C1171.89 903.307 1172.31 902.431 1172.87 901.687C1173.44 900.933 1174.14 900.341 1174.98 899.909C1175.81 899.469 1176.79 899.249 1177.9 899.249C1178.87 899.249 1179.74 899.393 1180.5 899.681C1181.26 899.968 1181.91 900.375 1182.45 900.899C1183 901.424 1183.43 902.063 1183.75 902.816C1184.07 903.57 1184.28 904.408 1184.37 905.33H1181.32C1181.27 904.788 1181.17 904.298 1181.01 903.857C1180.85 903.409 1180.64 903.028 1180.37 902.715C1180.1 902.393 1179.76 902.148 1179.34 901.979C1178.94 901.809 1178.46 901.725 1177.9 901.725C1177.21 901.725 1176.64 901.881 1176.17 902.194C1175.7 902.507 1175.33 902.931 1175.04 903.464C1174.75 903.989 1174.54 904.598 1174.42 905.292C1174.3 905.986 1174.24 906.714 1174.24 907.476V910.027C1174.24 910.823 1174.3 911.572 1174.42 912.274C1174.54 912.968 1174.75 913.578 1175.03 914.103C1175.31 914.627 1175.68 915.042 1176.14 915.347C1176.61 915.651 1177.19 915.804 1177.88 915.804C1178.95 915.804 1179.76 915.503 1180.32 914.902C1180.88 914.293 1181.21 913.434 1181.31 912.325H1184.37ZM1190.85 915.512H1199.66V918H1187.8V899.516H1190.85V915.512ZM1212.08 913.709H1206.31L1205.04 918H1201.89L1207.9 899.516H1210.57L1216.46 918H1213.33L1212.08 913.709ZM1207.08 911.106H1211.32L1209.23 903.857L1207.08 911.106ZM1227.03 918H1223.97V903.261L1219.25 904.987V902.321L1226.84 899.516H1227.03V918ZM1237.96 899.516L1240.26 907.501L1242.79 899.516H1246.58V918H1243.71V911.652L1243.89 903.553L1241.04 912.414H1239.44L1236.87 903.857L1237.04 911.652V918H1234.17V899.516H1237.96ZM1175.17 945.916V953H1172.12V934.516H1178.3C1179.23 934.524 1180.08 934.664 1180.85 934.935C1181.64 935.197 1182.32 935.578 1182.89 936.077C1183.45 936.568 1183.89 937.169 1184.21 937.88C1184.53 938.582 1184.69 939.378 1184.69 940.267C1184.69 941.13 1184.53 941.909 1184.21 942.603C1183.89 943.297 1183.45 943.889 1182.89 944.38C1182.32 944.871 1181.64 945.247 1180.85 945.51C1180.08 945.772 1179.23 945.908 1178.3 945.916H1175.17ZM1175.17 943.453H1178.3C1178.82 943.453 1179.28 943.377 1179.69 943.225C1180.09 943.064 1180.44 942.844 1180.73 942.564C1181.02 942.285 1181.24 941.951 1181.39 941.562C1181.54 941.172 1181.62 940.749 1181.62 940.292C1181.62 939.81 1181.54 939.365 1181.39 938.959C1181.24 938.553 1181.02 938.206 1180.73 937.918C1180.44 937.622 1180.09 937.393 1179.69 937.232C1179.28 937.072 1178.82 936.987 1178.3 936.979H1175.17V943.453ZM1199.45 945.967C1199.45 947.16 1199.31 948.214 1199.03 949.128C1198.76 950.034 1198.37 950.795 1197.85 951.413C1197.34 952.022 1196.71 952.484 1195.96 952.797C1195.22 953.11 1194.38 953.267 1193.45 953.267C1192.53 953.267 1191.69 953.11 1190.95 952.797C1190.2 952.484 1189.57 952.022 1189.04 951.413C1188.53 950.795 1188.12 950.034 1187.84 949.128C1187.56 948.214 1187.42 947.16 1187.42 945.967V941.549C1187.42 940.355 1187.56 939.306 1187.84 938.4C1188.12 937.486 1188.51 936.725 1189.03 936.115C1189.56 935.497 1190.19 935.032 1190.92 934.719C1191.67 934.406 1192.5 934.249 1193.42 934.249C1194.35 934.249 1195.19 934.406 1195.94 934.719C1196.68 935.032 1197.31 935.497 1197.83 936.115C1198.35 936.725 1198.75 937.486 1199.03 938.4C1199.31 939.306 1199.45 940.355 1199.45 941.549V945.967ZM1190.46 944.812L1196.38 940.406C1196.31 939.145 1196.03 938.214 1195.54 937.613C1195.06 937.004 1194.35 936.699 1193.42 936.699C1192.43 936.699 1191.69 937.05 1191.2 937.753C1190.71 938.455 1190.46 939.535 1190.46 940.99V944.812ZM1196.41 942.793L1190.49 947.198C1190.64 949.619 1191.63 950.829 1193.45 950.829C1195.42 950.829 1196.41 949.386 1196.41 946.5V942.793ZM1212.08 948.709H1206.31L1205.04 953H1201.89L1207.9 934.516H1210.57L1216.46 953H1213.33L1212.08 948.709ZM1207.08 946.106H1211.32L1209.23 938.857L1207.08 946.106ZM1222.01 945.916V953H1218.97V934.516H1225.15C1226.07 934.524 1226.92 934.664 1227.7 934.935C1228.49 935.197 1229.16 935.578 1229.73 936.077C1230.3 936.568 1230.74 937.169 1231.05 937.88C1231.37 938.582 1231.53 939.378 1231.53 940.267C1231.53 941.13 1231.37 941.909 1231.05 942.603C1230.74 943.297 1230.3 943.889 1229.73 944.38C1229.16 944.871 1228.49 945.247 1227.7 945.51C1226.92 945.772 1226.07 945.908 1225.15 945.916H1222.01ZM1222.01 943.453H1225.15C1225.66 943.453 1226.13 943.377 1226.53 943.225C1226.94 943.064 1227.29 942.844 1227.57 942.564C1227.86 942.285 1228.08 941.951 1228.23 941.562C1228.39 941.172 1228.46 940.749 1228.46 940.292C1228.46 939.81 1228.39 939.365 1228.23 938.959C1228.08 938.553 1227.86 938.206 1227.57 937.918C1227.29 937.622 1226.94 937.393 1226.53 937.232C1226.13 937.072 1225.66 936.987 1225.15 936.979H1222.01V943.453Z" fill="black"/>
<path id="L1V&#206;&#158; STR&#206;&#158;AM" d="M1178.23 652.512H1187.04V655H1175.18V636.516H1178.23V652.512ZM1198.8 655H1195.74V640.261L1191.01 641.987V639.321L1198.61 636.516H1198.8V655ZM1212 650.366L1215.85 636.516H1219.17L1213.46 655H1210.55L1204.85 636.516H1208.18L1212 650.366ZM1221.52 652.55H1233.66V655H1221.52V652.55ZM1222.73 644.298H1232.38V646.697H1222.73V644.298ZM1221.65 636.516H1233.37V638.979H1221.65V636.516ZM1184.49 685.239C1184.49 684.799 1184.4 684.414 1184.21 684.084C1184.03 683.745 1183.77 683.449 1183.44 683.195C1183.11 682.941 1182.71 682.721 1182.24 682.535C1181.79 682.34 1181.29 682.163 1180.74 682.002C1180.02 681.79 1179.3 681.528 1178.59 681.215C1177.88 680.902 1177.25 680.521 1176.69 680.072C1176.14 679.615 1175.7 679.086 1175.35 678.485C1175.01 677.876 1174.84 677.174 1174.84 676.378C1174.84 675.582 1175.01 674.871 1175.35 674.245C1175.7 673.61 1176.16 673.073 1176.73 672.633C1177.31 672.193 1177.98 671.854 1178.74 671.617C1179.5 671.38 1180.3 671.262 1181.12 671.262C1182.01 671.262 1182.84 671.401 1183.61 671.681C1184.39 671.951 1185.07 672.337 1185.64 672.836C1186.23 673.327 1186.69 673.919 1187.03 674.613C1187.37 675.299 1187.54 676.061 1187.55 676.898H1184.5C1184.46 676.433 1184.36 676.01 1184.2 675.629C1184.04 675.24 1183.82 674.905 1183.54 674.626C1183.26 674.347 1182.92 674.131 1182.51 673.979C1182.1 673.826 1181.63 673.75 1181.1 673.75C1180.64 673.75 1180.22 673.809 1179.83 673.928C1179.44 674.046 1179.1 674.22 1178.81 674.448C1178.54 674.677 1178.32 674.952 1178.15 675.273C1177.99 675.595 1177.91 675.959 1177.91 676.365C1177.91 676.797 1178.02 677.174 1178.24 677.495C1178.46 677.808 1178.75 678.083 1179.11 678.32C1179.46 678.557 1179.87 678.765 1180.33 678.942C1180.79 679.112 1181.27 679.268 1181.77 679.412C1182.54 679.641 1183.28 679.924 1183.98 680.263C1184.68 680.593 1185.3 680.995 1185.83 681.469C1186.37 681.934 1186.79 682.476 1187.1 683.094C1187.42 683.712 1187.57 684.418 1187.57 685.214C1187.57 686.035 1187.4 686.758 1187.05 687.385C1186.71 688.011 1186.24 688.536 1185.66 688.959C1185.07 689.382 1184.4 689.704 1183.63 689.924C1182.86 690.135 1182.05 690.241 1181.21 690.241C1180.65 690.241 1180.08 690.186 1179.53 690.076C1178.97 689.966 1178.43 689.801 1177.91 689.581C1177.41 689.361 1176.93 689.09 1176.49 688.769C1176.05 688.438 1175.67 688.062 1175.34 687.639C1175.01 687.207 1174.76 686.729 1174.57 686.204C1174.39 685.671 1174.29 685.087 1174.28 684.452H1177.34C1177.38 685.011 1177.51 685.497 1177.71 685.912C1177.91 686.327 1178.18 686.674 1178.52 686.953C1178.86 687.224 1179.25 687.431 1179.7 687.575C1180.16 687.711 1180.66 687.778 1181.21 687.778C1181.67 687.778 1182.1 687.723 1182.5 687.613C1182.89 687.503 1183.24 687.342 1183.54 687.131C1183.83 686.911 1184.07 686.644 1184.24 686.331C1184.4 686.009 1184.49 685.646 1184.49 685.239ZM1203.6 674.029H1197.92V690H1194.89V674.029H1189.25V671.516H1203.6V674.029ZM1212.32 682.789H1209.22V690H1206.17V671.516H1212.01C1212.96 671.524 1213.83 671.647 1214.63 671.884C1215.43 672.112 1216.13 672.459 1216.71 672.925C1217.29 673.382 1217.75 673.957 1218.07 674.651C1218.39 675.345 1218.55 676.158 1218.55 677.089C1218.55 677.715 1218.47 678.286 1218.3 678.803C1218.14 679.311 1217.91 679.772 1217.61 680.187C1217.32 680.601 1216.96 680.965 1216.54 681.278C1216.13 681.591 1215.67 681.858 1215.17 682.078L1219.08 689.848V690H1215.83L1212.32 682.789ZM1209.22 680.326H1212.03C1212.53 680.326 1213 680.254 1213.42 680.11C1213.85 679.966 1214.21 679.763 1214.51 679.501C1214.83 679.23 1215.07 678.904 1215.24 678.523C1215.41 678.134 1215.49 677.69 1215.49 677.19C1215.49 676.674 1215.41 676.217 1215.25 675.819C1215.09 675.422 1214.86 675.087 1214.55 674.816C1214.26 674.546 1213.89 674.342 1213.46 674.207C1213.03 674.063 1212.55 673.987 1212.01 673.979H1209.22V680.326ZM1221.52 687.55H1233.66V690H1221.52V687.55ZM1222.73 679.298H1232.38V681.697H1222.73V679.298ZM1221.65 671.516H1233.37V673.979H1221.65V671.516ZM1246.32 685.709H1240.54L1239.27 690H1236.12L1242.13 671.516H1244.8L1250.7 690H1247.56L1246.32 685.709ZM1241.31 683.106H1245.55L1243.46 675.857L1241.31 683.106ZM1256.57 671.516L1258.87 679.501L1261.41 671.516H1265.19V690H1262.32V683.652L1262.5 675.553L1259.66 684.414H1258.06L1255.48 675.857L1255.66 683.652V690H1252.79V671.516H1256.57Z" fill="black"/>
<path id="MA1N R00M" d="M687.767 618.516L690.064 626.501L692.604 618.516H696.387V637H693.518V630.652L693.695 622.553L690.852 631.414H689.252L686.675 622.857L686.853 630.652V637H683.983V618.516H687.767ZM708.739 632.709H702.963L701.693 637H698.545L704.55 618.516H707.229L713.119 637H709.983L708.739 632.709ZM703.737 630.106H707.978L705.883 622.857L703.737 630.106ZM723.682 637H720.622V622.261L715.899 623.987V621.321L723.491 618.516H723.682V637ZM742.966 637H739.894L733.876 624.279L733.863 637H730.778V618.516H733.863L739.855 631.198L739.881 618.516H742.966V637ZM690.356 664.789H687.259V672H684.212V653.516H690.052C691 653.524 691.871 653.647 692.667 653.884C693.471 654.112 694.165 654.459 694.749 654.925C695.333 655.382 695.786 655.957 696.107 656.651C696.429 657.345 696.59 658.158 696.59 659.089C696.59 659.715 696.505 660.286 696.336 660.803C696.175 661.311 695.947 661.772 695.65 662.187C695.354 662.601 694.999 662.965 694.584 663.278C694.169 663.591 693.712 663.858 693.213 664.078L697.123 671.848V672H693.873L690.356 664.789ZM687.259 662.326H690.064C690.572 662.326 691.038 662.254 691.461 662.11C691.884 661.966 692.248 661.763 692.553 661.501C692.866 661.23 693.107 660.904 693.276 660.523C693.446 660.134 693.53 659.69 693.53 659.19C693.53 658.674 693.45 658.217 693.289 657.819C693.128 657.422 692.896 657.087 692.591 656.816C692.295 656.546 691.931 656.342 691.499 656.207C691.067 656.063 690.585 655.987 690.052 655.979H687.259V662.326ZM711.723 664.967C711.723 666.16 711.583 667.214 711.304 668.128C711.033 669.034 710.639 669.795 710.123 670.413C709.607 671.022 708.976 671.484 708.231 671.797C707.487 672.11 706.649 672.267 705.718 672.267C704.795 672.267 703.962 672.11 703.217 671.797C702.472 671.484 701.837 671.022 701.312 670.413C700.796 669.795 700.394 669.034 700.106 668.128C699.827 667.214 699.688 666.16 699.688 664.967V660.549C699.688 659.355 699.827 658.306 700.106 657.4C700.386 656.486 700.784 655.725 701.3 655.115C701.825 654.497 702.455 654.032 703.191 653.719C703.936 653.406 704.77 653.249 705.692 653.249C706.623 653.249 707.461 653.406 708.206 653.719C708.951 654.032 709.581 654.497 710.098 655.115C710.622 655.725 711.024 656.486 711.304 657.4C711.583 658.306 711.723 659.355 711.723 660.549V664.967ZM702.734 663.812L708.65 659.406C708.583 658.145 708.303 657.214 707.812 656.613C707.33 656.004 706.623 655.699 705.692 655.699C704.702 655.699 703.962 656.05 703.471 656.753C702.98 657.455 702.734 658.535 702.734 659.99V663.812ZM708.676 661.793L702.76 666.198C702.912 668.619 703.898 669.829 705.718 669.829C707.69 669.829 708.676 668.386 708.676 665.5V661.793ZM727.338 664.967C727.338 666.16 727.198 667.214 726.919 668.128C726.648 669.034 726.255 669.795 725.738 670.413C725.222 671.022 724.591 671.484 723.847 671.797C723.102 672.11 722.264 672.267 721.333 672.267C720.41 672.267 719.577 672.11 718.832 671.797C718.087 671.484 717.452 671.022 716.928 670.413C716.411 669.795 716.009 669.034 715.722 668.128C715.442 667.214 715.303 666.16 715.303 664.967V660.549C715.303 659.355 715.442 658.306 715.722 657.4C716.001 656.486 716.399 655.725 716.915 655.115C717.44 654.497 718.07 654.032 718.807 653.719C719.551 653.406 720.385 653.249 721.308 653.249C722.239 653.249 723.076 653.406 723.821 653.719C724.566 654.032 725.197 654.497 725.713 655.115C726.238 655.725 726.64 656.486 726.919 657.4C727.198 658.306 727.338 659.355 727.338 660.549V664.967ZM718.35 663.812L724.266 659.406C724.198 658.145 723.919 657.214 723.428 656.613C722.945 656.004 722.239 655.699 721.308 655.699C720.317 655.699 719.577 656.05 719.086 656.753C718.595 657.455 718.35 658.535 718.35 659.99V663.812ZM724.291 661.793L718.375 666.198C718.527 668.619 719.513 669.829 721.333 669.829C723.305 669.829 724.291 668.386 724.291 665.5V661.793ZM734.612 653.516L736.91 661.501L739.449 653.516H743.232V672H740.363V665.652L740.541 657.553L737.697 666.414H736.098L733.521 657.857L733.698 665.652V672H730.829V653.516H734.612Z" fill="black"/>
<path id="L0BBY" d="M927.692 272.512H936.503V275H924.646V256.516H927.692V272.512ZM951.915 267.967C951.915 269.16 951.775 270.214 951.496 271.128C951.225 272.034 950.832 272.795 950.315 273.413C949.799 274.022 949.169 274.484 948.424 274.797C947.679 275.11 946.841 275.267 945.91 275.267C944.988 275.267 944.154 275.11 943.409 274.797C942.664 274.484 942.03 274.022 941.505 273.413C940.989 272.795 940.587 272.034 940.299 271.128C940.02 270.214 939.88 269.16 939.88 267.967V263.549C939.88 262.355 940.02 261.306 940.299 260.4C940.578 259.486 940.976 258.725 941.492 258.115C942.017 257.497 942.647 257.032 943.384 256.719C944.129 256.406 944.962 256.249 945.885 256.249C946.816 256.249 947.654 256.406 948.398 256.719C949.143 257.032 949.774 257.497 950.29 258.115C950.815 258.725 951.217 259.486 951.496 260.4C951.775 261.306 951.915 262.355 951.915 263.549V267.967ZM942.927 266.812L948.843 262.406C948.775 261.145 948.496 260.214 948.005 259.613C947.522 259.004 946.816 258.699 945.885 258.699C944.895 258.699 944.154 259.05 943.663 259.753C943.172 260.455 942.927 261.535 942.927 262.99V266.812ZM948.868 264.793L942.952 269.198C943.104 271.619 944.09 272.829 945.91 272.829C947.882 272.829 948.868 271.386 948.868 268.5V264.793ZM955.571 275V256.516H961.475C962.363 256.524 963.193 256.626 963.963 256.82C964.742 257.015 965.419 257.315 965.994 257.722C966.578 258.128 967.035 258.648 967.365 259.283C967.695 259.91 967.856 260.654 967.848 261.518C967.839 262.432 967.585 263.215 967.086 263.866C966.587 264.509 965.914 265.009 965.067 265.364C965.584 265.508 966.041 265.715 966.438 265.986C966.845 266.249 967.183 266.566 967.454 266.938C967.725 267.311 967.932 267.726 968.076 268.183C968.22 268.631 968.292 269.109 968.292 269.617C968.292 270.497 968.131 271.272 967.81 271.94C967.488 272.609 967.039 273.168 966.464 273.616C965.897 274.065 965.22 274.408 964.433 274.645C963.654 274.873 962.812 274.992 961.906 275H955.571ZM958.631 266.621V272.512H961.957C962.439 272.503 962.88 272.431 963.277 272.296C963.675 272.152 964.018 271.957 964.306 271.712C964.593 271.466 964.818 271.166 964.979 270.811C965.148 270.455 965.232 270.057 965.232 269.617C965.232 269.152 965.16 268.737 965.017 268.373C964.873 268.001 964.665 267.688 964.395 267.434C964.124 267.18 963.794 266.985 963.404 266.85C963.015 266.706 962.579 266.63 962.097 266.621H958.631ZM958.631 264.298H961.551C962.008 264.289 962.431 264.23 962.82 264.12C963.218 264.002 963.561 263.832 963.849 263.612C964.136 263.384 964.365 263.109 964.534 262.787C964.703 262.457 964.788 262.08 964.788 261.657C964.788 261.192 964.708 260.794 964.547 260.464C964.386 260.134 964.158 259.863 963.861 259.651C963.574 259.44 963.231 259.287 962.833 259.194C962.435 259.093 961.999 259.038 961.525 259.029H958.631V264.298ZM971.187 275V256.516H977.09C977.979 256.524 978.808 256.626 979.578 256.82C980.357 257.015 981.034 257.315 981.609 257.722C982.193 258.128 982.65 258.648 982.98 259.283C983.311 259.91 983.471 260.654 983.463 261.518C983.454 262.432 983.201 263.215 982.701 263.866C982.202 264.509 981.529 265.009 980.683 265.364C981.199 265.508 981.656 265.715 982.054 265.986C982.46 266.249 982.799 266.566 983.069 266.938C983.34 267.311 983.548 267.726 983.691 268.183C983.835 268.631 983.907 269.109 983.907 269.617C983.907 270.497 983.746 271.272 983.425 271.94C983.103 272.609 982.655 273.168 982.079 273.616C981.512 274.065 980.835 274.408 980.048 274.645C979.269 274.873 978.427 274.992 977.521 275H971.187ZM974.246 266.621V272.512H977.572C978.055 272.503 978.495 272.431 978.893 272.296C979.29 272.152 979.633 271.957 979.921 271.712C980.209 271.466 980.433 271.166 980.594 270.811C980.763 270.455 980.848 270.057 980.848 269.617C980.848 269.152 980.776 268.737 980.632 268.373C980.488 268.001 980.281 267.688 980.01 267.434C979.739 267.18 979.409 266.985 979.02 266.85C978.63 266.706 978.194 266.63 977.712 266.621H974.246ZM974.246 264.298H977.166C977.623 264.289 978.046 264.23 978.436 264.12C978.833 264.002 979.176 263.832 979.464 263.612C979.752 263.384 979.98 263.109 980.149 262.787C980.319 262.457 980.403 262.08 980.403 261.657C980.403 261.192 980.323 260.794 980.162 260.464C980.001 260.134 979.773 259.863 979.477 259.651C979.189 259.44 978.846 259.287 978.448 259.194C978.05 259.093 977.615 259.038 977.141 259.029H974.246V264.298ZM992.743 265.352L996.59 256.516H999.992L994.229 268.36L994.203 275H991.245L991.22 268.284L985.494 256.516H988.896L992.743 265.352Z" fill="black"/>
<path id="AG&#206;&#158;NDA" d="M1166.01 374.709H1160.23L1158.96 379H1155.81L1161.82 360.516H1164.5L1170.39 379H1167.25L1166.01 374.709ZM1161.01 372.106H1165.25L1163.15 364.857L1161.01 372.106ZM1185.06 376.689C1184.75 377.062 1184.38 377.405 1183.96 377.718C1183.54 378.031 1183.06 378.302 1182.54 378.53C1182.01 378.759 1181.44 378.937 1180.82 379.063C1180.21 379.19 1179.56 379.254 1178.87 379.254C1177.76 379.254 1176.78 379.038 1175.92 378.606C1175.07 378.175 1174.35 377.587 1173.75 376.842C1173.17 376.089 1172.72 375.204 1172.41 374.188C1172.1 373.173 1171.95 372.081 1171.94 370.913V368.628C1171.94 367.46 1172.09 366.368 1172.39 365.353C1172.7 364.337 1173.14 363.452 1173.7 362.699C1174.28 361.946 1174.98 361.354 1175.81 360.922C1176.64 360.482 1177.59 360.262 1178.65 360.262C1179.61 360.262 1180.46 360.393 1181.22 360.655C1181.97 360.918 1182.62 361.299 1183.16 361.798C1183.7 362.289 1184.13 362.89 1184.44 363.601C1184.76 364.312 1184.97 365.107 1185.05 365.987H1182.06C1181.98 365.488 1181.86 365.039 1181.7 364.642C1181.54 364.244 1181.32 363.905 1181.05 363.626C1180.78 363.347 1180.45 363.135 1180.06 362.991C1179.68 362.839 1179.23 362.763 1178.7 362.763C1178.06 362.763 1177.51 362.924 1177.04 363.245C1176.58 363.558 1176.2 363.986 1175.9 364.527C1175.59 365.061 1175.37 365.683 1175.23 366.394C1175.08 367.096 1175.01 367.832 1175 368.603V370.913C1175.01 371.683 1175.08 372.42 1175.23 373.122C1175.38 373.825 1175.61 374.447 1175.92 374.988C1176.25 375.521 1176.66 375.949 1177.16 376.271C1177.65 376.592 1178.26 376.757 1178.96 376.766C1179.25 376.766 1179.54 376.749 1179.85 376.715C1180.15 376.673 1180.44 376.609 1180.71 376.524C1180.99 376.44 1181.24 376.334 1181.47 376.207C1181.7 376.072 1181.89 375.907 1182.03 375.712L1182.06 372.018H1178.72V369.644H1185.04L1185.06 376.689ZM1188.06 376.55H1200.2V379H1188.06V376.55ZM1189.27 368.298H1198.92V370.697H1189.27V368.298ZM1188.19 360.516H1199.91V362.979H1188.19V360.516ZM1215.85 379H1212.78L1206.76 366.279L1206.75 379H1203.66V360.516H1206.75L1212.74 373.198L1212.77 360.516H1215.85V379ZM1219.35 379V360.516H1223.87C1225.14 360.524 1226.28 360.736 1227.29 361.15C1228.3 361.565 1229.16 362.149 1229.87 362.902C1230.58 363.656 1231.12 364.557 1231.5 365.606C1231.88 366.647 1232.08 367.803 1232.09 369.072V370.469C1232.08 371.738 1231.88 372.898 1231.5 373.947C1231.12 374.988 1230.58 375.885 1229.88 376.639C1229.18 377.383 1228.33 377.963 1227.33 378.378C1226.33 378.793 1225.21 379 1223.96 379H1219.35ZM1222.45 362.979V376.55H1223.96C1224.8 376.541 1225.53 376.393 1226.16 376.105C1226.79 375.809 1227.31 375.399 1227.72 374.874C1228.14 374.341 1228.46 373.702 1228.66 372.957C1228.87 372.212 1228.98 371.383 1228.99 370.469V369.047C1228.98 368.158 1228.87 367.346 1228.66 366.609C1228.46 365.873 1228.14 365.238 1227.72 364.705C1227.3 364.163 1226.76 363.744 1226.12 363.448C1225.49 363.144 1224.74 362.987 1223.87 362.979H1222.45ZM1244.08 374.709H1238.31L1237.04 379H1233.89L1239.9 360.516H1242.57L1248.46 379H1245.33L1244.08 374.709ZM1239.08 372.106H1243.32L1241.23 364.857L1239.08 372.106Z" fill="black"/>
<g id="new-room">
<g id="Group 11">
<path id="new-room_2" d="M751.672 789.762L962.258 789.762L856.965 975.61L751.672 789.762Z" fill="#5C5C5E"/>
<path id="new-room-hover" d="M745.329 821.477L907.709 821.477L826.519 973.707L745.329 821.477Z" fill="url(#paint0_linear)"/>
</g>
<rect id="Rectangle 6" x="550" y="898" width="202" height="55" fill="#E6E7EC"/>
</g>
<g id="chat">
<g id="Group 9">
<path id="chat_2" d="M1067.55 975.61L856.965 975.61L962.258 789.762L1067.55 975.61Z" fill="#333334"/>
<path id="chat-hover" d="M1048.52 1002.88H886.143L967.332 850.654L1048.52 1002.88Z" stroke="#FCE96A" stroke-width="5.07435"/>
</g>
<rect id="Rectangle 7" x="937" y="1043" width="63" height="21" fill="#E6E7EC"/>
</g>
<g id="poap">
<g id="Group 7">
<path id="poap_2" d="M962.258 789.762L1172.84 789.762L1067.55 975.61L962.258 789.762Z" fill="#19191A"/>
<path id="poap-hover" d="M1016.81 821.476L1179.19 821.476L1098 973.707L1016.81 821.476Z" fill="url(#paint1_linear)"/>
</g>
<rect id="Rectangle 8" x="1170" y="898" width="77" height="55" fill="#E6E7EC"/>
</g>
<g id="livestream">
<g id="Group 5">
<path id="livestream_2" d="M1172.84 789.762L962.258 789.762L1067.55 604.548L1172.84 789.762Z" fill="#2E2E2F"/>
<path id="livestream-hover" d="M1179.19 765.659H1016.81L1098 613.428L1179.19 765.659Z" fill="url(#paint2_linear)"/>
</g>
<rect id="Rectangle 9" x="1173" y="636" width="92" height="54" fill="#E6E7EC"/>
</g>
<g id="agenda">
<g id="Group 3">
<path id="agenda_2" d="M1172.84 509.404H962.258L1067.55 324.19L1172.84 509.404Z" fill="#5C5C5E"/>
<path id="agenda-hover" d="M1179.19 478.958H1016.81L1098 326.727L1179.19 478.958Z" stroke="#FCE96A" stroke-width="5.07435"/>
</g>
<rect id="Rectangle 12" x="1155" y="359" width="94" height="20" fill="#E6E7EC"/>
</g>
<g id="lobby">
<g id="Group 2">
<path id="lobby_2" d="M856.965 324.19L1067.55 324.19L962.258 509.404L856.965 324.19Z" fill="#333334"/>
<path id="lobby-hover" d="M881.068 302.624L1043.45 302.624L962.258 454.854L881.068 302.624Z" fill="url(#paint3_linear)"/>
</g>
<rect id="Rectangle 11" x="924" y="256" width="76" height="21" fill="#E6E7EC"/>
</g>
<g id="main-room">
<g id="Group 1">
<path id="main-room_2" d="M751.672 509.404L962.258 509.404L856.965 695.252L751.672 509.404Z" fill="#5C5C5E"/>
<path id="main-room-hover" d="M745.329 537.313L907.709 537.313L826.519 689.543L745.329 537.313Z" fill="url(#paint4_linear)"/>
</g>
<rect id="Rectangle 10" x="684" y="618" width="60" height="55" fill="#E6E7EC"/>
</g>
<g id="header-right">
<g id="credits">
<rect id="Rectangle 5" x="1772" y="191" width="110" height="25" fill="#E6E7EC"/>
<g id="CREDITS">
<path d="M1786.72 206.325C1786.63 207.214 1786.42 208.026 1786.08 208.763C1785.74 209.491 1785.3 210.117 1784.74 210.642C1784.18 211.158 1783.52 211.56 1782.76 211.848C1782 212.127 1781.16 212.267 1780.23 212.267C1779.1 212.267 1778.12 212.051 1777.29 211.619C1776.45 211.179 1775.75 210.587 1775.19 209.842C1774.63 209.097 1774.21 208.225 1773.93 207.227C1773.65 206.228 1773.51 205.161 1773.5 204.027V201.501C1773.51 200.375 1773.66 199.313 1773.95 198.314C1774.23 197.307 1774.66 196.431 1775.22 195.687C1775.78 194.933 1776.49 194.341 1777.32 193.909C1778.16 193.469 1779.13 193.249 1780.24 193.249C1781.22 193.249 1782.08 193.393 1782.85 193.681C1783.61 193.968 1784.26 194.375 1784.8 194.899C1785.34 195.424 1785.77 196.063 1786.1 196.816C1786.42 197.57 1786.62 198.408 1786.72 199.33H1783.67C1783.62 198.788 1783.51 198.298 1783.35 197.857C1783.2 197.409 1782.99 197.028 1782.72 196.715C1782.45 196.393 1782.11 196.148 1781.69 195.979C1781.28 195.809 1780.8 195.725 1780.24 195.725C1779.56 195.725 1778.98 195.881 1778.52 196.194C1778.05 196.507 1777.67 196.931 1777.39 197.464C1777.1 197.989 1776.89 198.598 1776.76 199.292C1776.65 199.986 1776.59 200.714 1776.59 201.476V204.027C1776.59 204.823 1776.65 205.572 1776.76 206.274C1776.89 206.968 1777.09 207.578 1777.37 208.103C1777.65 208.627 1778.03 209.042 1778.49 209.347C1778.96 209.651 1779.54 209.804 1780.23 209.804C1781.3 209.804 1782.11 209.503 1782.67 208.902C1783.23 208.293 1783.56 207.434 1783.66 206.325H1786.72ZM1796.05 204.789H1792.95V212H1789.9V193.516H1795.74C1796.69 193.524 1797.56 193.647 1798.36 193.884C1799.16 194.112 1799.86 194.459 1800.44 194.925C1801.03 195.382 1801.48 195.957 1801.8 196.651C1802.12 197.345 1802.28 198.158 1802.28 199.089C1802.28 199.715 1802.2 200.286 1802.03 200.803C1801.87 201.311 1801.64 201.772 1801.34 202.187C1801.05 202.601 1800.69 202.965 1800.28 203.278C1799.86 203.591 1799.4 203.858 1798.91 204.078L1802.82 211.848V212H1799.57L1796.05 204.789ZM1792.95 202.326H1795.76C1796.26 202.326 1796.73 202.254 1797.15 202.11C1797.58 201.966 1797.94 201.763 1798.25 201.501C1798.56 201.23 1798.8 200.904 1798.97 200.523C1799.14 200.134 1799.22 199.69 1799.22 199.19C1799.22 198.674 1799.14 198.217 1798.98 197.819C1798.82 197.422 1798.59 197.087 1798.28 196.816C1797.99 196.546 1797.62 196.342 1797.19 196.207C1796.76 196.063 1796.28 195.987 1795.74 195.979H1792.95V202.326ZM1816.3 203.71H1808.69V209.512H1817.59V212H1805.63V193.516H1817.5V196.029H1808.69V201.247H1816.3V203.71ZM1820.93 212V193.516H1825.45C1826.72 193.524 1827.86 193.736 1828.87 194.15C1829.88 194.565 1830.74 195.149 1831.44 195.902C1832.15 196.656 1832.7 197.557 1833.08 198.606C1833.46 199.647 1833.66 200.803 1833.67 202.072V203.469C1833.66 204.738 1833.46 205.898 1833.08 206.947C1832.7 207.988 1832.16 208.885 1831.46 209.639C1830.75 210.383 1829.9 210.963 1828.9 211.378C1827.91 211.793 1826.78 212 1825.54 212H1820.93ZM1824.03 195.979V209.55H1825.54C1826.38 209.541 1827.11 209.393 1827.74 209.105C1828.36 208.809 1828.88 208.399 1829.3 207.874C1829.72 207.341 1830.03 206.702 1830.24 205.957C1830.45 205.212 1830.56 204.383 1830.57 203.469V202.047C1830.56 201.158 1830.45 200.346 1830.24 199.609C1830.03 198.873 1829.72 198.238 1829.3 197.705C1828.87 197.163 1828.34 196.744 1827.7 196.448C1827.06 196.144 1826.31 195.987 1825.45 195.979H1824.03ZM1837.11 193.516H1848.1V196.042H1844.1V209.486H1848.1V212H1837.11V209.486H1841.02V196.042H1837.11V193.516ZM1865.4 196.029H1859.73V212H1856.69V196.029H1851.06V193.516H1865.4V196.029ZM1877.53 207.239C1877.53 206.799 1877.43 206.414 1877.25 206.084C1877.07 205.745 1876.81 205.449 1876.47 205.195C1876.14 204.941 1875.75 204.721 1875.28 204.535C1874.82 204.34 1874.32 204.163 1873.78 204.002C1873.05 203.79 1872.33 203.528 1871.62 203.215C1870.92 202.902 1870.29 202.521 1869.73 202.072C1869.18 201.615 1868.73 201.086 1868.39 200.485C1868.05 199.876 1867.88 199.174 1867.88 198.378C1867.88 197.582 1868.05 196.871 1868.39 196.245C1868.73 195.61 1869.19 195.073 1869.77 194.633C1870.35 194.193 1871.01 193.854 1871.78 193.617C1872.54 193.38 1873.33 193.262 1874.16 193.262C1875.05 193.262 1875.88 193.401 1876.65 193.681C1877.43 193.951 1878.11 194.337 1878.68 194.836C1879.27 195.327 1879.73 195.919 1880.07 196.613C1880.4 197.299 1880.58 198.061 1880.59 198.898H1877.54C1877.5 198.433 1877.4 198.01 1877.24 197.629C1877.08 197.24 1876.86 196.905 1876.58 196.626C1876.3 196.347 1875.95 196.131 1875.55 195.979C1875.14 195.826 1874.67 195.75 1874.14 195.75C1873.68 195.75 1873.26 195.809 1872.87 195.928C1872.48 196.046 1872.14 196.22 1871.85 196.448C1871.57 196.677 1871.35 196.952 1871.19 197.273C1871.03 197.595 1870.95 197.959 1870.95 198.365C1870.95 198.797 1871.06 199.174 1871.28 199.495C1871.5 199.808 1871.79 200.083 1872.14 200.32C1872.5 200.557 1872.91 200.765 1873.36 200.942C1873.83 201.112 1874.31 201.268 1874.81 201.412C1875.58 201.641 1876.32 201.924 1877.02 202.263C1877.72 202.593 1878.34 202.995 1878.87 203.469C1879.41 203.934 1879.83 204.476 1880.14 205.094C1880.46 205.712 1880.61 206.418 1880.61 207.214C1880.61 208.035 1880.44 208.758 1880.09 209.385C1879.74 210.011 1879.28 210.536 1878.7 210.959C1878.11 211.382 1877.43 211.704 1876.66 211.924C1875.89 212.135 1875.09 212.241 1874.25 212.241C1873.68 212.241 1873.12 212.186 1872.56 212.076C1872 211.966 1871.47 211.801 1870.95 211.581C1870.44 211.361 1869.97 211.09 1869.53 210.769C1869.09 210.438 1868.7 210.062 1868.37 209.639C1868.05 209.207 1867.8 208.729 1867.61 208.204C1867.43 207.671 1867.33 207.087 1867.32 206.452H1870.38C1870.42 207.011 1870.54 207.497 1870.75 207.912C1870.95 208.327 1871.22 208.674 1871.56 208.953C1871.9 209.224 1872.29 209.431 1872.74 209.575C1873.2 209.711 1873.7 209.778 1874.25 209.778C1874.71 209.778 1875.14 209.723 1875.53 209.613C1875.93 209.503 1876.28 209.342 1876.58 209.131C1876.87 208.911 1877.1 208.644 1877.27 208.331C1877.44 208.009 1877.53 207.646 1877.53 207.239Z" fill="black"/>
<path d="M1772.35 214.539H1881.64V215.809H1772.35V214.539Z" fill="black"/>
</g>
</g>
<g id="help">
<rect id="Rectangle 4" x="1819" y="150" width="63" height="25" fill="#E6E7EC"/>
<g id="HELP">
<path d="M1833.13 171H1830.16V162.748H1823.88V171H1820.92V152.516H1823.88V160.247H1830.16V152.516H1833.13V171ZM1847.61 162.71H1840V168.512H1848.9V171H1836.94V152.516H1848.81V155.029H1840V160.247H1847.61V162.71ZM1855.73 168.512H1864.54V171H1852.68V152.516H1855.73V168.512ZM1871.28 163.916V171H1868.24V152.516H1874.42C1875.34 152.524 1876.19 152.664 1876.97 152.935C1877.76 153.197 1878.43 153.578 1879 154.077C1879.57 154.568 1880.01 155.169 1880.32 155.88C1880.64 156.582 1880.8 157.378 1880.8 158.267C1880.8 159.13 1880.64 159.909 1880.32 160.603C1880.01 161.297 1879.57 161.889 1879 162.38C1878.43 162.871 1877.76 163.247 1876.97 163.51C1876.19 163.772 1875.34 163.908 1874.42 163.916H1871.28ZM1871.28 161.453H1874.42C1874.93 161.453 1875.4 161.377 1875.8 161.225C1876.21 161.064 1876.56 160.844 1876.84 160.564C1877.13 160.285 1877.35 159.951 1877.5 159.562C1877.66 159.172 1877.73 158.749 1877.73 158.292C1877.73 157.81 1877.66 157.365 1877.5 156.959C1877.35 156.553 1877.13 156.206 1876.84 155.918C1876.56 155.622 1876.21 155.393 1875.8 155.232C1875.4 155.072 1874.93 154.987 1874.42 154.979H1871.28V161.453Z" fill="black"/>
<path d="M1819.27 173.539H1881.72V174.809H1819.27V173.539Z" fill="black"/>
</g>
</g>
<g id="about">
<rect id="Rectangle 3" x="1803" y="109" width="79" height="25" fill="#E6E7EC"/>
<g id="ABOUT">
<path d="M1814.32 125.709H1808.54L1807.27 130H1804.12L1810.13 111.516H1812.81L1818.7 130H1815.56L1814.32 125.709ZM1809.31 123.106H1813.55L1811.46 115.857L1809.31 123.106ZM1820.96 130V111.516H1826.86C1827.75 111.524 1828.58 111.626 1829.35 111.82C1830.13 112.015 1830.8 112.315 1831.38 112.722C1831.96 113.128 1832.42 113.648 1832.75 114.283C1833.08 114.91 1833.24 115.654 1833.23 116.518C1833.22 117.432 1832.97 118.215 1832.47 118.866C1831.97 119.509 1831.3 120.009 1830.45 120.364C1830.97 120.508 1831.43 120.715 1831.82 120.986C1832.23 121.249 1832.57 121.566 1832.84 121.938C1833.11 122.311 1833.32 122.726 1833.46 123.183C1833.6 123.631 1833.68 124.109 1833.68 124.617C1833.68 125.497 1833.52 126.272 1833.19 126.94C1832.87 127.609 1832.42 128.168 1831.85 128.616C1831.28 129.065 1830.6 129.408 1829.82 129.645C1829.04 129.873 1828.2 129.992 1827.29 130H1820.96ZM1824.02 121.621V127.512H1827.34C1827.82 127.503 1828.26 127.431 1828.66 127.296C1829.06 127.152 1829.4 126.957 1829.69 126.712C1829.98 126.466 1830.2 126.166 1830.36 125.811C1830.53 125.455 1830.62 125.057 1830.62 124.617C1830.62 124.152 1830.55 123.737 1830.4 123.373C1830.26 123.001 1830.05 122.688 1829.78 122.434C1829.51 122.18 1829.18 121.985 1828.79 121.85C1828.4 121.706 1827.96 121.63 1827.48 121.621H1824.02ZM1824.02 119.298H1826.94C1827.39 119.289 1827.82 119.23 1828.21 119.12C1828.6 119.002 1828.95 118.832 1829.23 118.612C1829.52 118.384 1829.75 118.109 1829.92 117.787C1830.09 117.457 1830.17 117.08 1830.17 116.657C1830.17 116.192 1830.09 115.794 1829.93 115.464C1829.77 115.134 1829.54 114.863 1829.25 114.651C1828.96 114.44 1828.62 114.287 1828.22 114.194C1827.82 114.093 1827.38 114.038 1826.91 114.029H1824.02V119.298ZM1849.11 121.951C1849.11 123.043 1848.97 124.092 1848.7 125.1C1848.42 126.098 1848 126.983 1847.44 127.753C1846.89 128.515 1846.19 129.124 1845.36 129.581C1844.53 130.03 1843.55 130.254 1842.44 130.254C1841.33 130.254 1840.36 130.025 1839.54 129.568C1838.72 129.111 1838.04 128.502 1837.49 127.74C1836.94 126.97 1836.53 126.086 1836.25 125.087C1835.98 124.088 1835.85 123.043 1835.85 121.951V119.59C1835.85 118.862 1835.91 118.151 1836.03 117.457C1836.15 116.763 1836.33 116.111 1836.57 115.502C1836.82 114.884 1837.12 114.317 1837.47 113.801C1837.84 113.276 1838.26 112.827 1838.74 112.455C1839.23 112.083 1839.78 111.791 1840.39 111.579C1841.01 111.368 1841.69 111.262 1842.42 111.262C1843.54 111.262 1844.51 111.49 1845.34 111.947C1846.18 112.404 1846.88 113.018 1847.44 113.788C1848 114.55 1848.42 115.434 1848.7 116.441C1848.97 117.449 1849.11 118.498 1849.11 119.59V121.951ZM1846.05 119.564C1846.05 118.87 1845.98 118.181 1845.86 117.495C1845.75 116.81 1845.55 116.2 1845.27 115.667C1844.99 115.125 1844.62 114.689 1844.15 114.359C1843.69 114.021 1843.12 113.852 1842.42 113.852C1841.74 113.852 1841.17 114.021 1840.71 114.359C1840.26 114.689 1839.9 115.125 1839.63 115.667C1839.37 116.209 1839.18 116.822 1839.07 117.508C1838.97 118.185 1838.92 118.87 1838.91 119.564V121.951C1838.92 122.645 1838.97 123.335 1839.08 124.021C1839.19 124.698 1839.38 125.311 1839.64 125.861C1839.91 126.403 1840.27 126.843 1840.72 127.182C1841.18 127.52 1841.75 127.689 1842.44 127.689C1843.13 127.689 1843.71 127.52 1844.16 127.182C1844.63 126.843 1845 126.403 1845.28 125.861C1845.56 125.32 1845.75 124.706 1845.86 124.021C1845.98 123.335 1846.05 122.645 1846.05 121.951V119.564ZM1864.22 111.516L1864.25 123.894C1864.24 124.841 1864.09 125.709 1863.79 126.496C1863.49 127.275 1863.08 127.943 1862.55 128.502C1862.01 129.061 1861.37 129.492 1860.6 129.797C1859.85 130.102 1859 130.254 1858.06 130.254C1857.15 130.254 1856.32 130.102 1855.58 129.797C1854.83 129.492 1854.19 129.065 1853.66 128.515C1853.13 127.956 1852.71 127.287 1852.42 126.509C1852.12 125.722 1851.97 124.85 1851.96 123.894L1851.98 111.516H1854.98L1855 123.894C1855.01 124.461 1855.09 124.981 1855.22 125.455C1855.36 125.929 1855.55 126.34 1855.8 126.687C1856.06 127.025 1856.37 127.292 1856.74 127.486C1857.12 127.673 1857.57 127.766 1858.06 127.766C1858.57 127.766 1859.02 127.673 1859.41 127.486C1859.8 127.292 1860.13 127.025 1860.39 126.687C1860.65 126.34 1860.85 125.929 1860.98 125.455C1861.12 124.981 1861.19 124.461 1861.2 123.894L1861.23 111.516H1864.22ZM1880.9 114.029H1875.23V130H1872.19V114.029H1866.56V111.516H1880.9V114.029Z" fill="black"/>
<path d="M1803.46 132.539H1881.53V133.809H1803.46V132.539Z" fill="black"/>
</g>
</g>
</g>
<g id="header-left">
<rect id="Rectangle 1" x="39" y="106" width="379" height="90" fill="#FCE96A"/>
<rect id="Rectangle 2" x="39" y="206" width="283" height="90" fill="#FCE96A"/>
<path id="Solidity Summit" d="M74.7822 163.527C74.7822 162.537 74.6045 161.61 74.249 160.747C73.9189 159.884 73.335 159.084 72.4971 158.348C71.6846 157.586 70.6055 156.9 69.2598 156.291C67.9395 155.656 66.2891 155.072 64.3086 154.539C61.8965 153.879 59.5859 153.054 57.377 152.063C55.1934 151.073 53.2637 149.88 51.5879 148.483C49.9121 147.087 48.5664 145.462 47.5508 143.608C46.5605 141.755 46.0654 139.622 46.0654 137.21C46.0654 134.874 46.5605 132.754 47.5508 130.85C48.541 128.945 49.9121 127.32 51.6641 125.975C53.416 124.629 55.4854 123.601 57.8721 122.89C60.2588 122.153 62.8486 121.785 65.6416 121.785C68.5361 121.785 71.1768 122.204 73.5635 123.042C75.9756 123.88 78.0449 125.061 79.7715 126.584C81.498 128.082 82.8438 129.872 83.8086 131.954C84.7734 134.036 85.2559 136.321 85.2559 138.81H74.8203C74.7695 137.565 74.541 136.423 74.1348 135.382C73.7539 134.341 73.1699 133.452 72.3828 132.716C71.6211 131.954 70.6562 131.37 69.4883 130.964C68.3457 130.532 67 130.316 65.4512 130.316C64.0293 130.316 62.7598 130.494 61.6426 130.85C60.5508 131.18 59.624 131.662 58.8623 132.297C58.1006 132.906 57.5166 133.643 57.1104 134.506C56.7295 135.344 56.5391 136.258 56.5391 137.248C56.5391 138.289 56.793 139.229 57.3008 140.066C57.834 140.904 58.5957 141.666 59.5859 142.352C60.5762 143.012 61.7695 143.621 63.166 144.18C64.5879 144.738 66.1875 145.259 67.9648 145.741C70.5039 146.478 72.8398 147.379 74.9727 148.445C77.1055 149.512 78.9336 150.781 80.457 152.254C82.0059 153.701 83.1992 155.364 84.0371 157.243C84.9004 159.097 85.332 161.166 85.332 163.451C85.332 165.889 84.8369 168.06 83.8467 169.964C82.8818 171.843 81.5361 173.442 79.8096 174.763C78.083 176.058 76.0264 177.048 73.6396 177.733C71.2529 178.394 68.6504 178.724 65.832 178.724C64.0801 178.724 62.3281 178.559 60.5762 178.229C58.8496 177.924 57.1865 177.441 55.5869 176.781C54.0127 176.121 52.54 175.296 51.1689 174.306C49.7979 173.315 48.6045 172.16 47.5889 170.84C46.5986 169.52 45.8115 168.021 45.2275 166.346C44.6689 164.67 44.3896 162.816 44.3896 160.785H54.9014C54.9521 162.461 55.2441 163.896 55.7773 165.089C56.3105 166.282 57.0469 167.26 57.9863 168.021C58.9512 168.783 60.0938 169.342 61.4141 169.697C62.7598 170.053 64.2324 170.23 65.832 170.23C67.2539 170.23 68.5107 170.065 69.6025 169.735C70.7197 169.405 71.6592 168.948 72.4209 168.364C73.1826 167.78 73.7666 167.082 74.1729 166.27C74.5791 165.432 74.7822 164.518 74.7822 163.527ZM91.7686 157.015C91.7686 154.019 92.2002 151.251 93.0635 148.712C93.9268 146.147 95.1836 143.926 96.834 142.047C98.5098 140.168 100.541 138.695 102.928 137.629C105.34 136.562 108.095 136.029 111.192 136.029C114.29 136.029 117.045 136.562 119.457 137.629C121.869 138.695 123.9 140.168 125.551 142.047C127.227 143.926 128.496 146.147 129.359 148.712C130.223 151.251 130.654 154.019 130.654 157.015V157.814C130.654 160.836 130.223 163.629 129.359 166.193C128.496 168.732 127.239 170.941 125.589 172.82C123.938 174.699 121.907 176.172 119.495 177.238C117.083 178.279 114.341 178.8 111.269 178.8C108.171 178.8 105.403 178.279 102.966 177.238C100.554 176.172 98.5098 174.699 96.834 172.82C95.1836 170.941 93.9268 168.732 93.0635 166.193C92.2002 163.629 91.7686 160.836 91.7686 157.814V157.015ZM102.356 157.814C102.356 159.541 102.521 161.166 102.852 162.689C103.182 164.188 103.702 165.508 104.413 166.65C105.124 167.768 106.038 168.656 107.155 169.316C108.298 169.977 109.669 170.307 111.269 170.307C112.817 170.307 114.15 169.977 115.268 169.316C116.385 168.656 117.286 167.768 117.972 166.65C118.683 165.508 119.203 164.188 119.533 162.689C119.863 161.166 120.028 159.541 120.028 157.814V157.015C120.028 155.339 119.863 153.752 119.533 152.254C119.203 150.756 118.683 149.436 117.972 148.293C117.286 147.15 116.385 146.249 115.268 145.589C114.15 144.929 112.792 144.599 111.192 144.599C109.618 144.599 108.272 144.929 107.155 145.589C106.038 146.249 105.124 147.15 104.413 148.293C103.702 149.436 103.182 150.756 102.852 152.254C102.521 153.752 102.356 155.339 102.356 157.015V157.814ZM142.271 119.5H165.312V169.393H177.119V178H142.271V169.393H154.61V128.146H142.271V119.5ZM189.726 136.791H212.158V169.393H223.317V178H189.726V169.393H201.456V145.437H189.726V136.791ZM200.694 126.241C200.694 125.429 200.834 124.68 201.113 123.994C201.418 123.283 201.837 122.687 202.37 122.204C202.903 121.696 203.538 121.303 204.274 121.023C205.036 120.744 205.874 120.604 206.788 120.604C208.667 120.604 210.152 121.138 211.244 122.204C212.361 123.245 212.92 124.591 212.92 126.241C212.92 127.892 212.361 129.25 211.244 130.316C210.152 131.357 208.667 131.878 206.788 131.878C205.874 131.878 205.036 131.738 204.274 131.459C203.538 131.18 202.903 130.799 202.37 130.316C201.837 129.809 201.418 129.212 201.113 128.526C200.834 127.815 200.694 127.054 200.694 126.241ZM232.648 157.091C232.648 153.968 233.004 151.111 233.715 148.521C234.451 145.932 235.518 143.71 236.914 141.856C238.311 140.003 239.999 138.568 241.979 137.553C243.985 136.537 246.271 136.029 248.835 136.029C250.993 136.029 252.885 136.423 254.51 137.21C256.16 137.972 257.62 139.063 258.89 140.485V119.5H269.516V178H259.956L259.423 173.696C258.128 175.296 256.604 176.54 254.853 177.429C253.101 178.317 251.069 178.762 248.759 178.762C246.245 178.762 243.985 178.241 241.979 177.2C239.999 176.134 238.311 174.674 236.914 172.82C235.543 170.967 234.489 168.771 233.753 166.231C233.017 163.667 232.648 160.887 232.648 157.891V157.091ZM243.236 157.891C243.236 159.617 243.376 161.229 243.655 162.728C243.96 164.2 244.442 165.495 245.103 166.612C245.763 167.704 246.613 168.567 247.654 169.202C248.695 169.837 249.965 170.154 251.463 170.154C253.291 170.154 254.802 169.761 255.995 168.974C257.214 168.187 258.179 167.107 258.89 165.736V149.055C258.179 147.658 257.227 146.579 256.033 145.817C254.84 145.03 253.342 144.637 251.539 144.637C250.041 144.637 248.759 144.967 247.692 145.627C246.651 146.262 245.801 147.15 245.141 148.293C244.48 149.41 243.998 150.73 243.693 152.254C243.389 153.752 243.236 155.364 243.236 157.091V157.891ZM283.417 136.791H305.85V169.393H317.009V178H283.417V169.393H295.147V145.437H283.417V136.791ZM294.386 126.241C294.386 125.429 294.525 124.68 294.805 123.994C295.109 123.283 295.528 122.687 296.062 122.204C296.595 121.696 297.229 121.303 297.966 121.023C298.728 120.744 299.565 120.604 300.479 120.604C302.358 120.604 303.844 121.138 304.936 122.204C306.053 123.245 306.611 124.591 306.611 126.241C306.611 127.892 306.053 129.25 304.936 130.316C303.844 131.357 302.358 131.878 300.479 131.878C299.565 131.878 298.728 131.738 297.966 131.459C297.229 131.18 296.595 130.799 296.062 130.316C295.528 129.809 295.109 129.212 294.805 128.526C294.525 127.815 294.386 127.054 294.386 126.241ZM346.868 126.698V136.791H362.255V144.599H346.868V162.309C346.868 163.807 347.033 165.063 347.363 166.079C347.719 167.069 348.214 167.869 348.849 168.479C349.483 169.062 350.245 169.481 351.134 169.735C352.048 169.989 353.063 170.116 354.181 170.116C354.993 170.116 355.818 170.078 356.656 170.002C357.52 169.926 358.332 169.837 359.094 169.735C359.881 169.608 360.604 169.481 361.265 169.354C361.95 169.228 362.534 169.101 363.017 168.974L364.045 176.248C363.309 176.68 362.445 177.061 361.455 177.391C360.465 177.695 359.411 177.949 358.294 178.152C357.177 178.355 356.009 178.508 354.79 178.609C353.597 178.736 352.416 178.8 351.248 178.8C348.988 178.8 346.932 178.508 345.078 177.924C343.25 177.314 341.676 176.388 340.355 175.144C339.061 173.874 338.058 172.274 337.347 170.345C336.636 168.39 336.28 166.054 336.28 163.337V144.599H326.873V136.791H336.28V126.698H346.868ZM391.848 160.709L393.066 165.127L404.035 136.791H415.728L394.818 184.17C394.361 185.211 393.765 186.341 393.028 187.56C392.317 188.778 391.416 189.908 390.324 190.949C389.232 191.99 387.899 192.866 386.325 193.577C384.776 194.288 382.936 194.644 380.803 194.644C380.295 194.644 379.825 194.618 379.394 194.567C378.962 194.542 378.543 194.491 378.137 194.415C377.73 194.364 377.324 194.288 376.918 194.187C376.537 194.11 376.118 194.009 375.661 193.882L376.956 185.808C377.388 185.808 377.934 185.82 378.594 185.846C379.279 185.896 379.825 185.922 380.231 185.922C381.069 185.922 381.806 185.668 382.44 185.16C383.101 184.652 383.659 184.094 384.116 183.484C384.573 182.875 384.941 182.316 385.221 181.809C385.5 181.301 385.69 181.047 385.792 181.047L388.344 176.248L370.9 136.791H382.479L391.848 160.709ZM74.7822 263.527C74.7822 262.537 74.6045 261.61 74.249 260.747C73.9189 259.884 73.335 259.084 72.4971 258.348C71.6846 257.586 70.6055 256.9 69.2598 256.291C67.9395 255.656 66.2891 255.072 64.3086 254.539C61.8965 253.879 59.5859 253.054 57.377 252.063C55.1934 251.073 53.2637 249.88 51.5879 248.483C49.9121 247.087 48.5664 245.462 47.5508 243.608C46.5605 241.755 46.0654 239.622 46.0654 237.21C46.0654 234.874 46.5605 232.754 47.5508 230.85C48.541 228.945 49.9121 227.32 51.6641 225.975C53.416 224.629 55.4854 223.601 57.8721 222.89C60.2588 222.153 62.8486 221.785 65.6416 221.785C68.5361 221.785 71.1768 222.204 73.5635 223.042C75.9756 223.88 78.0449 225.061 79.7715 226.584C81.498 228.082 82.8438 229.872 83.8086 231.954C84.7734 234.036 85.2559 236.321 85.2559 238.81H74.8203C74.7695 237.565 74.541 236.423 74.1348 235.382C73.7539 234.341 73.1699 233.452 72.3828 232.716C71.6211 231.954 70.6562 231.37 69.4883 230.964C68.3457 230.532 67 230.316 65.4512 230.316C64.0293 230.316 62.7598 230.494 61.6426 230.85C60.5508 231.18 59.624 231.662 58.8623 232.297C58.1006 232.906 57.5166 233.643 57.1104 234.506C56.7295 235.344 56.5391 236.258 56.5391 237.248C56.5391 238.289 56.793 239.229 57.3008 240.066C57.834 240.904 58.5957 241.666 59.5859 242.352C60.5762 243.012 61.7695 243.621 63.166 244.18C64.5879 244.738 66.1875 245.259 67.9648 245.741C70.5039 246.478 72.8398 247.379 74.9727 248.445C77.1055 249.512 78.9336 250.781 80.457 252.254C82.0059 253.701 83.1992 255.364 84.0371 257.243C84.9004 259.097 85.332 261.166 85.332 263.451C85.332 265.889 84.8369 268.06 83.8467 269.964C82.8818 271.843 81.5361 273.442 79.8096 274.763C78.083 276.058 76.0264 277.048 73.6396 277.733C71.2529 278.394 68.6504 278.724 65.832 278.724C64.0801 278.724 62.3281 278.559 60.5762 278.229C58.8496 277.924 57.1865 277.441 55.5869 276.781C54.0127 276.121 52.54 275.296 51.1689 274.306C49.7979 273.315 48.6045 272.16 47.5889 270.84C46.5986 269.52 45.8115 268.021 45.2275 266.346C44.6689 264.67 44.3896 262.816 44.3896 260.785H54.9014C54.9521 262.461 55.2441 263.896 55.7773 265.089C56.3105 266.282 57.0469 267.26 57.9863 268.021C58.9512 268.783 60.0938 269.342 61.4141 269.697C62.7598 270.053 64.2324 270.23 65.832 270.23C67.2539 270.23 68.5107 270.065 69.6025 269.735C70.7197 269.405 71.6592 268.948 72.4209 268.364C73.1826 267.78 73.7666 267.082 74.1729 266.27C74.5791 265.432 74.7822 264.518 74.7822 263.527ZM119.495 272.211C118.099 274.268 116.41 275.88 114.43 277.048C112.475 278.216 110.329 278.8 107.993 278.8C105.86 278.8 103.905 278.47 102.128 277.81C100.351 277.149 98.8271 276.108 97.5576 274.687C96.2881 273.239 95.2979 271.411 94.5869 269.202C93.9014 266.968 93.5586 264.289 93.5586 261.166V236.791H104.146V261.242C104.146 262.918 104.261 264.327 104.489 265.47C104.743 266.612 105.137 267.539 105.67 268.25C106.203 268.936 106.901 269.431 107.765 269.735C108.628 270.04 109.682 270.192 110.926 270.192C113.033 270.192 114.747 269.799 116.067 269.012C117.388 268.199 118.391 267.095 119.076 265.698V236.791H129.702V278H120.104L119.495 272.211ZM146.65 236.791L146.955 241.78C147.742 240.003 148.821 238.606 150.192 237.591C151.589 236.55 153.277 236.029 155.258 236.029C158.584 236.029 160.755 237.489 161.771 240.409C162.583 239.038 163.611 237.972 164.855 237.21C166.125 236.423 167.648 236.029 169.426 236.029C170.67 236.029 171.825 236.258 172.892 236.715C173.983 237.172 174.923 237.908 175.71 238.924C176.522 239.914 177.145 241.209 177.576 242.809C178.033 244.383 178.262 246.312 178.262 248.598V278H168.626V248.56C168.626 247.772 168.537 247.125 168.359 246.617C168.207 246.109 167.991 245.716 167.712 245.437C167.433 245.132 167.103 244.929 166.722 244.827C166.366 244.7 165.998 244.637 165.617 244.637C164.881 244.637 164.259 244.814 163.751 245.17C163.243 245.5 162.85 245.957 162.57 246.541V278H153.239V248.521C153.239 247.734 153.163 247.087 153.011 246.579C152.858 246.071 152.643 245.678 152.363 245.398C152.109 245.119 151.805 244.929 151.449 244.827C151.094 244.7 150.713 244.637 150.307 244.637C149.494 244.637 148.834 244.865 148.326 245.322C147.844 245.779 147.463 246.389 147.184 247.15V278H137.548V236.791H146.65ZM193.496 236.791L193.801 241.78C194.588 240.003 195.667 238.606 197.038 237.591C198.435 236.55 200.123 236.029 202.104 236.029C205.43 236.029 207.601 237.489 208.616 240.409C209.429 239.038 210.457 237.972 211.701 237.21C212.971 236.423 214.494 236.029 216.271 236.029C217.516 236.029 218.671 236.258 219.737 236.715C220.829 237.172 221.769 237.908 222.556 238.924C223.368 239.914 223.99 241.209 224.422 242.809C224.879 244.383 225.107 246.312 225.107 248.598V278H215.472V248.56C215.472 247.772 215.383 247.125 215.205 246.617C215.053 246.109 214.837 245.716 214.558 245.437C214.278 245.132 213.948 244.929 213.567 244.827C213.212 244.7 212.844 244.637 212.463 244.637C211.727 244.637 211.104 244.814 210.597 245.17C210.089 245.5 209.695 245.957 209.416 246.541V278H200.085V248.521C200.085 247.734 200.009 247.087 199.856 246.579C199.704 246.071 199.488 245.678 199.209 245.398C198.955 245.119 198.65 244.929 198.295 244.827C197.939 244.7 197.559 244.637 197.152 244.637C196.34 244.637 195.68 244.865 195.172 245.322C194.689 245.779 194.309 246.389 194.029 247.15V278H184.394V236.791H193.496ZM236.571 236.791H259.004V269.393H270.163V278H236.571V269.393H248.302V245.437H236.571V236.791ZM247.54 226.241C247.54 225.429 247.68 224.68 247.959 223.994C248.264 223.283 248.683 222.687 249.216 222.204C249.749 221.696 250.384 221.303 251.12 221.023C251.882 220.744 252.72 220.604 253.634 220.604C255.513 220.604 256.998 221.138 258.09 222.204C259.207 223.245 259.766 224.591 259.766 226.241C259.766 227.892 259.207 229.25 258.09 230.316C256.998 231.357 255.513 231.878 253.634 231.878C252.72 231.878 251.882 231.738 251.12 231.459C250.384 231.18 249.749 230.799 249.216 230.316C248.683 229.809 248.264 229.212 247.959 228.526C247.68 227.815 247.54 227.054 247.54 226.241ZM300.022 226.698V236.791H315.409V244.599H300.022V262.309C300.022 263.807 300.188 265.063 300.518 266.079C300.873 267.069 301.368 267.869 302.003 268.479C302.638 269.062 303.399 269.481 304.288 269.735C305.202 269.989 306.218 270.116 307.335 270.116C308.147 270.116 308.973 270.078 309.811 270.002C310.674 269.926 311.486 269.837 312.248 269.735C313.035 269.608 313.759 269.481 314.419 269.354C315.104 269.228 315.688 269.101 316.171 268.974L317.199 276.248C316.463 276.68 315.6 277.061 314.609 277.391C313.619 277.695 312.565 277.949 311.448 278.152C310.331 278.355 309.163 278.508 307.944 278.609C306.751 278.736 305.57 278.8 304.402 278.8C302.143 278.8 300.086 278.508 298.232 277.924C296.404 277.314 294.83 276.388 293.51 275.144C292.215 273.874 291.212 272.274 290.501 270.345C289.79 268.39 289.435 266.054 289.435 263.337V244.599H280.027V236.791H289.435V226.698H300.022Z" fill="black"/>
<path id="W&#206;&#158;LCOM&#206;&#158; T0" d="M50.8535 66.1504L52.2754 53.0938H55.3379L52.7949 73H49.6504L47.4766 59.7656L45.3301 73H42.1992L39.6562 53.0938H42.7188L44.1406 66.082L46.1777 53.0938H48.748L50.8535 66.1504ZM57.6211 70.3613H70.6914V73H57.6211V70.3613ZM58.9199 61.4746H69.3105V64.0586H58.9199V61.4746ZM57.7578 53.0938H70.377V55.7461H57.7578V53.0938ZM78.2656 70.3203H87.7539V73H74.9844V53.0938H78.2656V70.3203ZM104.926 66.8887C104.835 67.8457 104.607 68.7207 104.242 69.5137C103.878 70.2975 103.395 70.972 102.793 71.5371C102.191 72.0931 101.48 72.526 100.66 72.8359C99.849 73.1367 98.9421 73.2871 97.9395 73.2871C96.7272 73.2871 95.6699 73.0547 94.7676 72.5898C93.8652 72.1159 93.1133 71.4779 92.5117 70.6758C91.9102 69.8737 91.459 68.9349 91.1582 67.8594C90.8574 66.7839 90.7025 65.6354 90.6934 64.4141V61.6934C90.7025 60.4811 90.862 59.3372 91.1719 58.2617C91.4818 57.1771 91.9375 56.2337 92.5391 55.4316C93.1497 54.6204 93.9062 53.9824 94.8086 53.5176C95.7109 53.0436 96.7591 52.8066 97.9531 52.8066C99.0013 52.8066 99.9355 52.9616 100.756 53.2715C101.576 53.5814 102.278 54.0189 102.861 54.584C103.445 55.1491 103.91 55.8372 104.256 56.6484C104.602 57.4596 104.826 58.362 104.926 59.3555H101.645C101.59 58.7721 101.476 58.2435 101.303 57.7695C101.139 57.2865 100.911 56.8763 100.619 56.5391C100.327 56.1927 99.9583 55.9284 99.5117 55.7461C99.0742 55.5638 98.5547 55.4727 97.9531 55.4727C97.2148 55.4727 96.5951 55.6413 96.0938 55.9785C95.5924 56.3158 95.1868 56.7715 94.877 57.3457C94.5671 57.9108 94.3438 58.5671 94.207 59.3145C94.0794 60.0618 94.0156 60.8457 94.0156 61.666V64.4141C94.0156 65.2708 94.0794 66.0775 94.207 66.834C94.3438 67.5814 94.5625 68.2376 94.8633 68.8027C95.1641 69.3678 95.5651 69.8145 96.0664 70.1426C96.5677 70.4707 97.1921 70.6348 97.9395 70.6348C99.0879 70.6348 99.9629 70.3112 100.564 69.6641C101.166 69.0078 101.521 68.0827 101.631 66.8887H104.926ZM121.797 64.332C121.797 65.5078 121.646 66.638 121.346 67.7227C121.045 68.7982 120.594 69.7507 119.992 70.5801C119.4 71.4004 118.652 72.0566 117.75 72.5488C116.857 73.0319 115.809 73.2734 114.605 73.2734C113.411 73.2734 112.372 73.0273 111.488 72.5352C110.604 72.043 109.866 71.3867 109.273 70.5664C108.69 69.737 108.248 68.7845 107.947 67.709C107.656 66.6335 107.51 65.5078 107.51 64.332V61.7891C107.51 61.0052 107.574 60.2396 107.701 59.4922C107.838 58.7448 108.034 58.043 108.289 57.3867C108.553 56.7214 108.877 56.1107 109.26 55.5547C109.652 54.9896 110.107 54.5065 110.627 54.1055C111.156 53.7044 111.748 53.39 112.404 53.1621C113.07 52.9342 113.799 52.8203 114.592 52.8203C115.795 52.8203 116.843 53.0664 117.736 53.5586C118.639 54.0508 119.391 54.7116 119.992 55.541C120.594 56.3613 121.045 57.3138 121.346 58.3984C121.646 59.4831 121.797 60.6133 121.797 61.7891V64.332ZM118.502 61.7617C118.493 61.0143 118.424 60.2715 118.297 59.5332C118.169 58.7949 117.955 58.1387 117.654 57.5645C117.354 56.9811 116.952 56.5117 116.451 56.1562C115.959 55.7917 115.339 55.6094 114.592 55.6094C113.854 55.6094 113.238 55.7917 112.746 56.1562C112.263 56.5117 111.876 56.9811 111.584 57.5645C111.301 58.1478 111.101 58.8086 110.982 59.5469C110.873 60.276 110.814 61.0143 110.805 61.7617V64.332C110.814 65.0794 110.878 65.8223 110.996 66.5605C111.115 67.2897 111.315 67.9505 111.598 68.543C111.889 69.1263 112.277 69.6003 112.76 69.9648C113.252 70.3294 113.867 70.5117 114.605 70.5117C115.353 70.5117 115.973 70.3294 116.465 69.9648C116.966 69.6003 117.367 69.1263 117.668 68.543C117.969 67.9596 118.178 67.2988 118.297 66.5605C118.424 65.8223 118.493 65.0794 118.502 64.332V61.7617ZM129.002 53.0938L131.477 61.6934L134.211 53.0938H138.285V73H135.195V66.1641L135.387 57.4414L132.324 66.9844H130.602L127.826 57.7695L128.018 66.1641V73H124.928V53.0938H129.002ZM141.703 70.3613H154.773V73H141.703V70.3613ZM143.002 61.4746H153.393V64.0586H143.002V61.4746ZM141.84 53.0938H154.459V55.7461H141.84V53.0938ZM189.664 55.8008H183.553V73H180.285V55.8008H174.215V53.0938H189.664V55.8008ZM205.25 65.4258C205.25 66.7109 205.1 67.8457 204.799 68.8301C204.507 69.8053 204.083 70.6257 203.527 71.291C202.971 71.9473 202.292 72.444 201.49 72.7812C200.688 73.1185 199.786 73.2871 198.783 73.2871C197.79 73.2871 196.892 73.1185 196.09 72.7812C195.288 72.444 194.604 71.9473 194.039 71.291C193.483 70.6257 193.05 69.8053 192.74 68.8301C192.439 67.8457 192.289 66.7109 192.289 65.4258V60.668C192.289 59.3828 192.439 58.2526 192.74 57.2773C193.041 56.293 193.469 55.4727 194.025 54.8164C194.59 54.151 195.27 53.6497 196.062 53.3125C196.865 52.9753 197.762 52.8066 198.756 52.8066C199.758 52.8066 200.661 52.9753 201.463 53.3125C202.265 53.6497 202.944 54.151 203.5 54.8164C204.065 55.4727 204.498 56.293 204.799 57.2773C205.1 58.2526 205.25 59.3828 205.25 60.668V65.4258ZM195.57 64.1816L201.941 59.4375C201.868 58.0794 201.568 57.0768 201.039 56.4297C200.52 55.7734 199.758 55.4453 198.756 55.4453C197.689 55.4453 196.892 55.8236 196.363 56.5801C195.835 57.3366 195.57 58.4987 195.57 60.0664V64.1816ZM201.969 62.0078L195.598 66.752C195.762 69.3587 196.824 70.6621 198.783 70.6621C200.907 70.6621 201.969 69.1081 201.969 66V62.0078Z" fill="black"/>
</g>
</g>
<defs>
<linearGradient id="paint0_linear" x1="826.519" y1="973.707" x2="826.519" y2="815.768" gradientUnits="userSpaceOnUse">
<stop stop-color="#333334"/>
<stop offset="1" stop-color="#989898"/>
</linearGradient>
<linearGradient id="paint1_linear" x1="1098" y1="973.707" x2="1098" y2="815.768" gradientUnits="userSpaceOnUse">
<stop stop-color="#DCDCDC"/>
<stop offset="1" stop-color="#989898"/>
</linearGradient>
<linearGradient id="paint2_linear" x1="1179.19" y1="766.293" x2="1017.44" y2="766.927" gradientUnits="userSpaceOnUse">
<stop stop-color="#FCE96A"/>
<stop offset="1" stop-color="#4A4A48"/>
</linearGradient>
<linearGradient id="paint3_linear" x1="1043.45" y1="302.624" x2="912.149" y2="362.882" gradientUnits="userSpaceOnUse">
<stop stop-color="#5C5C5E"/>
<stop offset="1" stop-color="#FCE96A"/>
</linearGradient>
<linearGradient id="paint4_linear" x1="826.519" y1="689.543" x2="826.519" y2="531.604" gradientUnits="userSpaceOnUse">
<stop stop-color="#CECED1"/>
<stop offset="1" stop-color="#FCE96A"/>
</linearGradient>
</defs>
</svg>
