<svg width="411" height="731" viewBox="0 0 411 731" fill="none" xmlns="http://www.w3.org/2000/svg">
<g id="MOBILE-solidity.interspace.chat">
<g clip-path="url(#clip0)">
<rect width="411" height="731" fill="#E6E7EC"/>
<g id="footer">
<rect id="background" x="-1" y="687" width="412" height="44" fill="#5C5C5E"/>
<g id="credits">
<rect id="Rectangle 5" x="252" y="704" width="58" height="13" fill="#5C5C5E"/>
<g id="CREDITS">
<path d="M259.81 710.944C259.764 711.423 259.65 711.86 259.468 712.257C259.285 712.649 259.044 712.986 258.743 713.269C258.442 713.547 258.087 713.763 257.677 713.918C257.271 714.068 256.818 714.144 256.316 714.144C255.71 714.144 255.182 714.027 254.73 713.795C254.279 713.558 253.903 713.239 253.603 712.838C253.302 712.437 253.076 711.967 252.926 711.43C252.775 710.892 252.698 710.318 252.693 709.707V708.347C252.698 707.741 252.778 707.169 252.933 706.631C253.088 706.089 253.315 705.617 253.616 705.216C253.922 704.81 254.3 704.491 254.751 704.259C255.202 704.022 255.726 703.903 256.323 703.903C256.847 703.903 257.314 703.981 257.725 704.136C258.135 704.291 258.486 704.509 258.777 704.792C259.069 705.075 259.301 705.419 259.475 705.824C259.648 706.23 259.759 706.681 259.81 707.178H258.169C258.142 706.886 258.085 706.622 257.998 706.385C257.916 706.143 257.802 705.938 257.656 705.77C257.51 705.596 257.326 705.464 257.103 705.373C256.884 705.282 256.624 705.236 256.323 705.236C255.954 705.236 255.644 705.321 255.394 705.489C255.143 705.658 254.94 705.886 254.785 706.173C254.63 706.455 254.519 706.784 254.45 707.157C254.386 707.531 254.354 707.923 254.354 708.333V709.707C254.354 710.135 254.386 710.539 254.45 710.917C254.519 711.291 254.628 711.619 254.778 711.901C254.929 712.184 255.129 712.407 255.38 712.571C255.631 712.735 255.943 712.817 256.316 712.817C256.891 712.817 257.328 712.656 257.629 712.332C257.93 712.004 258.107 711.541 258.162 710.944H259.81ZM264.834 710.117H263.166V714H261.525V704.047H264.67C265.18 704.051 265.65 704.118 266.078 704.245C266.511 704.368 266.885 704.555 267.199 704.806C267.514 705.052 267.757 705.362 267.931 705.735C268.104 706.109 268.19 706.547 268.19 707.048C268.19 707.385 268.145 707.693 268.054 707.971C267.967 708.244 267.844 708.493 267.685 708.716C267.525 708.939 267.334 709.135 267.11 709.304C266.887 709.472 266.641 709.616 266.372 709.734L268.478 713.918V714H266.728L264.834 710.117ZM263.166 708.791H264.677C264.95 708.791 265.201 708.752 265.429 708.675C265.657 708.597 265.853 708.488 266.017 708.347C266.185 708.201 266.315 708.025 266.406 707.82C266.497 707.611 266.543 707.371 266.543 707.103C266.543 706.825 266.5 706.578 266.413 706.364C266.326 706.15 266.201 705.97 266.037 705.824C265.878 705.678 265.682 705.569 265.449 705.496C265.217 705.419 264.957 705.378 264.67 705.373H263.166V708.791ZM275.737 709.536H271.643V712.66H276.435V714H269.995V704.047H276.387V705.4H271.643V708.21H275.737V709.536ZM278.232 714V704.047H280.666C281.35 704.051 281.963 704.165 282.505 704.389C283.052 704.612 283.514 704.926 283.893 705.332C284.275 705.738 284.569 706.223 284.774 706.788C284.979 707.349 285.084 707.971 285.089 708.654V709.406C285.084 710.09 284.979 710.714 284.774 711.279C284.569 711.84 284.278 712.323 283.899 712.729C283.521 713.13 283.063 713.442 282.525 713.665C281.988 713.888 281.384 714 280.714 714H278.232ZM279.9 705.373V712.681H280.714C281.165 712.676 281.559 712.596 281.896 712.441C282.234 712.282 282.514 712.061 282.737 711.778C282.965 711.491 283.134 711.147 283.243 710.746C283.357 710.345 283.416 709.898 283.421 709.406V708.641C283.416 708.162 283.357 707.725 283.243 707.328C283.134 706.932 282.965 706.59 282.737 706.303C282.509 706.011 282.222 705.785 281.876 705.626C281.534 705.462 281.131 705.378 280.666 705.373H279.9ZM286.941 704.047H292.861V705.407H290.708V712.646H292.861V714H286.941V712.646H289.047V705.407H286.941V704.047ZM302.179 705.4H299.123V714H297.489V705.4H294.454V704.047H302.179V705.4ZM308.707 711.437C308.707 711.2 308.657 710.992 308.557 710.814C308.461 710.632 308.322 710.473 308.14 710.336C307.962 710.199 307.748 710.081 307.497 709.98C307.251 709.876 306.982 709.78 306.69 709.693C306.299 709.579 305.911 709.438 305.528 709.27C305.15 709.101 304.811 708.896 304.51 708.654C304.214 708.408 303.972 708.123 303.785 707.8C303.603 707.472 303.512 707.093 303.512 706.665C303.512 706.237 303.603 705.854 303.785 705.517C303.972 705.175 304.22 704.885 304.53 704.648C304.84 704.411 305.2 704.229 305.61 704.102C306.021 703.974 306.449 703.91 306.896 703.91C307.374 703.91 307.821 703.985 308.235 704.136C308.655 704.282 309.019 704.489 309.329 704.758C309.644 705.022 309.892 705.341 310.074 705.715C310.257 706.084 310.35 706.494 310.354 706.945H308.714C308.691 706.695 308.636 706.467 308.55 706.262C308.468 706.052 308.349 705.872 308.194 705.722C308.044 705.571 307.859 705.455 307.641 705.373C307.422 705.291 307.169 705.25 306.882 705.25C306.636 705.25 306.408 705.282 306.198 705.346C305.989 705.41 305.806 705.503 305.651 705.626C305.501 705.749 305.382 705.897 305.296 706.07C305.209 706.243 305.166 706.439 305.166 706.658C305.166 706.891 305.225 707.093 305.344 707.267C305.462 707.435 305.617 707.583 305.809 707.711C306 707.839 306.219 707.95 306.465 708.046C306.715 708.137 306.975 708.221 307.244 708.299C307.659 708.422 308.055 708.575 308.434 708.757C308.812 708.935 309.145 709.151 309.432 709.406C309.719 709.657 309.947 709.949 310.115 710.281C310.284 710.614 310.368 710.994 310.368 711.423C310.368 711.865 310.275 712.255 310.088 712.592C309.901 712.929 309.65 713.212 309.336 713.439C309.021 713.667 308.657 713.84 308.242 713.959C307.827 714.073 307.395 714.13 306.943 714.13C306.638 714.13 306.335 714.1 306.034 714.041C305.733 713.982 305.444 713.893 305.166 713.774C304.893 713.656 304.637 713.51 304.4 713.337C304.163 713.159 303.956 712.956 303.778 712.729C303.605 712.496 303.468 712.239 303.368 711.956C303.268 711.669 303.215 711.354 303.211 711.013H304.858C304.881 711.313 304.947 711.576 305.057 711.799C305.166 712.022 305.312 712.209 305.494 712.359C305.676 712.505 305.888 712.617 306.13 712.694C306.376 712.767 306.647 712.804 306.943 712.804C307.189 712.804 307.42 712.774 307.634 712.715C307.848 712.656 308.035 712.569 308.194 712.455C308.354 712.337 308.479 712.193 308.57 712.024C308.661 711.851 308.707 711.655 308.707 711.437Z" fill="#FCE96A"/>
<path d="M252.071 715.367H310.922V716.051H252.071V715.367Z" fill="#FCE96A"/>
</g>
</g>
<g id="help">
<rect id="Rectangle 4" x="185" y="704" width="35" height="13" fill="#5C5C5E"/>
<g id="HELP">
<path d="M192.648 714H191.049V709.557H187.665V714H186.072V704.047H187.665V708.21H191.049V704.047H192.648V714ZM200.441 709.536H196.347V712.66H201.139V714H194.699V704.047H201.091V705.4H196.347V708.21H200.441V709.536ZM204.816 712.66H209.561V714H203.176V704.047H204.816V712.66ZM213.19 710.186V714H211.55V704.047H214.879C215.376 704.051 215.834 704.127 216.253 704.272C216.677 704.414 217.041 704.619 217.347 704.888C217.652 705.152 217.889 705.476 218.058 705.858C218.231 706.237 218.317 706.665 218.317 707.144C218.317 707.608 218.231 708.028 218.058 708.401C217.889 708.775 217.652 709.094 217.347 709.358C217.041 709.623 216.677 709.826 216.253 709.967C215.834 710.108 215.376 710.181 214.879 710.186H213.19ZM213.19 708.859H214.879C215.157 708.859 215.405 708.818 215.624 708.736C215.843 708.65 216.03 708.531 216.185 708.381C216.34 708.23 216.458 708.05 216.54 707.841C216.622 707.631 216.663 707.403 216.663 707.157C216.663 706.897 216.622 706.658 216.54 706.439C216.458 706.221 216.34 706.034 216.185 705.879C216.03 705.719 215.843 705.596 215.624 705.51C215.405 705.423 215.157 705.378 214.879 705.373H213.19V708.859Z" fill="#FCE96A"/>
<path d="M185.184 715.367H218.81V716.051H185.184V715.367Z" fill="#FCE96A"/>
</g>
</g>
<g id="about">
<rect id="Rectangle 3" x="111" y="704" width="43" height="13" fill="#5C5C5E"/>
<g id="ABOUT">
<path d="M117.324 711.689H114.214L113.53 714H111.835L115.068 704.047H116.511L119.683 714H117.994L117.324 711.689ZM114.631 710.288H116.914L115.786 706.385L114.631 710.288ZM120.899 714V704.047H124.078C124.557 704.051 125.003 704.106 125.418 704.211C125.837 704.316 126.202 704.478 126.512 704.696C126.826 704.915 127.072 705.195 127.25 705.537C127.428 705.874 127.514 706.275 127.51 706.74C127.505 707.232 127.368 707.654 127.1 708.005C126.831 708.351 126.468 708.62 126.013 708.812C126.291 708.889 126.537 709.001 126.751 709.146C126.97 709.288 127.152 709.459 127.298 709.659C127.444 709.86 127.555 710.083 127.633 710.329C127.71 710.571 127.749 710.828 127.749 711.102C127.749 711.576 127.662 711.993 127.489 712.353C127.316 712.713 127.075 713.013 126.765 713.255C126.459 713.496 126.095 713.681 125.671 713.809C125.252 713.932 124.798 713.995 124.311 714H120.899ZM122.547 709.488V712.66H124.338C124.598 712.656 124.835 712.617 125.049 712.544C125.263 712.466 125.448 712.362 125.603 712.229C125.757 712.097 125.878 711.936 125.965 711.744C126.056 711.553 126.102 711.339 126.102 711.102C126.102 710.851 126.063 710.628 125.985 710.432C125.908 710.231 125.796 710.062 125.65 709.926C125.505 709.789 125.327 709.684 125.117 709.611C124.908 709.534 124.673 709.493 124.413 709.488H122.547ZM122.547 708.237H124.119C124.365 708.233 124.593 708.201 124.803 708.142C125.017 708.078 125.201 707.987 125.356 707.868C125.511 707.745 125.634 707.597 125.726 707.424C125.817 707.246 125.862 707.043 125.862 706.815C125.862 706.565 125.819 706.351 125.732 706.173C125.646 705.995 125.523 705.849 125.363 705.735C125.208 705.621 125.024 705.539 124.81 705.489C124.595 705.435 124.361 705.405 124.105 705.4H122.547V708.237ZM136.062 709.666C136.062 710.254 135.986 710.819 135.836 711.361C135.686 711.899 135.46 712.375 135.159 712.79C134.863 713.2 134.489 713.528 134.038 713.774C133.591 714.016 133.067 714.137 132.466 714.137C131.869 714.137 131.349 714.014 130.907 713.768C130.465 713.521 130.096 713.193 129.8 712.783C129.508 712.368 129.287 711.892 129.137 711.354C128.991 710.817 128.918 710.254 128.918 709.666V708.395C128.918 708.003 128.95 707.62 129.014 707.246C129.082 706.872 129.18 706.521 129.308 706.193C129.44 705.861 129.602 705.555 129.793 705.277C129.989 704.995 130.217 704.753 130.477 704.553C130.741 704.352 131.037 704.195 131.365 704.081C131.698 703.967 132.062 703.91 132.459 703.91C133.061 703.91 133.585 704.033 134.031 704.279C134.482 704.525 134.858 704.856 135.159 705.271C135.46 705.681 135.686 706.157 135.836 706.699C135.986 707.242 136.062 707.807 136.062 708.395V709.666ZM134.414 708.381C134.41 708.007 134.375 707.636 134.312 707.267C134.248 706.897 134.141 706.569 133.99 706.282C133.84 705.991 133.639 705.756 133.389 705.578C133.143 705.396 132.833 705.305 132.459 705.305C132.09 705.305 131.782 705.396 131.536 705.578C131.295 705.756 131.101 705.991 130.955 706.282C130.814 706.574 130.714 706.904 130.654 707.273C130.6 707.638 130.57 708.007 130.565 708.381V709.666C130.57 710.04 130.602 710.411 130.661 710.78C130.72 711.145 130.821 711.475 130.962 711.771C131.108 712.063 131.301 712.3 131.543 712.482C131.789 712.665 132.097 712.756 132.466 712.756C132.84 712.756 133.149 712.665 133.396 712.482C133.646 712.3 133.847 712.063 133.997 711.771C134.147 711.48 134.252 711.149 134.312 710.78C134.375 710.411 134.41 710.04 134.414 709.666V708.381ZM144.196 704.047L144.21 710.712C144.205 711.222 144.123 711.689 143.964 712.113C143.804 712.533 143.581 712.893 143.294 713.193C143.007 713.494 142.658 713.727 142.248 713.891C141.842 714.055 141.387 714.137 140.881 714.137C140.389 714.137 139.942 714.055 139.541 713.891C139.14 713.727 138.796 713.496 138.509 713.2C138.222 712.899 137.998 712.539 137.839 712.12C137.679 711.696 137.597 711.227 137.593 710.712L137.606 704.047H139.22L139.233 710.712C139.238 711.017 139.277 711.298 139.35 711.553C139.423 711.808 139.527 712.029 139.664 712.216C139.801 712.398 139.969 712.542 140.17 712.646C140.375 712.747 140.612 712.797 140.881 712.797C141.154 712.797 141.396 712.747 141.605 712.646C141.815 712.542 141.991 712.398 142.132 712.216C142.273 712.029 142.38 711.808 142.453 711.553C142.526 711.298 142.565 711.017 142.569 710.712L142.583 704.047H144.196ZM153.179 705.4H150.123V714H148.489V705.4H145.454V704.047H153.179V705.4Z" fill="#FCE96A"/>
<path d="M111.479 715.367H153.514V716.051H111.479V715.367Z" fill="#FCE96A"/>
</g>
</g>
</g>
<path id="empty" d="M208 314H109L158.5 227L208 314Z" fill="#19191A"/>
<path id="CR&#206;&#158;AT&#206;&#158; BR&#206;&#158;AKOUT R00M" d="M66.0859 511.071C66.0273 511.687 65.8809 512.249 65.6465 512.759C65.4121 513.263 65.1016 513.696 64.7148 514.06C64.3281 514.417 63.8711 514.695 63.3438 514.895C62.8223 515.088 62.2393 515.185 61.5947 515.185C60.8154 515.185 60.1357 515.035 59.5557 514.736C58.9756 514.432 58.4922 514.021 58.1055 513.506C57.7188 512.99 57.4287 512.387 57.2354 511.695C57.042 511.004 56.9424 510.266 56.9365 509.48V507.731C56.9424 506.952 57.0449 506.217 57.2441 505.525C57.4434 504.828 57.7363 504.222 58.123 503.706C58.5156 503.185 59.002 502.774 59.582 502.476C60.1621 502.171 60.8359 502.019 61.6035 502.019C62.2773 502.019 62.8779 502.118 63.4053 502.317C63.9326 502.517 64.3838 502.798 64.7588 503.161C65.1338 503.524 65.4326 503.967 65.6553 504.488C65.8779 505.01 66.0215 505.59 66.0859 506.229H63.9766C63.9414 505.854 63.8682 505.514 63.7568 505.209C63.6514 504.898 63.5049 504.635 63.3174 504.418C63.1299 504.195 62.8926 504.025 62.6055 503.908C62.3242 503.791 61.9902 503.732 61.6035 503.732C61.1289 503.732 60.7305 503.841 60.4082 504.058C60.0859 504.274 59.8252 504.567 59.626 504.937C59.4268 505.3 59.2832 505.722 59.1953 506.202C59.1133 506.683 59.0723 507.187 59.0723 507.714V509.48C59.0723 510.031 59.1133 510.55 59.1953 511.036C59.2832 511.517 59.4238 511.938 59.6172 512.302C59.8105 512.665 60.0684 512.952 60.3906 513.163C60.7129 513.374 61.1143 513.479 61.5947 513.479C62.333 513.479 62.8955 513.271 63.2822 512.855C63.6689 512.434 63.8975 511.839 63.9678 511.071H66.0859ZM72.5459 510.008H70.4014V515H68.292V502.203H72.335C72.9912 502.209 73.5947 502.294 74.1455 502.458C74.7021 502.616 75.1826 502.856 75.5869 503.179C75.9912 503.495 76.3047 503.894 76.5273 504.374C76.75 504.854 76.8613 505.417 76.8613 506.062C76.8613 506.495 76.8027 506.891 76.6855 507.248C76.5742 507.6 76.416 507.919 76.2109 508.206C76.0059 508.493 75.7598 508.745 75.4727 508.962C75.1855 509.179 74.8691 509.363 74.5234 509.516L77.2305 514.895V515H74.9805L72.5459 510.008ZM70.4014 508.303H72.3438C72.6953 508.303 73.0176 508.253 73.3105 508.153C73.6035 508.054 73.8555 507.913 74.0664 507.731C74.2832 507.544 74.4502 507.318 74.5674 507.055C74.6846 506.785 74.7432 506.478 74.7432 506.132C74.7432 505.774 74.6875 505.458 74.5762 505.183C74.4648 504.907 74.3037 504.676 74.0928 504.488C73.8877 504.301 73.6357 504.16 73.3369 504.066C73.0381 503.967 72.7041 503.914 72.335 503.908H70.4014V508.303ZM78.918 513.304H87.3203V515H78.918V513.304ZM79.7529 507.591H86.4326V509.252H79.7529V507.591ZM79.0059 502.203H87.1182V503.908H79.0059V502.203ZM96.083 512.029H92.084L91.2051 515H89.0254L93.1826 502.203H95.0371L99.1152 515H96.9443L96.083 512.029ZM92.6201 510.228H95.5557L94.1055 505.209L92.6201 510.228ZM109.75 503.943H105.821V515H103.721V503.943H99.8184V502.203H109.75V503.943ZM111.35 513.304H119.752V515H111.35V513.304ZM112.185 507.591H118.864V509.252H112.185V507.591ZM111.438 502.203H119.55V503.908H111.438V502.203ZM35.8164 541V528.203H39.9033C40.5186 528.209 41.0928 528.279 41.626 528.414C42.165 528.549 42.6338 528.757 43.0322 529.038C43.4365 529.319 43.7529 529.68 43.9814 530.119C44.21 530.553 44.3213 531.068 44.3154 531.666C44.3096 532.299 44.1338 532.841 43.7881 533.292C43.4424 533.737 42.9766 534.083 42.3906 534.329C42.748 534.429 43.0645 534.572 43.3398 534.76C43.6211 534.941 43.8555 535.161 44.043 535.419C44.2305 535.677 44.374 535.964 44.4736 536.28C44.5732 536.591 44.623 536.922 44.623 537.273C44.623 537.883 44.5117 538.419 44.2891 538.882C44.0664 539.345 43.7559 539.731 43.3574 540.042C42.9648 540.353 42.4961 540.59 41.9512 540.754C41.4121 540.912 40.8291 540.994 40.2021 541H35.8164ZM37.9346 535.199V539.277H40.2373C40.5713 539.271 40.876 539.222 41.1514 539.128C41.4268 539.028 41.6641 538.894 41.8633 538.724C42.0625 538.554 42.2178 538.346 42.3291 538.1C42.4463 537.854 42.5049 537.578 42.5049 537.273C42.5049 536.951 42.4551 536.664 42.3555 536.412C42.2559 536.154 42.1123 535.938 41.9248 535.762C41.7373 535.586 41.5088 535.451 41.2393 535.357C40.9697 535.258 40.668 535.205 40.334 535.199H37.9346ZM37.9346 533.591H39.9561C40.2725 533.585 40.5654 533.544 40.835 533.468C41.1104 533.386 41.3477 533.269 41.5469 533.116C41.7461 532.958 41.9043 532.768 42.0215 532.545C42.1387 532.316 42.1973 532.056 42.1973 531.763C42.1973 531.44 42.1416 531.165 42.0303 530.937C41.9189 530.708 41.7607 530.521 41.5557 530.374C41.3564 530.228 41.1191 530.122 40.8438 530.058C40.5684 529.987 40.2666 529.949 39.9385 529.943H37.9346V533.591ZM50.9248 536.008H48.7803V541H46.6709V528.203H50.7139C51.3701 528.209 51.9736 528.294 52.5244 528.458C53.0811 528.616 53.5615 528.856 53.9658 529.179C54.3701 529.495 54.6836 529.894 54.9062 530.374C55.1289 530.854 55.2402 531.417 55.2402 532.062C55.2402 532.495 55.1816 532.891 55.0645 533.248C54.9531 533.6 54.7949 533.919 54.5898 534.206C54.3848 534.493 54.1387 534.745 53.8516 534.962C53.5645 535.179 53.248 535.363 52.9023 535.516L55.6094 540.895V541H53.3594L50.9248 536.008ZM48.7803 534.303H50.7227C51.0742 534.303 51.3965 534.253 51.6895 534.153C51.9824 534.054 52.2344 533.913 52.4453 533.731C52.6621 533.544 52.8291 533.318 52.9463 533.055C53.0635 532.785 53.1221 532.478 53.1221 532.132C53.1221 531.774 53.0664 531.458 52.9551 531.183C52.8438 530.907 52.6826 530.676 52.4717 530.488C52.2666 530.301 52.0146 530.16 51.7158 530.066C51.417 529.967 51.083 529.914 50.7139 529.908H48.7803V534.303ZM57.2969 539.304H65.6992V541H57.2969V539.304ZM58.1318 533.591H64.8115V535.252H58.1318V533.591ZM57.3848 528.203H65.4971V529.908H57.3848V528.203ZM74.4619 538.029H70.4629L69.584 541H67.4043L71.5615 528.203H73.416L77.4941 541H75.3232L74.4619 538.029ZM70.999 536.228H73.9346L72.4844 531.209L70.999 536.228ZM82.5566 535.437L81.1855 536.975V541H79.0498V528.203H81.1855V534.197L82.3545 532.677L85.7207 528.203H88.2959L83.9453 533.819L88.5156 541H85.9844L82.5566 535.437ZM98.5527 535.428C98.5527 536.184 98.4561 536.91 98.2627 537.607C98.0693 538.299 97.7793 538.911 97.3926 539.444C97.0117 539.972 96.5312 540.394 95.9512 540.71C95.377 541.021 94.7031 541.176 93.9297 541.176C93.1621 541.176 92.4941 541.018 91.9258 540.701C91.3574 540.385 90.8828 539.963 90.502 539.436C90.127 538.902 89.8428 538.29 89.6494 537.599C89.4619 536.907 89.3682 536.184 89.3682 535.428V533.793C89.3682 533.289 89.4092 532.797 89.4912 532.316C89.5791 531.836 89.7051 531.385 89.8691 530.963C90.0391 530.535 90.2471 530.143 90.4932 529.785C90.7451 529.422 91.0381 529.111 91.3721 528.854C91.7119 528.596 92.0928 528.394 92.5146 528.247C92.9424 528.101 93.4111 528.027 93.9209 528.027C94.6943 528.027 95.3682 528.186 95.9424 528.502C96.5225 528.818 97.0059 529.243 97.3926 529.776C97.7793 530.304 98.0693 530.916 98.2627 531.613C98.4561 532.311 98.5527 533.037 98.5527 533.793V535.428ZM96.4346 533.775C96.4287 533.295 96.3848 532.817 96.3027 532.343C96.2207 531.868 96.083 531.446 95.8896 531.077C95.6963 530.702 95.4385 530.4 95.1162 530.172C94.7998 529.938 94.4014 529.82 93.9209 529.82C93.4463 529.82 93.0508 529.938 92.7344 530.172C92.4238 530.4 92.1748 530.702 91.9873 531.077C91.8057 531.452 91.6768 531.877 91.6006 532.352C91.5303 532.82 91.4922 533.295 91.4863 533.775V535.428C91.4922 535.908 91.5332 536.386 91.6094 536.86C91.6855 537.329 91.8145 537.754 91.9961 538.135C92.1836 538.51 92.4326 538.814 92.7432 539.049C93.0596 539.283 93.4551 539.4 93.9297 539.4C94.4102 539.4 94.8086 539.283 95.125 539.049C95.4473 538.814 95.7051 538.51 95.8984 538.135C96.0918 537.76 96.2266 537.335 96.3027 536.86C96.3848 536.386 96.4287 535.908 96.4346 535.428V533.775ZM109.012 528.203L109.029 536.772C109.023 537.429 108.918 538.029 108.713 538.574C108.508 539.113 108.221 539.576 107.852 539.963C107.482 540.35 107.034 540.648 106.507 540.859C105.985 541.07 105.399 541.176 104.749 541.176C104.116 541.176 103.542 541.07 103.026 540.859C102.511 540.648 102.068 540.353 101.699 539.972C101.33 539.585 101.043 539.122 100.838 538.583C100.633 538.038 100.527 537.435 100.521 536.772L100.539 528.203H102.613L102.631 536.772C102.637 537.165 102.687 537.525 102.78 537.854C102.874 538.182 103.009 538.466 103.185 538.706C103.36 538.94 103.577 539.125 103.835 539.26C104.099 539.389 104.403 539.453 104.749 539.453C105.101 539.453 105.411 539.389 105.681 539.26C105.95 539.125 106.176 538.94 106.357 538.706C106.539 538.466 106.677 538.182 106.771 537.854C106.864 537.525 106.914 537.165 106.92 536.772L106.938 528.203H109.012ZM120.561 529.943H116.632V541H114.531V529.943H110.629V528.203H120.561V529.943ZM83.3564 562.008H81.2119V567H79.1025V554.203H83.1455C83.8018 554.209 84.4053 554.294 84.9561 554.458C85.5127 554.616 85.9932 554.856 86.3975 555.179C86.8018 555.495 87.1152 555.894 87.3379 556.374C87.5605 556.854 87.6719 557.417 87.6719 558.062C87.6719 558.495 87.6133 558.891 87.4961 559.248C87.3848 559.6 87.2266 559.919 87.0215 560.206C86.8164 560.493 86.5703 560.745 86.2832 560.962C85.9961 561.179 85.6797 561.363 85.334 561.516L88.041 566.895V567H85.791L83.3564 562.008ZM81.2119 560.303H83.1543C83.5059 560.303 83.8281 560.253 84.1211 560.153C84.4141 560.054 84.666 559.913 84.877 559.731C85.0938 559.544 85.2607 559.318 85.3779 559.055C85.4951 558.785 85.5537 558.478 85.5537 558.132C85.5537 557.774 85.498 557.458 85.3867 557.183C85.2754 556.907 85.1143 556.676 84.9033 556.488C84.6982 556.301 84.4463 556.16 84.1475 556.066C83.8486 555.967 83.5146 555.914 83.1455 555.908H81.2119V560.303ZM98.1484 562.131C98.1484 562.957 98.0518 563.687 97.8584 564.319C97.6709 564.946 97.3984 565.474 97.041 565.901C96.6836 566.323 96.2471 566.643 95.7314 566.859C95.2158 567.076 94.6357 567.185 93.9912 567.185C93.3525 567.185 92.7754 567.076 92.2598 566.859C91.7441 566.643 91.3047 566.323 90.9414 565.901C90.584 565.474 90.3057 564.946 90.1064 564.319C89.9131 563.687 89.8164 562.957 89.8164 562.131V559.072C89.8164 558.246 89.9131 557.52 90.1064 556.893C90.2998 556.26 90.5752 555.732 90.9326 555.311C91.2959 554.883 91.7324 554.561 92.2422 554.344C92.7578 554.127 93.335 554.019 93.9736 554.019C94.6182 554.019 95.1982 554.127 95.7139 554.344C96.2295 554.561 96.666 554.883 97.0234 555.311C97.3867 555.732 97.665 556.26 97.8584 556.893C98.0518 557.52 98.1484 558.246 98.1484 559.072V562.131ZM91.9258 561.331L96.0215 558.281C95.9746 557.408 95.7812 556.764 95.4414 556.348C95.1074 555.926 94.6182 555.715 93.9736 555.715C93.2881 555.715 92.7754 555.958 92.4355 556.444C92.0957 556.931 91.9258 557.678 91.9258 558.686V561.331ZM96.0391 559.934L91.9434 562.983C92.0488 564.659 92.7314 565.497 93.9912 565.497C95.3564 565.497 96.0391 564.498 96.0391 562.5V559.934ZM108.959 562.131C108.959 562.957 108.862 563.687 108.669 564.319C108.481 564.946 108.209 565.474 107.852 565.901C107.494 566.323 107.058 566.643 106.542 566.859C106.026 567.076 105.446 567.185 104.802 567.185C104.163 567.185 103.586 567.076 103.07 566.859C102.555 566.643 102.115 566.323 101.752 565.901C101.395 565.474 101.116 564.946 100.917 564.319C100.724 563.687 100.627 562.957 100.627 562.131V559.072C100.627 558.246 100.724 557.52 100.917 556.893C101.11 556.26 101.386 555.732 101.743 555.311C102.106 554.883 102.543 554.561 103.053 554.344C103.568 554.127 104.146 554.019 104.784 554.019C105.429 554.019 106.009 554.127 106.524 554.344C107.04 554.561 107.477 554.883 107.834 555.311C108.197 555.732 108.476 556.26 108.669 556.893C108.862 557.52 108.959 558.246 108.959 559.072V562.131ZM102.736 561.331L106.832 558.281C106.785 557.408 106.592 556.764 106.252 556.348C105.918 555.926 105.429 555.715 104.784 555.715C104.099 555.715 103.586 555.958 103.246 556.444C102.906 556.931 102.736 557.678 102.736 558.686V561.331ZM106.85 559.934L102.754 562.983C102.859 564.659 103.542 565.497 104.802 565.497C106.167 565.497 106.85 564.498 106.85 562.5V559.934ZM113.995 554.203L115.586 559.731L117.344 554.203H119.963V567H117.977V562.605L118.1 556.998L116.131 563.133H115.023L113.239 557.209L113.362 562.605V567H111.376V554.203H113.995Z" fill="black"/>
<path id="CHAT" d="M191.328 584.071C191.27 584.687 191.123 585.249 190.889 585.759C190.654 586.263 190.344 586.696 189.957 587.06C189.57 587.417 189.113 587.695 188.586 587.895C188.064 588.088 187.481 588.185 186.837 588.185C186.058 588.185 185.378 588.035 184.798 587.736C184.218 587.432 183.734 587.021 183.348 586.506C182.961 585.99 182.671 585.387 182.478 584.695C182.284 584.004 182.185 583.266 182.179 582.48V580.731C182.185 579.952 182.287 579.217 182.486 578.525C182.686 577.828 182.979 577.222 183.365 576.706C183.758 576.185 184.244 575.774 184.824 575.476C185.404 575.171 186.078 575.019 186.846 575.019C187.52 575.019 188.12 575.118 188.647 575.317C189.175 575.517 189.626 575.798 190.001 576.161C190.376 576.524 190.675 576.967 190.897 577.488C191.12 578.01 191.264 578.59 191.328 579.229H189.219C189.184 578.854 189.11 578.514 188.999 578.209C188.894 577.898 188.747 577.635 188.56 577.418C188.372 577.195 188.135 577.025 187.848 576.908C187.566 576.791 187.232 576.732 186.846 576.732C186.371 576.732 185.973 576.841 185.65 577.058C185.328 577.274 185.067 577.567 184.868 577.937C184.669 578.3 184.525 578.722 184.438 579.202C184.355 579.683 184.314 580.187 184.314 580.714V582.48C184.314 583.031 184.355 583.55 184.438 584.036C184.525 584.517 184.666 584.938 184.859 585.302C185.053 585.665 185.311 585.952 185.633 586.163C185.955 586.374 186.356 586.479 186.837 586.479C187.575 586.479 188.138 586.271 188.524 585.855C188.911 585.434 189.14 584.839 189.21 584.071H191.328ZM201.787 588H199.73V582.287H195.38V588H193.332V575.203H195.38V580.556H199.73V575.203H201.787V588ZM210.515 585.029H206.516L205.637 588H203.457L207.614 575.203H209.469L213.547 588H211.376L210.515 585.029ZM207.052 583.228H209.987L208.537 578.209L207.052 583.228ZM224.182 576.943H220.253V588H218.152V576.943H214.25V575.203H224.182V576.943Z" fill="black"/>
<path id="CLA1M P0AP" d="M321.949 496.071C321.891 496.687 321.744 497.249 321.51 497.759C321.275 498.263 320.965 498.696 320.578 499.06C320.191 499.417 319.734 499.695 319.207 499.895C318.686 500.088 318.103 500.185 317.458 500.185C316.679 500.185 315.999 500.035 315.419 499.736C314.839 499.432 314.355 499.021 313.969 498.506C313.582 497.99 313.292 497.387 313.099 496.695C312.905 496.004 312.806 495.266 312.8 494.48V492.731C312.806 491.952 312.908 491.217 313.107 490.525C313.307 489.828 313.6 489.222 313.986 488.706C314.379 488.185 314.865 487.774 315.445 487.476C316.025 487.171 316.699 487.019 317.467 487.019C318.141 487.019 318.741 487.118 319.269 487.317C319.796 487.517 320.247 487.798 320.622 488.161C320.997 488.524 321.296 488.967 321.519 489.488C321.741 490.01 321.885 490.59 321.949 491.229H319.84C319.805 490.854 319.731 490.514 319.62 490.209C319.515 489.898 319.368 489.635 319.181 489.418C318.993 489.195 318.756 489.025 318.469 488.908C318.188 488.791 317.854 488.732 317.467 488.732C316.992 488.732 316.594 488.841 316.271 489.058C315.949 489.274 315.688 489.567 315.489 489.937C315.29 490.3 315.146 490.722 315.059 491.202C314.977 491.683 314.936 492.187 314.936 492.714V494.48C314.936 495.031 314.977 495.55 315.059 496.036C315.146 496.517 315.287 496.938 315.48 497.302C315.674 497.665 315.932 497.952 316.254 498.163C316.576 498.374 316.978 498.479 317.458 498.479C318.196 498.479 318.759 498.271 319.146 497.855C319.532 497.434 319.761 496.839 319.831 496.071H321.949ZM326.432 498.277H332.531V500H324.322V487.203H326.432V498.277ZM341.136 497.029H337.137L336.258 500H334.078L338.235 487.203H340.09L344.168 500H341.997L341.136 497.029ZM337.673 495.228H340.608L339.158 490.209L337.673 495.228ZM351.48 500H349.362V489.796L346.093 490.991V489.146L351.349 487.203H351.48V500ZM359.048 487.203L360.639 492.731L362.396 487.203H365.016V500H363.029V495.605L363.152 489.998L361.184 496.133H360.076L358.292 490.209L358.415 495.605V500H356.429V487.203H359.048ZM315.577 521.096V526H313.468V513.203H317.748C318.387 513.209 318.976 513.306 319.515 513.493C320.06 513.675 320.528 513.938 320.921 514.284C321.313 514.624 321.618 515.04 321.835 515.532C322.058 516.019 322.169 516.569 322.169 517.185C322.169 517.782 322.058 518.321 321.835 518.802C321.618 519.282 321.313 519.692 320.921 520.032C320.528 520.372 320.06 520.633 319.515 520.814C318.976 520.996 318.387 521.09 317.748 521.096H315.577ZM315.577 519.391H317.748C318.105 519.391 318.425 519.338 318.706 519.232C318.987 519.121 319.228 518.969 319.427 518.775C319.626 518.582 319.778 518.351 319.884 518.081C319.989 517.812 320.042 517.519 320.042 517.202C320.042 516.868 319.989 516.561 319.884 516.279C319.778 515.998 319.626 515.758 319.427 515.559C319.228 515.354 318.987 515.195 318.706 515.084C318.425 514.973 318.105 514.914 317.748 514.908H315.577V519.391ZM332.391 521.131C332.391 521.957 332.294 522.687 332.101 523.319C331.913 523.946 331.641 524.474 331.283 524.901C330.926 525.323 330.489 525.643 329.974 525.859C329.458 526.076 328.878 526.185 328.233 526.185C327.595 526.185 327.018 526.076 326.502 525.859C325.986 525.643 325.547 525.323 325.184 524.901C324.826 524.474 324.548 523.946 324.349 523.319C324.155 522.687 324.059 521.957 324.059 521.131V518.072C324.059 517.246 324.155 516.52 324.349 515.893C324.542 515.26 324.817 514.732 325.175 514.311C325.538 513.883 325.975 513.561 326.484 513.344C327 513.127 327.577 513.019 328.216 513.019C328.86 513.019 329.44 513.127 329.956 513.344C330.472 513.561 330.908 513.883 331.266 514.311C331.629 514.732 331.907 515.26 332.101 515.893C332.294 516.52 332.391 517.246 332.391 518.072V521.131ZM326.168 520.331L330.264 517.281C330.217 516.408 330.023 515.764 329.684 515.348C329.35 514.926 328.86 514.715 328.216 514.715C327.53 514.715 327.018 514.958 326.678 515.444C326.338 515.931 326.168 516.678 326.168 517.686V520.331ZM330.281 518.934L326.186 521.983C326.291 523.659 326.974 524.497 328.233 524.497C329.599 524.497 330.281 523.498 330.281 521.5V518.934ZM341.136 523.029H337.137L336.258 526H334.078L338.235 513.203H340.09L344.168 526H341.997L341.136 523.029ZM337.673 521.228H340.608L339.158 516.209L337.673 521.228ZM348.009 521.096V526H345.899V513.203H350.18C350.818 513.209 351.407 513.306 351.946 513.493C352.491 513.675 352.96 513.938 353.353 514.284C353.745 514.624 354.05 515.04 354.267 515.532C354.489 516.019 354.601 516.569 354.601 517.185C354.601 517.782 354.489 518.321 354.267 518.802C354.05 519.282 353.745 519.692 353.353 520.032C352.96 520.372 352.491 520.633 351.946 520.814C351.407 520.996 350.818 521.09 350.18 521.096H348.009ZM348.009 519.391H350.18C350.537 519.391 350.856 519.338 351.138 519.232C351.419 519.121 351.659 518.969 351.858 518.775C352.058 518.582 352.21 518.351 352.315 518.081C352.421 517.812 352.474 517.519 352.474 517.202C352.474 516.868 352.421 516.561 352.315 516.279C352.21 515.998 352.058 515.758 351.858 515.559C351.659 515.354 351.419 515.195 351.138 515.084C350.856 514.973 350.537 514.914 350.18 514.908H348.009V519.391Z" fill="black"/>
<path id="L1V&#206;&#158; STR&#206;&#158;AM" d="M314.621 383.277H320.721V385H312.512V372.203H314.621V383.277ZM328.859 385H326.741V374.796L323.472 375.991V374.146L328.728 372.203H328.859V385ZM338 381.792L340.663 372.203H342.966L339.011 385H336.998L333.052 372.203H335.354L338 381.792ZM344.592 383.304H352.994V385H344.592V383.304ZM345.427 377.591H352.106V379.252H345.427V377.591ZM344.68 372.203H352.792V373.908H344.68V372.203ZM318.954 407.704C318.954 407.399 318.89 407.133 318.761 406.904C318.638 406.67 318.459 406.465 318.225 406.289C317.996 406.113 317.721 405.961 317.398 405.832C317.082 405.697 316.736 405.574 316.361 405.463C315.857 405.316 315.359 405.135 314.867 404.918C314.381 404.701 313.944 404.438 313.558 404.127C313.177 403.811 312.866 403.444 312.626 403.028C312.392 402.606 312.274 402.12 312.274 401.569C312.274 401.019 312.392 400.526 312.626 400.093C312.866 399.653 313.186 399.281 313.584 398.977C313.982 398.672 314.445 398.438 314.973 398.273C315.5 398.109 316.051 398.027 316.625 398.027C317.24 398.027 317.814 398.124 318.348 398.317C318.887 398.505 319.355 398.771 319.754 399.117C320.158 399.457 320.478 399.867 320.712 400.348C320.946 400.822 321.066 401.35 321.072 401.93H318.963C318.934 401.607 318.863 401.314 318.752 401.051C318.646 400.781 318.494 400.55 318.295 400.356C318.102 400.163 317.864 400.014 317.583 399.908C317.302 399.803 316.977 399.75 316.607 399.75C316.291 399.75 315.998 399.791 315.729 399.873C315.459 399.955 315.225 400.075 315.025 400.233C314.832 400.392 314.68 400.582 314.568 400.805C314.457 401.027 314.401 401.279 314.401 401.561C314.401 401.859 314.478 402.12 314.63 402.343C314.782 402.56 314.981 402.75 315.228 402.914C315.474 403.078 315.755 403.222 316.071 403.345C316.394 403.462 316.728 403.57 317.073 403.67C317.606 403.828 318.116 404.024 318.603 404.259C319.089 404.487 319.517 404.766 319.886 405.094C320.255 405.416 320.548 405.791 320.765 406.219C320.981 406.646 321.09 407.136 321.09 407.687C321.09 408.255 320.97 408.756 320.729 409.189C320.489 409.623 320.167 409.986 319.763 410.279C319.358 410.572 318.89 410.795 318.356 410.947C317.823 411.094 317.267 411.167 316.687 411.167C316.294 411.167 315.904 411.129 315.518 411.053C315.131 410.977 314.759 410.862 314.401 410.71C314.05 410.558 313.722 410.37 313.417 410.147C313.112 409.919 312.846 409.658 312.617 409.365C312.395 409.066 312.219 408.735 312.09 408.372C311.961 408.003 311.894 407.599 311.888 407.159H314.006C314.035 407.546 314.12 407.883 314.261 408.17C314.401 408.457 314.589 408.697 314.823 408.891C315.058 409.078 315.33 409.222 315.641 409.321C315.957 409.415 316.306 409.462 316.687 409.462C317.003 409.462 317.299 409.424 317.574 409.348C317.85 409.271 318.09 409.16 318.295 409.014C318.5 408.861 318.661 408.677 318.778 408.46C318.896 408.237 318.954 407.985 318.954 407.704ZM332.182 399.943H328.253V411H326.152V399.943H322.25V398.203H332.182V399.943ZM338.22 406.008H336.075V411H333.966V398.203H338.009C338.665 398.209 339.269 398.294 339.819 398.458C340.376 398.616 340.856 398.856 341.261 399.179C341.665 399.495 341.979 399.894 342.201 400.374C342.424 400.854 342.535 401.417 342.535 402.062C342.535 402.495 342.477 402.891 342.359 403.248C342.248 403.6 342.09 403.919 341.885 404.206C341.68 404.493 341.434 404.745 341.146 404.962C340.859 405.179 340.543 405.363 340.197 405.516L342.904 410.895V411H340.654L338.22 406.008ZM336.075 404.303H338.018C338.369 404.303 338.691 404.253 338.984 404.153C339.277 404.054 339.529 403.913 339.74 403.731C339.957 403.544 340.124 403.318 340.241 403.055C340.358 402.785 340.417 402.478 340.417 402.132C340.417 401.774 340.361 401.458 340.25 401.183C340.139 400.907 339.978 400.676 339.767 400.488C339.562 400.301 339.31 400.16 339.011 400.066C338.712 399.967 338.378 399.914 338.009 399.908H336.075V404.303ZM344.592 409.304H352.994V411H344.592V409.304ZM345.427 403.591H352.106V405.252H345.427V403.591ZM344.68 398.203H352.792V399.908H344.68V398.203ZM361.757 408.029H357.758L356.879 411H354.699L358.856 398.203H360.711L364.789 411H362.618L361.757 408.029ZM358.294 406.228H361.229L359.779 401.209L358.294 406.228ZM368.858 398.203L370.449 403.731L372.207 398.203H374.826V411H372.84V406.605L372.963 400.998L370.994 407.133H369.887L368.103 401.209L368.226 406.605V411H366.239V398.203H368.858Z" fill="black"/>
<path id="MA1N R00M" d="M80.1846 369.203L81.7754 374.731L83.5332 369.203H86.1523V382H84.166V377.605L84.2891 371.998L82.3203 378.133H81.2129L79.4287 372.209L79.5518 377.605V382H77.5654V369.203H80.1846ZM94.7041 379.029H90.7051L89.8262 382H87.6465L91.8037 369.203H93.6582L97.7363 382H95.5654L94.7041 379.029ZM91.2412 377.228H94.1768L92.7266 372.209L91.2412 377.228ZM105.049 382H102.931V371.796L99.6611 372.991V371.146L104.917 369.203H105.049V382ZM118.399 382H116.272L112.106 373.193L112.098 382H109.962V369.203H112.098L116.246 377.983L116.264 369.203H118.399V382ZM81.9775 403.008H79.833V408H77.7236V395.203H81.7666C82.4229 395.209 83.0264 395.294 83.5771 395.458C84.1338 395.616 84.6143 395.856 85.0186 396.179C85.4229 396.495 85.7363 396.894 85.959 397.374C86.1816 397.854 86.293 398.417 86.293 399.062C86.293 399.495 86.2344 399.891 86.1172 400.248C86.0059 400.6 85.8477 400.919 85.6426 401.206C85.4375 401.493 85.1914 401.745 84.9043 401.962C84.6172 402.179 84.3008 402.363 83.9551 402.516L86.6621 407.895V408H84.4121L81.9775 403.008ZM79.833 401.303H81.7754C82.127 401.303 82.4492 401.253 82.7422 401.153C83.0352 401.054 83.2871 400.913 83.498 400.731C83.7148 400.544 83.8818 400.318 83.999 400.055C84.1162 399.785 84.1748 399.478 84.1748 399.132C84.1748 398.774 84.1191 398.458 84.0078 398.183C83.8965 397.907 83.7354 397.676 83.5244 397.488C83.3193 397.301 83.0674 397.16 82.7686 397.066C82.4697 396.967 82.1357 396.914 81.7666 396.908H79.833V401.303ZM96.7695 403.131C96.7695 403.957 96.6729 404.687 96.4795 405.319C96.292 405.946 96.0195 406.474 95.6621 406.901C95.3047 407.323 94.8682 407.643 94.3525 407.859C93.8369 408.076 93.2568 408.185 92.6123 408.185C91.9736 408.185 91.3965 408.076 90.8809 407.859C90.3652 407.643 89.9258 407.323 89.5625 406.901C89.2051 406.474 88.9268 405.946 88.7275 405.319C88.5342 404.687 88.4375 403.957 88.4375 403.131V400.072C88.4375 399.246 88.5342 398.52 88.7275 397.893C88.9209 397.26 89.1963 396.732 89.5537 396.311C89.917 395.883 90.3535 395.561 90.8633 395.344C91.3789 395.127 91.9561 395.019 92.5947 395.019C93.2393 395.019 93.8193 395.127 94.335 395.344C94.8506 395.561 95.2871 395.883 95.6445 396.311C96.0078 396.732 96.2861 397.26 96.4795 397.893C96.6729 398.52 96.7695 399.246 96.7695 400.072V403.131ZM90.5469 402.331L94.6426 399.281C94.5957 398.408 94.4023 397.764 94.0625 397.348C93.7285 396.926 93.2393 396.715 92.5947 396.715C91.9092 396.715 91.3965 396.958 91.0566 397.444C90.7168 397.931 90.5469 398.678 90.5469 399.686V402.331ZM94.6602 400.934L90.5645 403.983C90.6699 405.659 91.3525 406.497 92.6123 406.497C93.9775 406.497 94.6602 405.498 94.6602 403.5V400.934ZM107.58 403.131C107.58 403.957 107.483 404.687 107.29 405.319C107.103 405.946 106.83 406.474 106.473 406.901C106.115 407.323 105.679 407.643 105.163 407.859C104.647 408.076 104.067 408.185 103.423 408.185C102.784 408.185 102.207 408.076 101.691 407.859C101.176 407.643 100.736 407.323 100.373 406.901C100.016 406.474 99.7373 405.946 99.5381 405.319C99.3447 404.687 99.248 403.957 99.248 403.131V400.072C99.248 399.246 99.3447 398.52 99.5381 397.893C99.7314 397.26 100.007 396.732 100.364 396.311C100.728 395.883 101.164 395.561 101.674 395.344C102.189 395.127 102.767 395.019 103.405 395.019C104.05 395.019 104.63 395.127 105.146 395.344C105.661 395.561 106.098 395.883 106.455 396.311C106.818 396.732 107.097 397.26 107.29 397.893C107.483 398.52 107.58 399.246 107.58 400.072V403.131ZM101.357 402.331L105.453 399.281C105.406 398.408 105.213 397.764 104.873 397.348C104.539 396.926 104.05 396.715 103.405 396.715C102.72 396.715 102.207 396.958 101.867 397.444C101.527 397.931 101.357 398.678 101.357 399.686V402.331ZM105.471 400.934L101.375 403.983C101.48 405.659 102.163 406.497 103.423 406.497C104.788 406.497 105.471 405.498 105.471 403.5V400.934ZM112.616 395.203L114.207 400.731L115.965 395.203H118.584V408H116.598V403.605L116.721 397.998L114.752 404.133H113.645L111.86 398.209L111.983 403.605V408H109.997V395.203H112.616Z" fill="black"/>
<path id="L0BBY" d="M187.095 199.277H193.194V201H184.985V188.203H187.095V199.277ZM203.864 196.131C203.864 196.957 203.768 197.687 203.574 198.319C203.387 198.946 203.114 199.474 202.757 199.901C202.399 200.323 201.963 200.643 201.447 200.859C200.932 201.076 200.352 201.185 199.707 201.185C199.068 201.185 198.491 201.076 197.976 200.859C197.46 200.643 197.021 200.323 196.657 199.901C196.3 199.474 196.021 198.946 195.822 198.319C195.629 197.687 195.532 196.957 195.532 196.131V193.072C195.532 192.246 195.629 191.52 195.822 190.893C196.016 190.26 196.291 189.732 196.648 189.311C197.012 188.883 197.448 188.561 197.958 188.344C198.474 188.127 199.051 188.019 199.689 188.019C200.334 188.019 200.914 188.127 201.43 188.344C201.945 188.561 202.382 188.883 202.739 189.311C203.103 189.732 203.381 190.26 203.574 190.893C203.768 191.52 203.864 192.246 203.864 193.072V196.131ZM197.642 195.331L201.737 192.281C201.69 191.408 201.497 190.764 201.157 190.348C200.823 189.926 200.334 189.715 199.689 189.715C199.004 189.715 198.491 189.958 198.151 190.444C197.812 190.931 197.642 191.678 197.642 192.686V195.331ZM201.755 193.934L197.659 196.983C197.765 198.659 198.447 199.497 199.707 199.497C201.072 199.497 201.755 198.498 201.755 196.5V193.934ZM206.396 201V188.203H210.482C211.098 188.209 211.672 188.279 212.205 188.414C212.744 188.549 213.213 188.757 213.611 189.038C214.016 189.319 214.332 189.68 214.561 190.119C214.789 190.553 214.9 191.068 214.895 191.666C214.889 192.299 214.713 192.841 214.367 193.292C214.021 193.737 213.556 194.083 212.97 194.329C213.327 194.429 213.644 194.572 213.919 194.76C214.2 194.941 214.435 195.161 214.622 195.419C214.81 195.677 214.953 195.964 215.053 196.28C215.152 196.591 215.202 196.922 215.202 197.273C215.202 197.883 215.091 198.419 214.868 198.882C214.646 199.345 214.335 199.731 213.937 200.042C213.544 200.353 213.075 200.59 212.53 200.754C211.991 200.912 211.408 200.994 210.781 201H206.396ZM208.514 195.199V199.277H210.816C211.15 199.271 211.455 199.222 211.73 199.128C212.006 199.028 212.243 198.894 212.442 198.724C212.642 198.554 212.797 198.346 212.908 198.1C213.025 197.854 213.084 197.578 213.084 197.273C213.084 196.951 213.034 196.664 212.935 196.412C212.835 196.154 212.691 195.938 212.504 195.762C212.316 195.586 212.088 195.451 211.818 195.357C211.549 195.258 211.247 195.205 210.913 195.199H208.514ZM208.514 193.591H210.535C210.852 193.585 211.145 193.544 211.414 193.468C211.689 193.386 211.927 193.269 212.126 193.116C212.325 192.958 212.483 192.768 212.601 192.545C212.718 192.316 212.776 192.056 212.776 191.763C212.776 191.44 212.721 191.165 212.609 190.937C212.498 190.708 212.34 190.521 212.135 190.374C211.936 190.228 211.698 190.122 211.423 190.058C211.147 189.987 210.846 189.949 210.518 189.943H208.514V193.591ZM217.206 201V188.203H221.293C221.908 188.209 222.482 188.279 223.016 188.414C223.555 188.549 224.023 188.757 224.422 189.038C224.826 189.319 225.143 189.68 225.371 190.119C225.6 190.553 225.711 191.068 225.705 191.666C225.699 192.299 225.523 192.841 225.178 193.292C224.832 193.737 224.366 194.083 223.78 194.329C224.138 194.429 224.454 194.572 224.729 194.76C225.011 194.941 225.245 195.161 225.433 195.419C225.62 195.677 225.764 195.964 225.863 196.28C225.963 196.591 226.013 196.922 226.013 197.273C226.013 197.883 225.901 198.419 225.679 198.882C225.456 199.345 225.146 199.731 224.747 200.042C224.354 200.353 223.886 200.59 223.341 200.754C222.802 200.912 222.219 200.994 221.592 201H217.206ZM219.324 195.199V199.277H221.627C221.961 199.271 222.266 199.222 222.541 199.128C222.816 199.028 223.054 198.894 223.253 198.724C223.452 198.554 223.607 198.346 223.719 198.1C223.836 197.854 223.895 197.578 223.895 197.273C223.895 196.951 223.845 196.664 223.745 196.412C223.646 196.154 223.502 195.938 223.314 195.762C223.127 195.586 222.898 195.451 222.629 195.357C222.359 195.258 222.058 195.205 221.724 195.199H219.324ZM219.324 193.591H221.346C221.662 193.585 221.955 193.544 222.225 193.468C222.5 193.386 222.737 193.269 222.937 193.116C223.136 192.958 223.294 192.768 223.411 192.545C223.528 192.316 223.587 192.056 223.587 191.763C223.587 191.44 223.531 191.165 223.42 190.937C223.309 190.708 223.15 190.521 222.945 190.374C222.746 190.228 222.509 190.122 222.233 190.058C221.958 189.987 221.656 189.949 221.328 189.943H219.324V193.591ZM232.13 194.32L234.793 188.203H237.148L233.158 196.403L233.141 201H231.093L231.075 196.351L227.111 188.203H229.467L232.13 194.32Z" fill="black"/>
<path id="AG&#206;&#158;NDA" d="M309.583 250.029H305.584L304.705 253H302.525L306.683 240.203H308.537L312.615 253H310.444L309.583 250.029ZM306.12 248.228H309.056L307.605 243.209L306.12 248.228ZM322.775 251.4C322.559 251.658 322.304 251.896 322.011 252.112C321.718 252.329 321.39 252.517 321.026 252.675C320.663 252.833 320.268 252.956 319.84 253.044C319.418 253.132 318.967 253.176 318.486 253.176C317.719 253.176 317.039 253.026 316.447 252.728C315.855 252.429 315.354 252.021 314.944 251.506C314.54 250.984 314.229 250.372 314.013 249.669C313.802 248.966 313.693 248.21 313.688 247.401V245.819C313.688 245.011 313.793 244.255 314.004 243.552C314.215 242.849 314.517 242.236 314.909 241.715C315.308 241.193 315.794 240.783 316.368 240.484C316.942 240.18 317.599 240.027 318.337 240.027C318.999 240.027 319.591 240.118 320.112 240.3C320.634 240.481 321.082 240.745 321.457 241.091C321.832 241.431 322.128 241.847 322.345 242.339C322.567 242.831 322.708 243.382 322.767 243.991H320.692C320.64 243.646 320.558 243.335 320.446 243.06C320.335 242.784 320.186 242.55 319.998 242.356C319.811 242.163 319.582 242.017 319.312 241.917C319.049 241.812 318.735 241.759 318.372 241.759C317.927 241.759 317.543 241.87 317.221 242.093C316.904 242.31 316.641 242.605 316.43 242.98C316.219 243.35 316.063 243.78 315.964 244.272C315.864 244.759 315.812 245.269 315.806 245.802V247.401C315.812 247.935 315.864 248.444 315.964 248.931C316.069 249.417 316.23 249.848 316.447 250.223C316.67 250.592 316.954 250.888 317.3 251.11C317.646 251.333 318.062 251.447 318.548 251.453C318.747 251.453 318.952 251.441 319.163 251.418C319.374 251.389 319.573 251.345 319.761 251.286C319.954 251.228 320.13 251.154 320.288 251.066C320.446 250.973 320.575 250.858 320.675 250.724L320.692 248.166H318.381V246.522H322.758L322.775 251.4ZM324.85 251.304H333.252V253H324.85V251.304ZM325.685 245.591H332.364V247.252H325.685V245.591ZM324.938 240.203H333.05V241.908H324.938V240.203ZM344.089 253H341.962L337.796 244.193L337.787 253H335.651V240.203H337.787L341.936 248.983L341.953 240.203H344.089V253ZM346.515 253V240.203H349.644C350.522 240.209 351.311 240.355 352.008 240.643C352.711 240.93 353.306 241.334 353.792 241.855C354.284 242.377 354.662 243.001 354.926 243.728C355.189 244.448 355.324 245.248 355.33 246.127V247.094C355.324 247.973 355.189 248.775 354.926 249.502C354.662 250.223 354.287 250.844 353.801 251.365C353.314 251.881 352.726 252.282 352.034 252.569C351.343 252.856 350.566 253 349.705 253H346.515ZM348.659 241.908V251.304H349.705C350.285 251.298 350.792 251.195 351.226 250.996C351.659 250.791 352.02 250.507 352.307 250.144C352.6 249.774 352.816 249.332 352.957 248.816C353.104 248.301 353.18 247.727 353.186 247.094V246.109C353.18 245.494 353.104 244.932 352.957 244.422C352.816 243.912 352.6 243.473 352.307 243.104C352.014 242.729 351.645 242.438 351.199 242.233C350.76 242.022 350.241 241.914 349.644 241.908H348.659ZM363.636 250.029H359.637L358.758 253H356.578L360.735 240.203H362.59L366.668 253H364.497L363.636 250.029ZM360.173 248.228H363.108L361.658 243.209L360.173 248.228Z" fill="black"/>
<g id="new-room">
<g id="Group 11">
<path id="new-room_2" d="M109.096 446.687L208.394 446.687L158.745 534.321L109.096 446.687Z" fill="#5C5C5E"/>
<path id="new-room-hover" d="M106.104 461.642L182.672 461.642L144.388 533.424L106.104 461.642Z" fill="url(#paint0_linear)"/>
</g>
<rect id="Rectangle 6" x="34" y="502" width="86" height="65" fill="#FF0000"/>
</g>
<g id="chat">
<g id="Group 9">
<path id="chat_2" d="M258.043 534.321L158.745 534.321L208.394 446.687L258.043 534.321Z" fill="#333334"/>
<path id="chat-hover" d="M249.07 547.182H172.503L210.787 475.4L249.07 547.182Z" stroke="#FCE96A" stroke-width="5.07435"/>
</g>
<rect id="Rectangle 7" x="183" y="572" width="42" height="20" fill="#FF0000"/>
</g>
<g id="poap">
<g id="Group 7">
<path id="poap_2" d="M208.394 446.687L307.692 446.687L258.043 534.321L208.394 446.687Z" fill="#19191A"/>
<path id="poap-hover" d="M234.116 461.642L310.684 461.642L272.4 533.424L234.116 461.642Z" fill="url(#paint1_linear)"/>
</g>
<rect id="Rectangle 8" x="312" y="483" width="55" height="47" fill="#FF0000"/>
</g>
<g id="livestream">
<g id="Group 5">
<path id="livestream_2" d="M307.693 446.687L208.394 446.687L258.043 359.352L307.693 446.687Z" fill="#2E2E2F"/>
<path id="livestream-hover" d="M310.683 435.322H234.116L272.399 363.54L310.683 435.322Z" fill="url(#paint2_linear)"/>
</g>
<rect id="Rectangle 9" x="308" y="371" width="68" height="40" fill="#FF0000"/>
</g>
<g id="agenda">
<g id="Group 3">
<path id="agenda_2" d="M307.693 314.489H208.394L258.043 227.154L307.693 314.489Z" fill="#5C5C5E"/>
<path id="agenda-hover" d="M310.683 300.132H234.116L272.399 228.35L310.683 300.132Z" stroke="#FCE96A" stroke-width="5.07435"/>
</g>
<rect id="Rectangle 12" x="299" y="239" width="68" height="14" fill="#FF0000"/>
</g>
<g id="lobby">
<g id="Group 2">
<path id="lobby_2" d="M158.744 227.154L258.043 227.154L208.394 314.489L158.744 227.154Z" fill="#333334"/>
<path id="lobby-hover" d="M170.11 216.985L246.677 216.985L208.394 288.767L170.11 216.985Z" fill="url(#paint3_linear)"/>
</g>
<rect id="Rectangle 11" x="183" y="188" width="55" height="17" fill="#FF0000"/>
</g>
<g id="main-room">
<g id="Group 1">
<path id="main-room_2" d="M109.096 314.489L208.394 314.489L158.745 402.122L109.096 314.489Z" fill="#5C5C5E"/>
<path id="main-room-hover" d="M106.104 327.649L182.672 327.649L144.388 399.431L106.104 327.649Z" fill="url(#paint4_linear)"/>
</g>
<rect id="Rectangle 10" x="77" y="366" width="43" height="42" fill="#FF0000"/>
</g>
<g id="header-left">
<rect id="Rectangle 1" x="20" y="47" width="185" height="44" fill="#FCE96A"/>
<rect id="Rectangle 2" x="20" y="96" width="138" height="44" fill="#FCE96A"/>
<path id="Solidity Summit" d="M37.5918 73.3203C37.5918 72.8633 37.5098 72.4355 37.3457 72.0371C37.1934 71.6387 36.9238 71.2695 36.5371 70.9297C36.1621 70.5781 35.6641 70.2617 35.043 69.9805C34.4336 69.6875 33.6719 69.418 32.7578 69.1719C31.6445 68.8672 30.5781 68.4863 29.5586 68.0293C28.5508 67.5723 27.6602 67.0215 26.8867 66.377C26.1133 65.7324 25.4922 64.9824 25.0234 64.127C24.5664 63.2715 24.3379 62.2871 24.3379 61.1738C24.3379 60.0957 24.5664 59.1172 25.0234 58.2383C25.4805 57.3594 26.1133 56.6094 26.9219 55.9883C27.7305 55.3672 28.6855 54.8926 29.7871 54.5645C30.8887 54.2246 32.084 54.0547 33.373 54.0547C34.709 54.0547 35.9277 54.248 37.0293 54.6348C38.1426 55.0215 39.0977 55.5664 39.8945 56.2695C40.6914 56.9609 41.3125 57.7871 41.7578 58.748C42.2031 59.709 42.4258 60.7637 42.4258 61.9121H37.6094C37.5859 61.3379 37.4805 60.8105 37.293 60.3301C37.1172 59.8496 36.8477 59.4395 36.4844 59.0996C36.1328 58.748 35.6875 58.4785 35.1484 58.291C34.6211 58.0918 34 57.9922 33.2852 57.9922C32.6289 57.9922 32.043 58.0742 31.5273 58.2383C31.0234 58.3906 30.5957 58.6133 30.2441 58.9062C29.8926 59.1875 29.623 59.5273 29.4355 59.9258C29.2598 60.3125 29.1719 60.7344 29.1719 61.1914C29.1719 61.6719 29.2891 62.1055 29.5234 62.4922C29.7695 62.8789 30.1211 63.2305 30.5781 63.5469C31.0352 63.8516 31.5859 64.1328 32.2305 64.3906C32.8867 64.6484 33.625 64.8887 34.4453 65.1113C35.6172 65.4512 36.6953 65.8672 37.6797 66.3594C38.6641 66.8516 39.5078 67.4375 40.2109 68.1172C40.9258 68.7852 41.4766 69.5527 41.8633 70.4199C42.2617 71.2754 42.4609 72.2305 42.4609 73.2852C42.4609 74.4102 42.2324 75.4121 41.7754 76.291C41.3301 77.1582 40.709 77.8965 39.9121 78.5059C39.1152 79.1035 38.166 79.5605 37.0645 79.877C35.9629 80.1816 34.7617 80.334 33.4609 80.334C32.6523 80.334 31.8438 80.2578 31.0352 80.1055C30.2383 79.9648 29.4707 79.7422 28.7324 79.4375C28.0059 79.1328 27.3262 78.752 26.6934 78.2949C26.0605 77.8379 25.5098 77.3047 25.041 76.6953C24.584 76.0859 24.2207 75.3945 23.9512 74.6211C23.6934 73.8477 23.5645 72.9922 23.5645 72.0547H28.416C28.4395 72.8281 28.5742 73.4902 28.8203 74.041C29.0664 74.5918 29.4062 75.043 29.8398 75.3945C30.2852 75.7461 30.8125 76.0039 31.4219 76.168C32.043 76.332 32.7227 76.4141 33.4609 76.4141C34.1172 76.4141 34.6973 76.3379 35.2012 76.1855C35.7168 76.0332 36.1504 75.8223 36.502 75.5527C36.8535 75.2832 37.123 74.9609 37.3105 74.5859C37.498 74.1992 37.5918 73.7773 37.5918 73.3203ZM45.4316 70.3145C45.4316 68.9316 45.6309 67.6543 46.0293 66.4824C46.4277 65.2988 47.0078 64.2734 47.7695 63.4062C48.543 62.5391 49.4805 61.8594 50.582 61.3672C51.6953 60.875 52.9668 60.6289 54.3965 60.6289C55.8262 60.6289 57.0977 60.875 58.2109 61.3672C59.3242 61.8594 60.2617 62.5391 61.0234 63.4062C61.7969 64.2734 62.3828 65.2988 62.7812 66.4824C63.1797 67.6543 63.3789 68.9316 63.3789 70.3145V70.6836C63.3789 72.0781 63.1797 73.3672 62.7812 74.5508C62.3828 75.7227 61.8027 76.7422 61.041 77.6094C60.2793 78.4766 59.3418 79.1562 58.2285 79.6484C57.1152 80.1289 55.8496 80.3691 54.4316 80.3691C53.002 80.3691 51.7246 80.1289 50.5996 79.6484C49.4863 79.1562 48.543 78.4766 47.7695 77.6094C47.0078 76.7422 46.4277 75.7227 46.0293 74.5508C45.6309 73.3672 45.4316 72.0781 45.4316 70.6836V70.3145ZM50.3184 70.6836C50.3184 71.4805 50.3945 72.2305 50.5469 72.9336C50.6992 73.625 50.9395 74.2344 51.2676 74.7617C51.5957 75.2773 52.0176 75.6875 52.5332 75.9922C53.0605 76.2969 53.6934 76.4492 54.4316 76.4492C55.1465 76.4492 55.7617 76.2969 56.2773 75.9922C56.793 75.6875 57.209 75.2773 57.5254 74.7617C57.8535 74.2344 58.0938 73.625 58.2461 72.9336C58.3984 72.2305 58.4746 71.4805 58.4746 70.6836V70.3145C58.4746 69.541 58.3984 68.8086 58.2461 68.1172C58.0938 67.4258 57.8535 66.8164 57.5254 66.2891C57.209 65.7617 56.793 65.3457 56.2773 65.041C55.7617 64.7363 55.1348 64.584 54.3965 64.584C53.6699 64.584 53.0488 64.7363 52.5332 65.041C52.0176 65.3457 51.5957 65.7617 51.2676 66.2891C50.9395 66.8164 50.6992 67.4258 50.5469 68.1172C50.3945 68.8086 50.3184 69.541 50.3184 70.3145V70.6836ZM68.7402 53H79.375V76.0273H84.8242V80H68.7402V76.0273H74.4355V56.9902H68.7402V53ZM90.6426 60.9805H100.996V76.0273H106.146V80H90.6426V76.0273H96.0566V64.9707H90.6426V60.9805ZM95.7051 56.1113C95.7051 55.7363 95.7695 55.3906 95.8984 55.0742C96.0391 54.7461 96.2324 54.4707 96.4785 54.248C96.7246 54.0137 97.0176 53.832 97.3574 53.7031C97.709 53.5742 98.0957 53.5098 98.5176 53.5098C99.3848 53.5098 100.07 53.7559 100.574 54.248C101.09 54.7285 101.348 55.3496 101.348 56.1113C101.348 56.873 101.09 57.5 100.574 57.9922C100.07 58.4727 99.3848 58.7129 98.5176 58.7129C98.0957 58.7129 97.709 58.6484 97.3574 58.5195C97.0176 58.3906 96.7246 58.2148 96.4785 57.9922C96.2324 57.7578 96.0391 57.4824 95.8984 57.166C95.7695 56.8379 95.7051 56.4863 95.7051 56.1113ZM110.453 70.3496C110.453 68.9082 110.617 67.5898 110.945 66.3945C111.285 65.1992 111.777 64.1738 112.422 63.3184C113.066 62.4629 113.846 61.8008 114.76 61.332C115.686 60.8633 116.74 60.6289 117.924 60.6289C118.92 60.6289 119.793 60.8105 120.543 61.1738C121.305 61.5254 121.979 62.0293 122.564 62.6855V53H127.469V80H123.057L122.811 78.0137C122.213 78.752 121.51 79.3262 120.701 79.7363C119.893 80.1465 118.955 80.3516 117.889 80.3516C116.729 80.3516 115.686 80.1113 114.76 79.6309C113.846 79.1387 113.066 78.4648 112.422 77.6094C111.789 76.7539 111.303 75.7402 110.963 74.5684C110.623 73.3848 110.453 72.1016 110.453 70.7188V70.3496ZM115.34 70.7188C115.34 71.5156 115.404 72.2598 115.533 72.9512C115.674 73.6309 115.896 74.2285 116.201 74.7441C116.506 75.248 116.898 75.6465 117.379 75.9395C117.859 76.2324 118.445 76.3789 119.137 76.3789C119.98 76.3789 120.678 76.1973 121.229 75.834C121.791 75.4707 122.236 74.9727 122.564 74.3398V66.6406C122.236 65.9961 121.797 65.498 121.246 65.1465C120.695 64.7832 120.004 64.6016 119.172 64.6016C118.48 64.6016 117.889 64.7539 117.396 65.0586C116.916 65.3516 116.523 65.7617 116.219 66.2891C115.914 66.8047 115.691 67.4141 115.551 68.1172C115.41 68.8086 115.34 69.5527 115.34 70.3496V70.7188ZM133.885 60.9805H144.238V76.0273H149.389V80H133.885V76.0273H139.299V64.9707H133.885V60.9805ZM138.947 56.1113C138.947 55.7363 139.012 55.3906 139.141 55.0742C139.281 54.7461 139.475 54.4707 139.721 54.248C139.967 54.0137 140.26 53.832 140.6 53.7031C140.951 53.5742 141.338 53.5098 141.76 53.5098C142.627 53.5098 143.312 53.7559 143.816 54.248C144.332 54.7285 144.59 55.3496 144.59 56.1113C144.59 56.873 144.332 57.5 143.816 57.9922C143.312 58.4727 142.627 58.7129 141.76 58.7129C141.338 58.7129 140.951 58.6484 140.6 58.5195C140.26 58.3906 139.967 58.2148 139.721 57.9922C139.475 57.7578 139.281 57.4824 139.141 57.166C139.012 56.8379 138.947 56.4863 138.947 56.1113ZM163.17 56.3223V60.9805H170.271V64.584H163.17V72.7578C163.17 73.4492 163.246 74.0293 163.398 74.498C163.562 74.9551 163.791 75.3242 164.084 75.6055C164.377 75.875 164.729 76.0684 165.139 76.1855C165.561 76.3027 166.029 76.3613 166.545 76.3613C166.92 76.3613 167.301 76.3438 167.688 76.3086C168.086 76.2734 168.461 76.2324 168.812 76.1855C169.176 76.127 169.51 76.0684 169.814 76.0098C170.131 75.9512 170.4 75.8926 170.623 75.834L171.098 79.1914C170.758 79.3906 170.359 79.5664 169.902 79.7188C169.445 79.8594 168.959 79.9766 168.443 80.0703C167.928 80.1641 167.389 80.2344 166.826 80.2812C166.275 80.3398 165.73 80.3691 165.191 80.3691C164.148 80.3691 163.199 80.2344 162.344 79.9648C161.5 79.6836 160.773 79.2559 160.164 78.6816C159.566 78.0957 159.104 77.3574 158.775 76.4668C158.447 75.5645 158.283 74.4863 158.283 73.2324V64.584H153.941V60.9805H158.283V56.3223H163.17ZM183.93 72.0195L184.492 74.0586L189.555 60.9805H194.951L185.301 82.8477C185.09 83.3281 184.814 83.8496 184.475 84.4121C184.146 84.9746 183.73 85.4961 183.227 85.9766C182.723 86.457 182.107 86.8613 181.381 87.1895C180.666 87.5176 179.816 87.6816 178.832 87.6816C178.598 87.6816 178.381 87.6699 178.182 87.6465C177.982 87.6348 177.789 87.6113 177.602 87.5762C177.414 87.5527 177.227 87.5176 177.039 87.4707C176.863 87.4355 176.67 87.3887 176.459 87.3301L177.057 83.6035C177.256 83.6035 177.508 83.6094 177.812 83.6211C178.129 83.6445 178.381 83.6562 178.568 83.6562C178.955 83.6562 179.295 83.5391 179.588 83.3047C179.893 83.0703 180.15 82.8125 180.361 82.5312C180.572 82.25 180.742 81.9922 180.871 81.7578C181 81.5234 181.088 81.4062 181.135 81.4062L182.312 79.1914L174.262 60.9805H179.605L183.93 72.0195ZM37.5918 124.32C37.5918 123.863 37.5098 123.436 37.3457 123.037C37.1934 122.639 36.9238 122.27 36.5371 121.93C36.1621 121.578 35.6641 121.262 35.043 120.98C34.4336 120.688 33.6719 120.418 32.7578 120.172C31.6445 119.867 30.5781 119.486 29.5586 119.029C28.5508 118.572 27.6602 118.021 26.8867 117.377C26.1133 116.732 25.4922 115.982 25.0234 115.127C24.5664 114.271 24.3379 113.287 24.3379 112.174C24.3379 111.096 24.5664 110.117 25.0234 109.238C25.4805 108.359 26.1133 107.609 26.9219 106.988C27.7305 106.367 28.6855 105.893 29.7871 105.564C30.8887 105.225 32.084 105.055 33.373 105.055C34.709 105.055 35.9277 105.248 37.0293 105.635C38.1426 106.021 39.0977 106.566 39.8945 107.27C40.6914 107.961 41.3125 108.787 41.7578 109.748C42.2031 110.709 42.4258 111.764 42.4258 112.912H37.6094C37.5859 112.338 37.4805 111.811 37.293 111.33C37.1172 110.85 36.8477 110.439 36.4844 110.1C36.1328 109.748 35.6875 109.479 35.1484 109.291C34.6211 109.092 34 108.992 33.2852 108.992C32.6289 108.992 32.043 109.074 31.5273 109.238C31.0234 109.391 30.5957 109.613 30.2441 109.906C29.8926 110.188 29.623 110.527 29.4355 110.926C29.2598 111.312 29.1719 111.734 29.1719 112.191C29.1719 112.672 29.2891 113.105 29.5234 113.492C29.7695 113.879 30.1211 114.23 30.5781 114.547C31.0352 114.852 31.5859 115.133 32.2305 115.391C32.8867 115.648 33.625 115.889 34.4453 116.111C35.6172 116.451 36.6953 116.867 37.6797 117.359C38.6641 117.852 39.5078 118.438 40.2109 119.117C40.9258 119.785 41.4766 120.553 41.8633 121.42C42.2617 122.275 42.4609 123.23 42.4609 124.285C42.4609 125.41 42.2324 126.412 41.7754 127.291C41.3301 128.158 40.709 128.896 39.9121 129.506C39.1152 130.104 38.166 130.561 37.0645 130.877C35.9629 131.182 34.7617 131.334 33.4609 131.334C32.6523 131.334 31.8438 131.258 31.0352 131.105C30.2383 130.965 29.4707 130.742 28.7324 130.438C28.0059 130.133 27.3262 129.752 26.6934 129.295C26.0605 128.838 25.5098 128.305 25.041 127.695C24.584 127.086 24.2207 126.395 23.9512 125.621C23.6934 124.848 23.5645 123.992 23.5645 123.055H28.416C28.4395 123.828 28.5742 124.49 28.8203 125.041C29.0664 125.592 29.4062 126.043 29.8398 126.395C30.2852 126.746 30.8125 127.004 31.4219 127.168C32.043 127.332 32.7227 127.414 33.4609 127.414C34.1172 127.414 34.6973 127.338 35.2012 127.186C35.7168 127.033 36.1504 126.822 36.502 126.553C36.8535 126.283 37.123 125.961 37.3105 125.586C37.498 125.199 37.5918 124.777 37.5918 124.32ZM58.2285 128.328C57.584 129.277 56.8047 130.021 55.8906 130.561C54.9883 131.1 53.998 131.369 52.9199 131.369C51.9355 131.369 51.0332 131.217 50.2129 130.912C49.3926 130.607 48.6895 130.127 48.1035 129.471C47.5176 128.803 47.0605 127.959 46.7324 126.939C46.416 125.908 46.2578 124.672 46.2578 123.23V111.98H51.1445V123.266C51.1445 124.039 51.1973 124.689 51.3027 125.217C51.4199 125.744 51.6016 126.172 51.8477 126.5C52.0938 126.816 52.416 127.045 52.8145 127.186C53.2129 127.326 53.6992 127.396 54.2734 127.396C55.2461 127.396 56.0371 127.215 56.6465 126.852C57.2559 126.477 57.7188 125.967 58.0352 125.322V111.98H62.9395V131H58.5098L58.2285 128.328ZM70.7617 111.98L70.9023 114.283C71.2656 113.463 71.7637 112.818 72.3965 112.35C73.041 111.869 73.8203 111.629 74.7344 111.629C76.2695 111.629 77.2715 112.303 77.7402 113.65C78.1152 113.018 78.5898 112.525 79.1641 112.174C79.75 111.811 80.4531 111.629 81.2734 111.629C81.8477 111.629 82.3809 111.734 82.873 111.945C83.377 112.156 83.8105 112.496 84.1738 112.965C84.5488 113.422 84.8359 114.02 85.0352 114.758C85.2461 115.484 85.3516 116.375 85.3516 117.43V131H80.9043V117.412C80.9043 117.049 80.8633 116.75 80.7812 116.516C80.7109 116.281 80.6113 116.1 80.4824 115.971C80.3535 115.83 80.2012 115.736 80.0254 115.689C79.8613 115.631 79.6914 115.602 79.5156 115.602C79.1758 115.602 78.8887 115.684 78.6543 115.848C78.4199 116 78.2383 116.211 78.1094 116.48V131H73.8027V117.395C73.8027 117.031 73.7676 116.732 73.6973 116.498C73.627 116.264 73.5273 116.082 73.3984 115.953C73.2812 115.824 73.1406 115.736 72.9766 115.689C72.8125 115.631 72.6367 115.602 72.4492 115.602C72.0742 115.602 71.7695 115.707 71.5352 115.918C71.3125 116.129 71.1367 116.41 71.0078 116.762V131H66.5605V111.98H70.7617ZM92.3828 111.98L92.5234 114.283C92.8867 113.463 93.3848 112.818 94.0176 112.35C94.6621 111.869 95.4414 111.629 96.3555 111.629C97.8906 111.629 98.8926 112.303 99.3613 113.65C99.7363 113.018 100.211 112.525 100.785 112.174C101.371 111.811 102.074 111.629 102.895 111.629C103.469 111.629 104.002 111.734 104.494 111.945C104.998 112.156 105.432 112.496 105.795 112.965C106.17 113.422 106.457 114.02 106.656 114.758C106.867 115.484 106.973 116.375 106.973 117.43V131H102.525V117.412C102.525 117.049 102.484 116.75 102.402 116.516C102.332 116.281 102.232 116.1 102.104 115.971C101.975 115.83 101.822 115.736 101.646 115.689C101.482 115.631 101.312 115.602 101.137 115.602C100.797 115.602 100.51 115.684 100.275 115.848C100.041 116 99.8594 116.211 99.7305 116.48V131H95.4238V117.395C95.4238 117.031 95.3887 116.732 95.3184 116.498C95.248 116.264 95.1484 116.082 95.0195 115.953C94.9023 115.824 94.7617 115.736 94.5977 115.689C94.4336 115.631 94.2578 115.602 94.0703 115.602C93.6953 115.602 93.3906 115.707 93.1562 115.918C92.9336 116.129 92.7578 116.41 92.6289 116.762V131H88.1816V111.98H92.3828ZM112.264 111.98H122.617V127.027H127.768V131H112.264V127.027H117.678V115.971H112.264V111.98ZM117.326 107.111C117.326 106.736 117.391 106.391 117.52 106.074C117.66 105.746 117.854 105.471 118.1 105.248C118.346 105.014 118.639 104.832 118.979 104.703C119.33 104.574 119.717 104.51 120.139 104.51C121.006 104.51 121.691 104.756 122.195 105.248C122.711 105.729 122.969 106.35 122.969 107.111C122.969 107.873 122.711 108.5 122.195 108.992C121.691 109.473 121.006 109.713 120.139 109.713C119.717 109.713 119.33 109.648 118.979 109.52C118.639 109.391 118.346 109.215 118.1 108.992C117.854 108.758 117.66 108.482 117.52 108.166C117.391 107.838 117.326 107.486 117.326 107.111ZM141.549 107.322V111.98H148.65V115.584H141.549V123.758C141.549 124.449 141.625 125.029 141.777 125.498C141.941 125.955 142.17 126.324 142.463 126.605C142.756 126.875 143.107 127.068 143.518 127.186C143.939 127.303 144.408 127.361 144.924 127.361C145.299 127.361 145.68 127.344 146.066 127.309C146.465 127.273 146.84 127.232 147.191 127.186C147.555 127.127 147.889 127.068 148.193 127.01C148.51 126.951 148.779 126.893 149.002 126.834L149.477 130.191C149.137 130.391 148.738 130.566 148.281 130.719C147.824 130.859 147.338 130.977 146.822 131.07C146.307 131.164 145.768 131.234 145.205 131.281C144.654 131.34 144.109 131.369 143.57 131.369C142.527 131.369 141.578 131.234 140.723 130.965C139.879 130.684 139.152 130.256 138.543 129.682C137.945 129.096 137.482 128.357 137.154 127.467C136.826 126.564 136.662 125.486 136.662 124.232V115.584H132.32V111.98H136.662V107.322H141.549Z" fill="black"/>
<path id="W&#206;&#158;LCOM&#206;&#158; T0" d="M29.6201 32.5967L30.5342 24.2031H32.5029L30.8682 37H28.8467L27.4492 28.4922L26.0693 37H24.0566L22.4219 24.2031H24.3906L25.3047 32.5527L26.6143 24.2031H28.2666L29.6201 32.5967ZM33.9707 35.3037H42.373V37H33.9707V35.3037ZM34.8057 29.5908H41.4854V31.252H34.8057V29.5908ZM34.0586 24.2031H42.1709V25.9082H34.0586V24.2031ZM47.2422 35.2773H53.3418V37H45.1328V24.2031H47.2422V35.2773ZM64.3809 33.0713C64.3223 33.6865 64.1758 34.249 63.9414 34.7588C63.707 35.2627 63.3965 35.6963 63.0098 36.0596C62.623 36.417 62.166 36.6953 61.6387 36.8945C61.1172 37.0879 60.5342 37.1846 59.8896 37.1846C59.1104 37.1846 58.4307 37.0352 57.8506 36.7363C57.2705 36.4316 56.7871 36.0215 56.4004 35.5059C56.0137 34.9902 55.7236 34.3867 55.5303 33.6953C55.3369 33.0039 55.2373 32.2656 55.2314 31.4805V29.7314C55.2373 28.9521 55.3398 28.2168 55.5391 27.5254C55.7383 26.8281 56.0312 26.2217 56.418 25.7061C56.8105 25.1846 57.2969 24.7744 57.877 24.4756C58.457 24.1709 59.1309 24.0186 59.8984 24.0186C60.5723 24.0186 61.1729 24.1182 61.7002 24.3174C62.2275 24.5166 62.6787 24.7979 63.0537 25.1611C63.4287 25.5244 63.7275 25.9668 63.9502 26.4883C64.1729 27.0098 64.3164 27.5898 64.3809 28.2285H62.2715C62.2363 27.8535 62.1631 27.5137 62.0518 27.209C61.9463 26.8984 61.7998 26.6348 61.6123 26.418C61.4248 26.1953 61.1875 26.0254 60.9004 25.9082C60.6191 25.791 60.2852 25.7324 59.8984 25.7324C59.4238 25.7324 59.0254 25.8408 58.7031 26.0576C58.3809 26.2744 58.1201 26.5674 57.9209 26.9365C57.7217 27.2998 57.5781 27.7217 57.4902 28.2021C57.4082 28.6826 57.3672 29.1865 57.3672 29.7139V31.4805C57.3672 32.0312 57.4082 32.5498 57.4902 33.0361C57.5781 33.5166 57.7188 33.9385 57.9121 34.3018C58.1055 34.665 58.3633 34.9521 58.6855 35.1631C59.0078 35.374 59.4092 35.4795 59.8896 35.4795C60.6279 35.4795 61.1904 35.2715 61.5771 34.8555C61.9639 34.4336 62.1924 33.8389 62.2627 33.0713H64.3809ZM75.2266 31.4277C75.2266 32.1836 75.1299 32.9102 74.9365 33.6074C74.7432 34.2988 74.4531 34.9111 74.0664 35.4443C73.6855 35.9717 73.2051 36.3936 72.625 36.71C72.0508 37.0205 71.377 37.1758 70.6035 37.1758C69.8359 37.1758 69.168 37.0176 68.5996 36.7012C68.0312 36.3848 67.5566 35.9629 67.1758 35.4355C66.8008 34.9023 66.5166 34.29 66.3232 33.5986C66.1357 32.9072 66.042 32.1836 66.042 31.4277V29.793C66.042 29.2891 66.083 28.7969 66.165 28.3164C66.2529 27.8359 66.3789 27.3848 66.543 26.9629C66.7129 26.5352 66.9209 26.1426 67.167 25.7852C67.4189 25.4219 67.7119 25.1113 68.0459 24.8535C68.3857 24.5957 68.7666 24.3936 69.1885 24.2471C69.6162 24.1006 70.085 24.0273 70.5947 24.0273C71.3682 24.0273 72.042 24.1855 72.6162 24.502C73.1963 24.8184 73.6797 25.2432 74.0664 25.7764C74.4531 26.3037 74.7432 26.916 74.9365 27.6133C75.1299 28.3105 75.2266 29.0371 75.2266 29.793V31.4277ZM73.1084 29.7754C73.1025 29.2949 73.0586 28.8174 72.9766 28.3428C72.8945 27.8682 72.7568 27.4463 72.5635 27.0771C72.3701 26.7021 72.1123 26.4004 71.79 26.1719C71.4736 25.9375 71.0752 25.8203 70.5947 25.8203C70.1201 25.8203 69.7246 25.9375 69.4082 26.1719C69.0977 26.4004 68.8486 26.7021 68.6611 27.0771C68.4795 27.4521 68.3506 27.877 68.2744 28.3516C68.2041 28.8203 68.166 29.2949 68.1602 29.7754V31.4277C68.166 31.9082 68.207 32.3857 68.2832 32.8604C68.3594 33.3291 68.4883 33.7539 68.6699 34.1348C68.8574 34.5098 69.1064 34.8145 69.417 35.0488C69.7334 35.2832 70.1289 35.4004 70.6035 35.4004C71.084 35.4004 71.4824 35.2832 71.7988 35.0488C72.1211 34.8145 72.3789 34.5098 72.5723 34.1348C72.7656 33.7598 72.9004 33.335 72.9766 32.8604C73.0586 32.3857 73.1025 31.9082 73.1084 31.4277V29.7754ZM79.8584 24.2031L81.4492 29.7314L83.207 24.2031H85.8262V37H83.8398V32.6055L83.9629 26.998L81.9941 33.1328H80.8867L79.1025 27.209L79.2256 32.6055V37H77.2393V24.2031H79.8584ZM88.0234 35.3037H96.4258V37H88.0234V35.3037ZM88.8584 29.5908H95.5381V31.252H88.8584V29.5908ZM88.1113 24.2031H96.2236V25.9082H88.1113V24.2031ZM118.855 25.9434H114.927V37H112.826V25.9434H108.924V24.2031H118.855V25.9434ZM128.875 32.1309C128.875 32.957 128.778 33.6865 128.585 34.3193C128.397 34.9463 128.125 35.4736 127.768 35.9014C127.41 36.3232 126.974 36.6426 126.458 36.8594C125.942 37.0762 125.362 37.1846 124.718 37.1846C124.079 37.1846 123.502 37.0762 122.986 36.8594C122.471 36.6426 122.031 36.3232 121.668 35.9014C121.311 35.4736 121.032 34.9463 120.833 34.3193C120.64 33.6865 120.543 32.957 120.543 32.1309V29.0723C120.543 28.2461 120.64 27.5195 120.833 26.8926C121.026 26.2598 121.302 25.7324 121.659 25.3105C122.022 24.8828 122.459 24.5605 122.969 24.3438C123.484 24.127 124.062 24.0186 124.7 24.0186C125.345 24.0186 125.925 24.127 126.44 24.3438C126.956 24.5605 127.393 24.8828 127.75 25.3105C128.113 25.7324 128.392 26.2598 128.585 26.8926C128.778 27.5195 128.875 28.2461 128.875 29.0723V32.1309ZM122.652 31.3311L126.748 28.2812C126.701 27.4082 126.508 26.7637 126.168 26.3477C125.834 25.9258 125.345 25.7148 124.7 25.7148C124.015 25.7148 123.502 25.958 123.162 26.4443C122.822 26.9307 122.652 27.6777 122.652 28.6855V31.3311ZM126.766 29.9336L122.67 32.9834C122.775 34.6592 123.458 35.4971 124.718 35.4971C126.083 35.4971 126.766 34.498 126.766 32.5V29.9336Z" fill="black"/>
</g>
</g>
</g>
<defs>
<linearGradient id="paint0_linear" x1="144.388" y1="533.424" x2="144.388" y2="458.95" gradientUnits="userSpaceOnUse">
<stop stop-color="#333334"/>
<stop offset="1" stop-color="#989898"/>
</linearGradient>
<linearGradient id="paint1_linear" x1="272.4" y1="533.424" x2="272.4" y2="458.95" gradientUnits="userSpaceOnUse">
<stop stop-color="#DCDCDC"/>
<stop offset="1" stop-color="#989898"/>
</linearGradient>
<linearGradient id="paint2_linear" x1="310.683" y1="435.621" x2="234.415" y2="435.92" gradientUnits="userSpaceOnUse">
<stop stop-color="#FCE96A"/>
<stop offset="1" stop-color="#4A4A48"/>
</linearGradient>
<linearGradient id="paint3_linear" x1="246.677" y1="216.985" x2="184.765" y2="245.398" gradientUnits="userSpaceOnUse">
<stop stop-color="#5C5C5E"/>
<stop offset="1" stop-color="#FCE96A"/>
</linearGradient>
<linearGradient id="paint4_linear" x1="144.388" y1="399.431" x2="144.388" y2="324.957" gradientUnits="userSpaceOnUse">
<stop stop-color="#CECED1"/>
<stop offset="1" stop-color="#FCE96A"/>
</linearGradient>
<clipPath id="clip0">
<rect width="411" height="731" fill="white"/>
</clipPath>
</defs>
</svg>
